<?xml version="1.0" encoding="UTF-8" standalone="no"?>
<!-- Created with Inkscape (http://www.inkscape.org/) -->

<svg
   xmlns:dc="http://purl.org/dc/elements/1.1/"
   xmlns:cc="http://creativecommons.org/ns#"
   xmlns:rdf="http://www.w3.org/1999/02/22-rdf-syntax-ns#"
   xmlns:svg="http://www.w3.org/2000/svg"
   xmlns="http://www.w3.org/2000/svg"
   xmlns:sodipodi="http://sodipodi.sourceforge.net/DTD/sodipodi-0.dtd"
   xmlns:inkscape="http://www.inkscape.org/namespaces/inkscape"
   width="2125.9841"
   height="1417.3228"
   id="svg2"
   version="1.1"
   inkscape:version="0.48.4 r9939"
   sodipodi:docname="MYSC-01.svg">
  <defs
     id="defs4" />
  <sodipodi:namedview
     id="base"
     pagecolor="#ffffff"
     bordercolor="#666666"
     borderopacity="1.0"
     inkscape:pageopacity="0.0"
     inkscape:pageshadow="2"
     inkscape:zoom="0.98994949"
     inkscape:cx="750.64424"
     inkscape:cy="575.53952"
     inkscape:document-units="mm"
     inkscape:current-layer="layer1"
     showgrid="false"
     units="mm"
     inkscape:window-width="1151"
     inkscape:window-height="794"
     inkscape:window-x="1405"
     inkscape:window-y="24"
     inkscape:window-maximized="0"
     inkscape:object-paths="true"
     inkscape:snap-bbox="true"
     inkscape:object-nodes="true" />
  <metadata
     id="metadata7">
    <rdf:RDF>
      <cc:Work
         rdf:about="">
        <dc:format>image/svg+xml</dc:format>
        <dc:type
           rdf:resource="http://purl.org/dc/dcmitype/StillImage" />
        <dc:title></dc:title>
      </cc:Work>
    </rdf:RDF>
  </metadata>
  <g
     inkscape:label="Layer 1"
     inkscape:groupmode="layer"
     id="layer1"
     transform="translate(0,364.96061)">
    <g
       id="g7321"
       transform="translate(70.866,0)">
      <path
         inkscape:connector-curvature="0"
         id="path4841"
         style="fill:none;stroke:#ff0000;stroke-width:0.27000001;stroke-linecap:butt;stroke-linejoin:miter;stroke-miterlimit:2.61299992;stroke-opacity:1;stroke-dasharray:none"
         d="m 668.88363,126.43295 189.40628,0 0,296.99875 -189.40628,0 0,-296.99875 z" />
      <g
         transform="matrix(1.25,0,0,-1.25,700.9415,423.43195)"
         id="g4843"
         style="fill:none;stroke:#ff0000;stroke-opacity:1">
        <path
           id="path4845"
           style="fill:none;stroke:#ff0000;stroke-width:0.21600001;stroke-linecap:butt;stroke-linejoin:miter;stroke-miterlimit:2.61299992;stroke-opacity:1;stroke-dasharray:none"
           d="M 0,0 0,237.599"
           inkscape:connector-curvature="0" />
      </g>
      <g
         transform="matrix(1.25,0,0,-1.25,826.22223,423.43195)"
         id="g4847"
         style="fill:none;stroke:#ff0000;stroke-opacity:1">
        <path
           id="path4849"
           style="fill:none;stroke:#ff0000;stroke-width:0.21600001;stroke-linecap:butt;stroke-linejoin:miter;stroke-miterlimit:2.61299992;stroke-opacity:1;stroke-dasharray:none"
           d="M 0,0 0,237.599"
           inkscape:connector-curvature="0" />
      </g>
      <path
         d="m 723.16075,274.08133 2.32125,0 c 0.63,0 1.0825,-0.0412 1.355,-0.125 0.36125,-0.1075 0.63375,-0.285 0.8175,-0.53375 0.1825,-0.25 0.27375,-0.5625 0.27375,-0.9375 0,-0.3575 -0.085,-0.67 -0.25625,-0.94125 -0.17,-0.27125 -0.415,-0.4575 -0.7325,-0.5575 -0.31625,-0.1 -0.86125,-0.15 -1.6325,-0.15 l -2.14625,0 0,3.245 z m 0,4.95875 2.67375,0 c 0.45875,0 0.78125,-0.0175 0.96625,-0.0513 0.3275,-0.0588 0.60125,-0.15625 0.82,-0.29375 0.22,-0.13625 0.40125,-0.33375 0.5425,-0.595 0.14125,-0.26125 0.2125,-0.56375 0.2125,-0.90625 0,-0.4 -0.1025,-0.7475 -0.3075,-1.04375 -0.205,-0.295 -0.49,-0.5025 -0.85375,-0.6225 -0.36375,-0.11875 -0.8875,-0.17875 -1.57125,-0.17875 l -2.4825,0 0,3.69125 z m -1.42125,1.26625 0,-10.73625 4.02875,0 c 0.82,0 1.47875,0.10875 1.97375,0.325 0.49625,0.2175 0.88375,0.5525 1.165,1.00375 0.28,0.45125 0.42125,0.92375 0.42125,1.4175 0,0.45875 -0.125,0.89125 -0.37375,1.29625 -0.24875,0.405 -0.625,0.7325 -1.12875,0.98125 0.65,0.19125 1.14875,0.515 1.49875,0.97375 0.34875,0.46 0.52375,1.00125 0.52375,1.62625 0,0.50375 -0.10625,0.9725 -0.31875,1.40375 -0.2125,0.4325 -0.475,0.765 -0.7875,0.99875 -0.3125,0.235 -0.705,0.4125 -1.17625,0.5325 -0.47125,0.12 -1.0475,0.1775 -1.73125,0.1775 l -4.095,0 z"
         style="fill:none;stroke:#ff0000;stroke-width:0.035;stroke-linecap:butt;stroke-linejoin:miter;stroke-miterlimit:10;stroke-opacity:1;stroke-dasharray:none"
         id="path4861"
         inkscape:connector-curvature="0" />
      <path
         d="m 732.37088,280.30695 0,-7.77875 1.18625,0 0,1.18 c 0.3025,-0.5525 0.58125,-0.91625 0.8375,-1.09125 0.25625,-0.17625 0.54,-0.26375 0.8475,-0.26375 0.44375,0 0.89625,0.14125 1.355,0.425 l -0.45375,1.2225 c -0.3225,-0.19 -0.645,-0.285 -0.9675,-0.285 -0.2875,0 -0.54625,0.0862 -0.77625,0.26 -0.23,0.1725 -0.3925,0.41375 -0.49125,0.72125 -0.14625,0.46875 -0.21875,0.98125 -0.21875,1.5375 l 0,4.0725 -1.31875,0 z"
         style="fill:none;stroke:#ff0000;stroke-width:0.035;stroke-linecap:butt;stroke-linejoin:miter;stroke-miterlimit:10;stroke-opacity:1;stroke-dasharray:none"
         id="path4865"
         inkscape:connector-curvature="0" />
      <path
         d="m 739.12625,275.6707 4.34375,0 c -0.0588,-0.65375 -0.225,-1.145 -0.49875,-1.4725 -0.42,-0.5075 -0.96375,-0.76125 -1.6325,-0.76125 -0.60625,0 -1.115,0.2025 -1.5275,0.6075 -0.4125,0.405 -0.64125,0.9475 -0.685,1.62625 z m 4.32875,2.13125 1.3625,0.16875 c -0.215,0.79625 -0.6125,1.41375 -1.19375,1.8525 -0.58125,0.44 -1.32375,0.66 -2.2275,0.66 -1.1375,0 -2.03875,-0.35 -2.70625,-1.05 -0.66625,-0.70125 -0.99875,-1.685 -0.99875,-2.95 0,-1.3075 0.33625,-2.32375 1.01,-3.04625 0.67375,-0.7225 1.5475,-1.08375 2.6225,-1.08375 1.04,0 1.89,0.35375 2.54875,1.06125 0.65875,0.70875 0.98875,1.705 0.98875,2.98875 0,0.0775 -0.002,0.195 -0.007,0.35125 l -5.80125,0 c 0.0487,0.855 0.29125,1.50875 0.725,1.96375 0.435,0.45375 0.9775,0.68 1.62625,0.68 0.48375,0 0.89625,-0.12625 1.23875,-0.38 0.34125,-0.25375 0.6125,-0.66 0.8125,-1.21625 z"
         style="fill:none;stroke:#ff0000;stroke-width:0.035;stroke-linecap:butt;stroke-linejoin:miter;stroke-miterlimit:10;stroke-opacity:1;stroke-dasharray:none"
         id="path4869"
         inkscape:connector-curvature="0" />
      <path
         d="m 752.18775,276.4032 c -0.47875,0.195 -1.19625,0.36125 -2.15375,0.4975 -0.54125,0.0788 -0.925,0.16625 -1.15,0.26375 -0.22375,0.0987 -0.3975,0.2425 -0.52,0.43 -0.12125,0.18875 -0.1825,0.39625 -0.1825,0.625 0,0.35125 0.1325,0.645 0.39875,0.87875 0.26625,0.235 0.65625,0.3525 1.16875,0.3525 0.5075,0 0.95875,-0.11 1.355,-0.3325 0.395,-0.2225 0.68625,-0.5275 0.87125,-0.91375 0.14125,-0.2975 0.2125,-0.73625 0.2125,-1.3175 l 0,-0.48375 z m 0.11,2.94375 c -0.48875,0.41625 -0.95875,0.70875 -1.41,0.88 -0.45125,0.17 -0.93625,0.25625 -1.45375,0.25625 -0.855,0 -1.51125,-0.2075 -1.97,-0.625 -0.45875,-0.4175 -0.68875,-0.9525 -0.68875,-1.6025 0,-0.38 0.0862,-0.7275 0.26,-1.0425 0.17375,-0.315 0.4,-0.56875 0.68125,-0.75875 0.28,-0.19 0.59625,-0.335 0.94875,-0.4325 0.25875,-0.0675 0.64875,-0.13375 1.17125,-0.1975 1.065,-0.12625 1.84875,-0.27875 2.35125,-0.45375 0.005,-0.18125 0.008,-0.29625 0.008,-0.345 0,-0.53625 -0.125,-0.915 -0.37375,-1.135 -0.3375,-0.2975 -0.8375,-0.44625 -1.50125,-0.44625 -0.62,0 -1.0775,0.10875 -1.37375,0.32625 -0.295,0.21625 -0.51375,0.60125 -0.655,1.1525 l -1.28875,-0.175 c 0.11625,-0.5525 0.31,-0.9975 0.5775,-1.3375 0.26875,-0.33875 0.6575,-0.6 1.165,-0.78375 0.5075,-0.1825 1.09625,-0.27375 1.765,-0.27375 0.66375,0 1.20375,0.0775 1.61875,0.23375 0.415,0.15625 0.72,0.3525 0.91625,0.59 0.195,0.23625 0.33125,0.53625 0.41,0.8975 0.0438,0.22375 0.065,0.63 0.065,1.215 l 0,1.75875 c 0,1.225 0.0287,2.00125 0.085,2.32625 0.0562,0.325 0.1675,0.635 0.3325,0.9325 l -1.37625,0 c -0.1375,-0.27375 -0.225,-0.59375 -0.26375,-0.96 z"
         style="fill:none;stroke:#ff0000;stroke-width:0.035;stroke-linecap:butt;stroke-linejoin:miter;stroke-miterlimit:10;stroke-opacity:1;stroke-dasharray:none"
         id="path4873"
         inkscape:connector-curvature="0" />
      <path
         d="m 757.19388,276.42508 c 0,0.99625 0.21,1.74125 0.63,2.23375 0.42,0.49375 0.915,0.74 1.48625,0.74 0.57625,0 1.06625,-0.235 1.46875,-0.70625 0.4025,-0.47 0.605,-1.19125 0.605,-2.1575 0,-1.065 -0.205,-1.84625 -0.61625,-2.34375 -0.41,-0.49875 -0.915,-0.7475 -1.51625,-0.7475 -0.585,0 -1.075,0.24 -1.4675,0.7175 -0.39375,0.47875 -0.59,1.23375 -0.59,2.26375 z m 4.1675,3.88125 0,-0.98125 c -0.49375,0.7725 -1.21875,1.1575 -2.175,1.1575 -0.62,0 -1.19,-0.17125 -1.71,-0.5125 -0.52,-0.34125 -0.92375,-0.8175 -1.20875,-1.43125 -0.28625,-0.6125 -0.42875,-1.3175 -0.42875,-2.11375 0,-0.77625 0.13,-1.48125 0.38875,-2.1125 0.25875,-0.6325 0.64625,-1.1175 1.16375,-1.455 0.5175,-0.33625 1.09625,-0.505 1.73625,-0.505 0.46875,0 0.88625,0.0987 1.2525,0.29625 0.36625,0.19875 0.66375,0.45625 0.89375,0.77375 l 0,-3.8525 1.31125,0 0,10.73625 -1.22375,0 z"
         style="fill:none;stroke:#ff0000;stroke-width:0.035;stroke-linecap:butt;stroke-linejoin:miter;stroke-miterlimit:10;stroke-opacity:1;stroke-dasharray:none"
         id="path4877"
         inkscape:connector-curvature="0" />
      <path
         d="m 766.608,276.3592 c 0,0.9325 0.1275,1.60625 0.38125,2.02125 0.415,0.67875 0.97625,1.01875 1.68375,1.01875 0.57626,0 1.07501,-0.25 1.49501,-0.75 0.42,-0.5 0.63,-1.2475 0.63,-2.23875 0,-1.015 -0.2025,-1.765 -0.605,-2.24875 -0.4025,-0.48375 -0.89,-0.725 -1.46126,-0.725 -0.57625,0 -1.07375,0.25 -1.49375,0.75125 -0.42,0.5 -0.63,1.22375 -0.63,2.17125 z m 0.015,3.9475 -1.22375,0 0,-10.7375 1.31875,0 0,3.83125 c 0.55625,-0.69875 1.2675,-1.0475 2.13126,-1.0475 0.47875,0 0.93125,0.0962 1.35875,0.28875 0.4275,0.19375 0.77875,0.46375 1.055,0.81375 0.275,0.34875 0.49125,0.77 0.6475,1.2625 0.15625,0.49375 0.235,1.02125 0.235,1.5825 0,1.33375 -0.33,2.36375 -0.98875,3.09125 -0.66,0.7275 -1.45,1.09125 -2.37375,1.09125 -0.91751,0 -1.63751,-0.38375 -2.16001,-1.15 l 0,0.97375 z"
         style="fill:none;stroke:#ff0000;stroke-width:0.035;stroke-linecap:butt;stroke-linejoin:miter;stroke-miterlimit:10;stroke-opacity:1;stroke-dasharray:none"
         id="path4881"
         inkscape:connector-curvature="0" />
      <path
         d="m 775.36413,276.41783 c 0,0.99625 0.2175,1.74375 0.65125,2.23875 0.435,0.49625 0.9825,0.7425 1.64125,0.7425 0.65375,0 1.19875,-0.24875 1.63375,-0.7475 0.43375,-0.4975 0.65125,-1.2575 0.65125,-2.2775 0,-0.9625 -0.21875,-1.69125 -0.655,-2.18625 -0.4375,-0.49625 -0.98,-0.74375 -1.63,-0.74375 -0.65875,0 -1.20625,0.24625 -1.64125,0.74 -0.43375,0.4925 -0.65125,1.2375 -0.65125,2.23375 z m -1.355,0 c 0,-1.44 0.4,-2.5075 1.20125,-3.20125 0.66875,-0.575 1.48375,-0.86375 2.44625,-0.86375 1.06875,0 1.94375,0.35 2.6225,1.05125 0.67875,0.7 1.0175,1.66875 1.0175,2.90375 0,1.00125 -0.15,1.79 -0.45,2.36375 -0.3,0.57375 -0.7375,1.0175 -1.31125,1.335 -0.57375,0.3175 -1.2,0.47625 -1.87875,0.47625 -1.08875,0 -1.96875,-0.34875 -2.64,-1.0475 -0.67125,-0.69875 -1.0075,-1.70375 -1.0075,-3.0175 z"
         style="fill:none;stroke:#ff0000;stroke-width:0.035;stroke-linecap:butt;stroke-linejoin:miter;stroke-miterlimit:10;stroke-opacity:1;stroke-dasharray:none"
         id="path4885"
         inkscape:connector-curvature="0" />
      <path
         d="m 788.55738,276.4032 c -0.47875,0.195 -1.19625,0.36125 -2.15375,0.4975 -0.54125,0.0788 -0.925,0.16625 -1.15,0.26375 -0.22375,0.0987 -0.3975,0.2425 -0.52,0.43 -0.12125,0.18875 -0.1825,0.39625 -0.1825,0.625 0,0.35125 0.1325,0.645 0.39875,0.87875 0.26625,0.235 0.65625,0.3525 1.16875,0.3525 0.5075,0 0.95875,-0.11 1.355,-0.3325 0.395,-0.2225 0.68625,-0.5275 0.87125,-0.91375 0.14125,-0.2975 0.2125,-0.73625 0.2125,-1.3175 l 0,-0.48375 z m 0.11,2.94375 c -0.48875,0.41625 -0.95875,0.70875 -1.41,0.88 -0.45125,0.17 -0.93625,0.25625 -1.45375,0.25625 -0.855,0 -1.51125,-0.2075 -1.97,-0.625 -0.45875,-0.4175 -0.68875,-0.9525 -0.68875,-1.6025 0,-0.38 0.0863,-0.7275 0.26,-1.0425 0.17375,-0.315 0.4,-0.56875 0.68125,-0.75875 0.28,-0.19 0.59625,-0.335 0.94875,-0.4325 0.25875,-0.0675 0.64875,-0.13375 1.17125,-0.1975 1.065,-0.12625 1.84875,-0.27875 2.35125,-0.45375 0.005,-0.18125 0.007,-0.29625 0.007,-0.345 0,-0.53625 -0.125,-0.915 -0.37375,-1.135 -0.3375,-0.2975 -0.8375,-0.44625 -1.50125,-0.44625 -0.62,0 -1.0775,0.10875 -1.37375,0.32625 -0.295,0.21625 -0.51375,0.60125 -0.655,1.1525 l -1.28875,-0.175 c 0.11625,-0.5525 0.31,-0.9975 0.5775,-1.3375 0.26875,-0.33875 0.6575,-0.6 1.165,-0.78375 0.5075,-0.1825 1.09625,-0.27375 1.765,-0.27375 0.66375,0 1.20375,0.0775 1.61875,0.23375 0.415,0.15625 0.72,0.3525 0.91625,0.59 0.195,0.23625 0.33125,0.53625 0.41,0.8975 0.0438,0.22375 0.065,0.63 0.065,1.215 l 0,1.75875 c 0,1.225 0.0288,2.00125 0.085,2.32625 0.0563,0.325 0.1675,0.635 0.3325,0.9325 l -1.37625,0 c -0.1375,-0.27375 -0.225,-0.59375 -0.26375,-0.96 z"
         style="fill:none;stroke:#ff0000;stroke-width:0.035;stroke-linecap:butt;stroke-linejoin:miter;stroke-miterlimit:10;stroke-opacity:1;stroke-dasharray:none"
         id="path4889"
         inkscape:connector-curvature="0" />
      <path
         d="m 792.66876,280.30695 0,-7.77875 1.18625,0 0,1.18 c 0.3025,-0.5525 0.5825,-0.91625 0.83875,-1.09125 0.25625,-0.17625 0.53875,-0.26375 0.84625,-0.26375 0.44375,0 0.89625,0.14125 1.355,0.425 l -0.45375,1.2225 c -0.3225,-0.19 -0.645,-0.285 -0.9675,-0.285 -0.2875,0 -0.54625,0.0862 -0.77625,0.26 -0.23,0.1725 -0.3925,0.41375 -0.49125,0.72125 -0.14625,0.46875 -0.21875,0.98125 -0.21875,1.5375 l 0,4.0725 -1.31875,0 z"
         style="fill:none;stroke:#ff0000;stroke-width:0.035;stroke-linecap:butt;stroke-linejoin:miter;stroke-miterlimit:10;stroke-opacity:1;stroke-dasharray:none"
         id="path4893"
         inkscape:connector-curvature="0" />
      <path
         d="m 799.30813,276.42508 c 0,0.99625 0.21,1.74125 0.63,2.23375 0.42,0.49375 0.915,0.74 1.48625,0.74 0.57625,0 1.06625,-0.235 1.46875,-0.70625 0.4025,-0.47 0.605,-1.19125 0.605,-2.1575 0,-1.065 -0.205,-1.84625 -0.61625,-2.34375 -0.41,-0.49875 -0.915,-0.7475 -1.51625,-0.7475 -0.585,0 -1.075,0.24 -1.4675,0.7175 -0.39375,0.47875 -0.59,1.23375 -0.59,2.26375 z m 4.1675,3.88125 0,-0.98125 c -0.49375,0.7725 -1.21875,1.1575 -2.175,1.1575 -0.62,0 -1.19,-0.17125 -1.71,-0.5125 -0.52,-0.34125 -0.92375,-0.8175 -1.20875,-1.43125 -0.28625,-0.6125 -0.42875,-1.3175 -0.42875,-2.11375 0,-0.77625 0.13,-1.48125 0.38875,-2.1125 0.25875,-0.6325 0.64625,-1.1175 1.16375,-1.455 0.5175,-0.33625 1.09625,-0.505 1.73625,-0.505 0.46875,0 0.88625,0.0987 1.2525,0.29625 0.36625,0.19875 0.66375,0.45625 0.89375,0.77375 l 0,-3.8525 1.31125,0 0,10.73625 -1.22375,0 z"
         style="fill:none;stroke:#ff0000;stroke-width:0.035;stroke-linecap:butt;stroke-linejoin:miter;stroke-miterlimit:10;stroke-opacity:1;stroke-dasharray:none"
         id="path4897"
         inkscape:connector-curvature="0" />
    </g>
    <path
       style="fill:none;stroke:#ff0000;stroke-width:0.35433072;stroke-miterlimit:4;stroke-opacity:1"
       d="m 360.30386,142.05844 251.57479,0 c 3.92598,0 7.08661,3.16063 7.08661,7.08662 l 0,251.57479 c 0,3.92598 -3.16063,7.08661 -7.08661,7.08661 l -251.57479,0 c -3.92599,0 -7.08662,-3.16063 -7.08662,-7.08661 l 0,-251.57479 c 0,-3.92599 3.16063,-7.08662 7.08662,-7.08662 z"
       id="rect6371"
       inkscape:connector-curvature="0" />
    <path
       style="fill:none;stroke:#000000;stroke-width:0.16077751;stroke-miterlimit:4;stroke-opacity:1"
       d="m 369.16675,396.41798 c 0,2.49959 -2.02633,4.5259 -4.52592,4.5259 -2.49959,0 -4.52592,-2.02631 -4.52592,-4.5259 0,-2.49958 2.02633,-4.5259 4.52592,-4.5259 2.49959,0 4.52592,2.02632 4.52592,4.5259 z"
       id="path6884"
       inkscape:connector-curvature="0" />
    <path
       style="fill:none;stroke:#000000;stroke-width:0.16077751;stroke-miterlimit:4;stroke-opacity:1"
       d="m 612.06759,396.41798 c 0,2.49959 -2.02633,4.5259 -4.52592,4.5259 -2.49959,0 -4.52592,-2.02631 -4.52592,-4.5259 0,-2.49958 2.02633,-4.5259 4.52592,-4.5259 2.49959,0 4.52592,2.02632 4.52592,4.5259 z"
       id="path6886"
       inkscape:connector-curvature="0" />
    <path
       inkscape:connector-curvature="0"
       id="path6882"
       d="m 369.16675,153.44691 c 0,2.49959 -2.02633,4.52591 -4.52592,4.52591 -2.49959,0 -4.52592,-2.02632 -4.52592,-4.52591 0,-2.49958 2.02633,-4.5259 4.52592,-4.5259 2.49959,0 4.52592,2.02632 4.52592,4.5259 z"
       style="fill:none;stroke:#000000;stroke-width:0.16077766;stroke-miterlimit:4;stroke-opacity:1" />
    <path
       inkscape:connector-curvature="0"
       id="path6888"
       d="m 576.63459,153.44691 c 0,2.49959 -2.02633,4.52591 -4.52592,4.52591 -2.49959,0 -4.52592,-2.02632 -4.52592,-4.52591 0,-2.49958 2.02633,-4.5259 4.52592,-4.5259 2.49959,0 4.52592,2.02632 4.52592,4.5259 z"
       style="fill:none;stroke:#000000;stroke-width:0.16077766;stroke-miterlimit:4;stroke-opacity:1" />
    <path
       style="fill:none;stroke:#ff0000;stroke-width:0.35433072;stroke-miterlimit:4;stroke-opacity:1"
       d="m 329.83141,168.63324 26.5748,0 0,56.69291 -26.5748,0 z"
       id="rect6890"
       inkscape:connector-curvature="0" />
    <path
       style="fill:none;stroke:#ff0000;stroke-width:0.35433072;stroke-miterlimit:4;stroke-opacity:1"
       d="m 329.83141,329.85371 26.5748,0 0,56.69291 -26.5748,0 z"
       id="rect6892"
       inkscape:connector-curvature="0" />
    <path
       style="fill:none;stroke:#ff0000;stroke-width:0.35433072;stroke-miterlimit:4;stroke-opacity:1"
       d="m 379.79207,425.52299 0,-26.5748 56.69292,0 0,26.5748 z"
       id="rect6894"
       inkscape:connector-curvature="0" />
    <path
       style="fill:none;stroke:#ff0000;stroke-width:0.35433072;stroke-miterlimit:4;stroke-opacity:1"
       d="m 462.52828,425.52299 0,-26.5748 56.69291,0 0,26.5748 z"
       id="rect6896"
       inkscape:connector-curvature="0" />
    <path
       style="fill:none;stroke:#ff0000;stroke-width:0.35433072;stroke-miterlimit:4;stroke-opacity:1"
       d="m 544.37844,425.52299 0,-26.5748 56.69291,0 0,26.5748 z"
       id="rect6898"
       inkscape:connector-curvature="0" />
    <path
       style="fill:none;stroke:#ff0000;stroke-width:0.37729105;stroke-miterlimit:4;stroke-opacity:1"
       d="m 617.15725,329.86528 30.14272,0 0,56.6698 -30.14272,0 z"
       id="rect6900"
       inkscape:connector-curvature="0" />
    <path
       style="fill:none;stroke:#ff0000;stroke-width:0.37729105;stroke-miterlimit:4;stroke-opacity:1"
       d="m 617.15725,248.01506 30.14272,0 0,56.6698 -30.14272,0 z"
       id="rect6902"
       inkscape:connector-curvature="0" />
    <path
       style="fill:none;stroke:#ff0000;stroke-width:0.37729105;stroke-miterlimit:4;stroke-opacity:1"
       d="m 617.15725,166.16482 30.14272,0 0,56.66981 -30.14272,0 z"
       id="rect6904"
       inkscape:connector-curvature="0" />
    <path
       style="fill:none;stroke:#ff0000;stroke-width:0.35433072;stroke-miterlimit:4;stroke-opacity:1"
       d="m 379.79207,144.58865 177.16536,0 0,17.71653 -177.16536,0 z"
       id="rect6906"
       inkscape:connector-curvature="0" />
    <path
       style="fill:none;stroke:#ff0000;stroke-width:0.35433072;stroke-miterlimit:4;stroke-opacity:1"
       d="m 583.53219,142.05844 26.5748,0 0,19.48819 -26.5748,0 z"
       id="rect6912"
       inkscape:connector-curvature="0" />
    <g
       style="font-size:40px;font-style:normal;font-weight:normal;line-height:125%;letter-spacing:0px;word-spacing:0px;fill:#000000;fill-opacity:1;stroke:none;font-family:Sans"
       id="text6928">
      <path
         d="m 444.45972,281.19644 c 0,0 0,-8.016 0,-9.12 0,-1.104 -1.056,-3.168 -4.104,-3.192 -3.04799,-0.024 -4.152,2.352 -4.152,4.56 0,-2.208 1.10401,-4.584 4.152,-4.56 3.048,0.024 4.104,2.088 4.104,3.192 0,1.104 0,9.12 0,9.12 m -8.256,0 c 0,0 0,-8.016 0,-9.12 0,-1.104 -0.72,-3.168 -3.768,-3.192 -3.04799,-0.024 -4.416,2.352 -4.416,4.56 0,-2.208 1.36801,-4.584 4.416,-4.56 3.048,0.024 3.768,2.088 3.768,3.192 0,1.104 0,9.12 0,9.12 m -8.184,0 0,-12.312 0,12.312"
         style="font-size:24px;font-variant:normal;font-stretch:normal;fill:none;stroke:#ff0000;stroke-opacity:1;font-family:Eng_HelvLine;-inkscape-font-specification:Eng_HelvLine"
         id="path7347" />
      <path
         d="m 452.68347,286.14044 c 1.608,0.504 2.76,-0.36 3.264,-1.704 l 5.712,-15.384 -5.712,15.384 c -0.504,1.344 -1.656,2.208 -3.264,1.704 m -0.912,-17.184 5.352,12.312 -5.352,-12.312"
         style="font-size:24px;font-variant:normal;font-stretch:normal;fill:none;stroke:#ff0000;stroke-opacity:1;font-family:Eng_HelvLine;-inkscape-font-specification:Eng_HelvLine"
         id="path7349" />
      <path
         d="m 467.33397,275.96444 c 0,3.84 2.92801,5.376 6.36,5.376 3.48,0 5.664,-2.184 5.736,-4.32 0.072,-2.112 -1.008,-3.792 -3.144,-4.248 l -5.88,-1.272 c -1.65599,-0.36 -2.64,-1.32 -2.64,-3.576 0,-2.256 1.89601,-4.2 5.352,-4.2 3.456,0 5.976,1.632 5.88,4.488 0.096,-2.856 -2.424,-4.488 -5.88,-4.488 -3.45599,0 -5.352,1.944 -5.352,4.2 0,2.256 0.93601,3.192 2.64,3.576 l 5.88,1.272 c 2.184,0.456 3.216,2.136 3.144,4.248 -0.072,2.136 -2.256,4.32 -5.736,4.32 -3.43199,0 -6.36,-1.536 -6.36,-5.376"
         style="font-size:24px;font-variant:normal;font-stretch:normal;fill:none;stroke:#ff0000;stroke-opacity:1;font-family:Eng_HelvLine;-inkscape-font-specification:Eng_HelvLine"
         id="path7351" />
      <path
         d="m 490.20822,281.07644 c -1.17599,0.072 -2.448,0.12 -2.448,-1.488 0,-1.632 0,-15.36 0,-15.36 0,0 0,13.728 0,15.36 0,1.608 1.27201,1.56 2.448,1.488 m -4.968,-12.312 5.016,0 -5.016,0"
         style="font-size:24px;font-variant:normal;font-stretch:normal;fill:none;stroke:#ff0000;stroke-opacity:1;font-family:Eng_HelvLine;-inkscape-font-specification:Eng_HelvLine"
         id="path7353" />
      <path
         d="m 501.09447,281.19644 c 3,0 5.448,-1.416 5.448,-6.288 0,-4.84799 -2.448,-6.264 -5.448,-6.264 -2.97599,0 -5.448,1.41601 -5.448,6.264 0,4.872 2.47201,6.288 5.448,6.288 m 0,0 c 3,0 5.448,-1.416 5.448,-6.288 0,-4.84799 -2.448,-6.264 -5.448,-6.264 -2.97599,0 -5.448,1.41601 -5.448,6.264 0,4.872 2.47201,6.288 5.448,6.288"
         style="font-size:24px;font-variant:normal;font-stretch:normal;fill:none;stroke:#ff0000;stroke-opacity:1;font-family:Eng_HelvLine;-inkscape-font-specification:Eng_HelvLine"
         id="path7355" />
      <path
         d="m 514.90422,274.90844 c -0.072,-2.76 2.47201,-6.048 4.704,-6.024 -2.23199,-0.024 -4.776,3.264 -4.704,6.024 m 0,6.288 0,-12.312 0,12.312"
         style="font-size:24px;font-variant:normal;font-stretch:normal;fill:none;stroke:#ff0000;stroke-opacity:1;font-family:Eng_HelvLine;-inkscape-font-specification:Eng_HelvLine"
         id="path7357" />
      <path
         d="m 544.16285,281.19644 c 0,0 0,-8.016 0,-9.12 0,-1.104 -1.056,-3.168 -4.104,-3.192 -3.048,-0.024 -4.152,2.352 -4.152,4.56 0,-2.208 1.104,-4.584 4.152,-4.56 3.048,0.024 4.104,2.088 4.104,3.192 0,1.104 0,9.12 0,9.12 m -8.256,0 c 0,0 0,-8.016 0,-9.12 0,-1.104 -0.72,-3.168 -3.768,-3.192 -3.048,-0.024 -4.416,2.352 -4.416,4.56 0,-2.208 1.368,-4.584 4.416,-4.56 3.048,0.024 3.768,2.088 3.768,3.192 0,1.104 0,9.12 0,9.12 m -8.184,0 0,-12.312 0,12.312"
         style="font-size:24px;font-variant:normal;font-stretch:normal;fill:none;stroke:#ff0000;stroke-opacity:1;font-family:Eng_HelvLine;-inkscape-font-specification:Eng_HelvLine"
         id="path7359" />
    </g>
    <path
       style="fill:none;stroke:#000000;stroke-width:0.35433072;stroke-miterlimit:4;stroke-opacity:1"
       d="m 337.14978,89.97536 591.7322,0 c 19.62992,0 35.43307,15.80315 35.43307,35.43307 l 0,301.18125 c 0,19.62992 -15.80315,35.43307 -35.43307,35.43307 l -591.7322,0 c -19.62992,0 -35.43307,-15.80315 -35.43307,-35.43307 l 0,-301.18125 c 0,-19.62992 15.80315,-35.43307 35.43307,-35.43307 z"
       id="rect7080"
       inkscape:connector-curvature="0"
       sodipodi:nodetypes="sssssssss" />
    <path
       style="fill:none;stroke:#000000;stroke-width:0.1978801;stroke-miterlimit:4;stroke-opacity:1"
       d="m 334.77818,118.01391 c 0,3.07642 -2.49394,5.57036 -5.57035,5.57036 -3.07641,0 -5.57035,-2.49394 -5.57035,-5.57036 0,-3.07641 2.49394,-5.57035 5.57035,-5.57035 3.07641,0 5.57035,2.49394 5.57035,5.57035 z"
       id="path7338"
       inkscape:connector-curvature="0" />
    <path
       inkscape:connector-curvature="0"
       id="path7340"
       d="m 334.77818,431.85098 c 0,3.07643 -2.49394,5.57035 -5.57035,5.57035 -3.07641,0 -5.57035,-2.49392 -5.57035,-5.57035 0,-3.07641 2.49394,-5.57035 5.57035,-5.57035 3.07641,0 5.57035,2.49394 5.57035,5.57035 z"
       style="fill:none;stroke:#000000;stroke-width:0.19788003;stroke-miterlimit:4;stroke-opacity:1" />
    <path
       inkscape:connector-curvature="0"
       id="path7342"
       d="m 648.54502,431.85098 c 0,3.07643 -2.49394,5.57035 -5.57035,5.57035 -3.07641,0 -5.57035,-2.49392 -5.57035,-5.57035 0,-3.07641 2.49394,-5.57035 5.57035,-5.57035 3.07641,0 5.57035,2.49394 5.57035,5.57035 z"
       style="fill:none;stroke:#000000;stroke-width:0.19788003;stroke-miterlimit:4;stroke-opacity:1" />
    <path
       style="fill:none;stroke:#000000;stroke-width:0.1978801;stroke-miterlimit:4;stroke-opacity:1"
       d="m 648.54502,118.01391 c 0,3.07642 -2.49394,5.57036 -5.57035,5.57036 -3.07641,0 -5.57035,-2.49394 -5.57035,-5.57036 0,-3.07641 2.49394,-5.57035 5.57035,-5.57035 3.07641,0 5.57035,2.49394 5.57035,5.57035 z"
       id="path7344"
       inkscape:connector-curvature="0" />
    <g
       id="g8407"
       transform="translate(686.90373,-432.34529)">
      <path
         style="fill:none;stroke:#000000;stroke-width:0.1978801;stroke-miterlimit:4;stroke-opacity:1"
         d="m 334.77818,543.20991 c 0,3.07642 -2.49394,5.57036 -5.57035,5.57036 -3.07641,0 -5.57035,-2.49394 -5.57035,-5.57036 0,-3.07641 2.49394,-5.57035 5.57035,-5.57035 3.07641,0 5.57035,2.49394 5.57035,5.57035 z"
         id="path7369"
         inkscape:connector-curvature="0" />
      <path
         inkscape:connector-curvature="0"
         id="path7371"
         d="m 334.77818,857.04698 c 0,3.07643 -2.49394,5.57035 -5.57035,5.57035 -3.07641,0 -5.57035,-2.49392 -5.57035,-5.57035 0,-3.07641 2.49394,-5.57035 5.57035,-5.57035 3.07641,0 5.57035,2.49394 5.57035,5.57035 z"
         style="fill:none;stroke:#000000;stroke-width:0.19788003;stroke-miterlimit:4;stroke-opacity:1" />
      <path
         inkscape:connector-curvature="0"
         id="path7373"
         d="m 648.54502,857.04698 c 0,3.07643 -2.49394,5.57035 -5.57035,5.57035 -3.07641,0 -5.57035,-2.49392 -5.57035,-5.57035 0,-3.07641 2.49394,-5.57035 5.57035,-5.57035 3.07641,0 5.57035,2.49394 5.57035,5.57035 z"
         style="fill:none;stroke:#000000;stroke-width:0.19788003;stroke-miterlimit:4;stroke-opacity:1" />
      <path
         style="fill:none;stroke:#000000;stroke-width:0.1978801;stroke-miterlimit:4;stroke-opacity:1"
         d="m 648.54502,543.20991 c 0,3.07642 -2.49394,5.57036 -5.57035,5.57036 -3.07641,0 -5.57035,-2.49394 -5.57035,-5.57036 0,-3.07641 2.49394,-5.57035 5.57035,-5.57035 3.07641,0 5.57035,2.49394 5.57035,5.57035 z"
         id="path7375"
         inkscape:connector-curvature="0" />
      <path
         sodipodi:nodetypes="cssssssssssssccsssscc"
         inkscape:connector-curvature="0"
         id="path7428"
         d="m 590.62866,515.11403 47.71509,0.0504 c 19.62992,0 35.4375,15.80758 35.4375,35.4375 l 0,17.71875 c 0,9.81496 -17.71875,7.90379 -17.71875,17.71875 l 0,230.3125 c 0,9.815 17.71875,7.9037 17.71875,17.7187 l 0,17.7188 c 0,19.6299 -15.80758,35.4375 -35.4375,35.4375 l -301.1875,0 c -19.62992,0 -35.4375,-15.8076 -35.4375,-35.4375 l 0,-301.1875 c 0,-19.62992 15.80758,-35.4375 35.4375,-35.4375 l 8.971,0 c 9.79108,0 17.72832,7.97703 17.72241,17.76686 l -0.006,53.10814 c -10e-4,9.81496 7.90379,17.71875 17.71875,17.71875 l 173.625,0 c 9.81496,0 17.71875,-7.90379 17.71875,-17.71875 l 0,-53.1585 c 0,-9.84019 7.93725,-17.81722 17.72241,-17.76686 z"
         style="fill:none;stroke:#000000;stroke-width:0.35433072;stroke-miterlimit:4;stroke-opacity:1" />
    </g>
    <rect
       style="fill:none;stroke:#000000;stroke-width:0.17716534;stroke-miterlimit:4;stroke-opacity:1;stroke-dasharray:none"
       id="rect3831"
       width="35.433071"
       height="35.433071"
       x="298.49396"
       y="554.51862" />
    <text
       xml:space="preserve"
       style="font-size:40px;font-style:normal;font-weight:normal;line-height:125%;letter-spacing:0px;word-spacing:0px;fill:#000000;fill-opacity:1;stroke:none;font-family:Sans"
       x="347.38531"
       y="565.42834"
       id="text3841"
       sodipodi:linespacing="125%"><tspan
         sodipodi:role="line"
         id="tspan3843"
         x="347.38531"
         y="565.42834"
         style="font-size:14px">scale: square = 10mm</tspan><tspan
         sodipodi:role="line"
         x="347.38531"
         y="582.92834"
         style="font-size:14px"
         id="tspan3845">key:</tspan><tspan
         sodipodi:role="line"
         x="347.38531"
         y="600.42834"
         style="font-size:14px"
         id="tspan3847">red = vector etch</tspan><tspan
         sodipodi:role="line"
         x="347.38531"
         y="617.92834"
         style="font-size:14px"
         id="tspan3849">black = cut</tspan><tspan
         sodipodi:role="line"
         x="347.38531"
         y="635.42834"
         style="font-size:14px"
         id="tspan3851" /><tspan
         sodipodi:role="line"
         x="347.38531"
         y="652.92834"
         style="font-size:14px"
         id="tspan4372">recommended stock = 3mm acrylic sheet</tspan><tspan
         sodipodi:role="line"
         x="347.38531"
         y="670.42834"
         style="font-size:14px"
         id="tspan4366" /></text>
  </g>
</svg>
