  0
SECTION
  2
HEADER
  9
$ACADVER
  1
AC1014
  9
$HANDSEED
  5
FFFF
  9
$MEASUREMENT
 70
     1
  0
ENDSEC
  0
SECTION
  2
TABLES
  0
TABLE
  2
VPORT
  5
8
330
0
100
AcDbSymbolTable
 70
     4
  0
VPORT
  5
2E
330
8
100
AcDbSymbolTableRecord
100
AcDbViewportTableRecord
  2
*ACTIVE
 70
     0
 10
0.0
 20
0.0
 11
1.0
 21
1.0
 12
210.0
 22
148.5
 13
0.0
 23
0.0
 14
10.0
 24
10.0
 15
10.0
 25
10.0
 16
0.0
 26
0.0
 36
1.0
 17
0.0
 27
0.0
 37
0.0
 40
341.0
 41
1.24
 42
50.0
 43
0.0
 44
0.0
 50
0.0
 51
0.0
 71
     0
 72
   100
 73
     1
 74
     3
 75
     0
 76
     0
 77
     0
 78
     0
  0
ENDTAB
  0
TABLE
  2
LTYPE
  5
5
330
0
100
AcDbSymbolTable
 70
     1
  0
LTYPE
  5
14
330
5
100
AcDbSymbolTableRecord
100
AcDbLinetypeTableRecord
  2
BYBLOCK
 70
     0
  3

 72
    65
 73
     0
 40
0.0
  0
LTYPE
  5
15
330
5
100
AcDbSymbolTableRecord
100
AcDbLinetypeTableRecord
  2
BYLAYER
 70
     0
  3

 72
    65
 73
     0
 40
0.0
  0
LTYPE
  5
16
330
5
100
AcDbSymbolTableRecord
100
AcDbLinetypeTableRecord
  2
CONTINUOUS
 70
     0
  3
Solid line
 72
    65
 73
     0
 40
0.0
  0
ENDTAB
  0
TABLE
  2
LAYER
  5
2
100
AcDbSymbolTable
 70
2
  0
LAYER
  5
50
100
AcDbSymbolTableRecord
100
AcDbLayerTableRecord
  2
0
 70
0
  6
CONTINUOUS
  0
LAYER
  5
51
100
AcDbSymbolTableRecord
100
AcDbLayerTableRecord
  2
Layer_1
 70
0
  6
CONTINUOUS
  0
ENDTAB
  0
TABLE
  2
STYLE
  5
3
330
0
100
AcDbSymbolTable
 70
     1
  0
STYLE
  5
11
330
3
100
AcDbSymbolTableRecord
100
AcDbTextStyleTableRecord
  2
STANDARD
 70
     0
 40
0.0
 41
1.0
 50
0.0
 71
     0
 42
2.5
  3
txt
  4

  0
ENDTAB
  0
TABLE
  2
VIEW
  5
6
330
0
100
AcDbSymbolTable
 70
     0
  0
ENDTAB
  0
TABLE
  2
UCS
  5
7
330
0
100
AcDbSymbolTable
 70
     0
  0
ENDTAB
  0
TABLE
  2
APPID
  5
9
330
0
100
AcDbSymbolTable
 70
     2
  0
APPID
  5
12
330
9
100
AcDbSymbolTableRecord
100
AcDbRegAppTableRecord
  2
ACAD
 70
     0
  0
ENDTAB
  0
TABLE
  2
DIMSTYLE
  5
A
330
0
100
AcDbSymbolTable
 70
     1
  0
DIMSTYLE
105
27
330
A
100
AcDbSymbolTableRecord
100
AcDbDimStyleTableRecord
  2
ISO-25
 70
     0
  3

  4

  5

  6

  7

 40
1.0
 41
2.5
 42
0.625
 43
3.75
 44
1.25
 45
0.0
 46
0.0
 47
0.0
 48
0.0
140
2.5
141
2.5
142
0.0
143
0.03937007874016
144
1.0
145
0.0
146
1.0
147
0.625
 71
     0
 72
     0
 73
     0
 74
     0
 75
     0
 76
     0
 77
     1
 78
     8
170
     0
171
     3
172
     1
173
     0
174
     0
175
     0
176
     0
177
     0
178
     0
270
     2
271
     2
272
     2
273
     2
274
     3
340
11
275
     0
280
     0
281
     0
282
     0
283
     0
284
     8
285
     0
286
     0
287
     3
288
     0
  0
ENDTAB
  0
TABLE
  2
BLOCK_RECORD
  5
1
330
0
100
AcDbSymbolTable
 70
     1
  0
BLOCK_RECORD
  5
1F
330
1
100
AcDbSymbolTableRecord
100
AcDbBlockTableRecord
  2
*MODEL_SPACE
  0
BLOCK_RECORD
  5
1B
330
1
100
AcDbSymbolTableRecord
100
AcDbBlockTableRecord
  2
*PAPER_SPACE
  0
ENDTAB
  0
ENDSEC
  0
SECTION
  2
BLOCKS
  0
BLOCK
  5
20
330
1F
100
AcDbEntity
  8
0
100
AcDbBlockBegin
  2
*MODEL_SPACE
 70
     0
 10
0.0
 20
0.0
 30
0.0
  3
*MODEL_SPACE
  1

  0
ENDBLK
  5
21
330
1F
100
AcDbEntity
  8
0
100
AcDbBlockEnd
  0
BLOCK
  5
1C
330
1B
100
AcDbEntity
 67
     1
  8
0
100
AcDbBlockBegin
  2
*PAPER_SPACE
  1

  0
ENDBLK
  5
1D
330
1B
100
AcDbEntity
 67
     1
  8
0
100
AcDbBlockEnd
  0
ENDSEC
  0
SECTION
  2
ENTITIES
  0
LINE
  5
100
100
AcDbEntity
  8
Layer_1
 62
1
100
AcDbLine
 10
208.773784
 20
261.317808
 30
0.0
 11
262.228446
 21
261.317808
 31
0.0
  0
LINE
  5
101
100
AcDbEntity
  8
Layer_1
 62
1
100
AcDbLine
 10
262.228446
 20
261.317808
 30
0.0
 11
262.228446
 21
177.498161
 31
0.0
  0
LINE
  5
102
100
AcDbEntity
  8
Layer_1
 62
1
100
AcDbLine
 10
262.228446
 20
177.498161
 30
0.0
 11
208.773784
 21
177.498161
 31
0.0
  0
LINE
  5
103
100
AcDbEntity
  8
Layer_1
 62
1
100
AcDbLine
 10
208.773784
 20
177.498161
 30
0.0
 11
208.773784
 21
261.317808
 31
0.0
  0
LINE
  5
104
100
AcDbEntity
  8
Layer_1
 62
1
100
AcDbLine
 10
208.773784
 20
261.317808
 30
0.0
 11
208.773784
 21
261.317808
 31
0.0
  0
LINE
  5
105
100
AcDbEntity
  8
Layer_1
 62
1
100
AcDbLine
 10
217.821228
 20
177.498090
 30
0.0
 11
217.821228
 21
261.317737
 31
0.0
  0
LINE
  5
106
100
AcDbEntity
  8
Layer_1
 62
1
100
AcDbLine
 10
253.178234
 20
177.498090
 30
0.0
 11
253.178234
 21
261.317737
 31
0.0
  0
LINE
  5
107
100
AcDbEntity
  8
Layer_1
 62
1
100
AcDbLine
 10
224.091994
 20
219.648154
 30
0.0
 11
224.747102
 21
219.648154
 31
0.0
  0
SPLINE
  5
108
100
AcDbEntity
  8
Layer_1
 62
1
100
AcDbSpline
 70
8
 71
3
 72
8
 73
4
 74
0
 40
0
 40
0
 40
0
 40
0
 40
1
 40
1
 40
1
 40
1
 10
224.747102
 20
219.648154
 30
0.0
 10
224.924902
 20
219.648154
 30
0.0
 10
225.052608
 20
219.659781
 30
0.0
 10
225.129513
 20
219.683432
 30
0.0
  0
SPLINE
  5
109
100
AcDbEntity
  8
Layer_1
 62
1
100
AcDbSpline
 70
8
 71
3
 72
8
 73
4
 74
0
 40
0
 40
0
 40
0
 40
0
 40
1
 40
1
 40
1
 40
1
 10
225.129513
 20
219.683432
 30
0.0
 10
225.231466
 20
219.713770
 30
0.0
 10
225.308372
 20
219.763865
 30
0.0
 10
225.360230
 20
219.834068
 30
0.0
  0
SPLINE
  5
10a
100
AcDbEntity
  8
Layer_1
 62
1
100
AcDbSpline
 70
8
 71
3
 72
8
 73
4
 74
0
 40
0
 40
0
 40
0
 40
0
 40
1
 40
1
 40
1
 40
1
 10
225.360230
 20
219.834068
 30
0.0
 10
225.411736
 20
219.904623
 30
0.0
 10
225.437488
 20
219.992818
 30
0.0
 10
225.437488
 20
220.098651
 30
0.0
  0
SPLINE
  5
10b
100
AcDbEntity
  8
Layer_1
 62
1
100
AcDbSpline
 70
8
 71
3
 72
8
 73
4
 74
0
 40
0
 40
0
 40
0
 40
0
 40
1
 40
1
 40
1
 40
1
 10
225.437488
 20
220.098651
 30
0.0
 10
225.437488
 20
220.199545
 30
0.0
 10
225.413499
 20
220.287740
 30
0.0
 10
225.365169
 20
220.364293
 30
0.0
  0
SPLINE
  5
10c
100
AcDbEntity
  8
Layer_1
 62
1
100
AcDbSpline
 70
8
 71
3
 72
8
 73
4
 74
0
 40
0
 40
0
 40
0
 40
0
 40
1
 40
1
 40
1
 40
1
 10
225.365169
 20
220.364293
 30
0.0
 10
225.317191
 20
220.440845
 30
0.0
 10
225.248047
 20
220.493409
 30
0.0
 10
225.158441
 20
220.521632
 30
0.0
  0
SPLINE
  5
10d
100
AcDbEntity
  8
Layer_1
 62
1
100
AcDbSpline
 70
8
 71
3
 72
8
 73
4
 74
0
 40
0
 40
0
 40
0
 40
0
 40
1
 40
1
 40
1
 40
1
 10
225.158441
 20
220.521632
 30
0.0
 10
225.069188
 20
220.549854
 30
0.0
 10
224.915377
 20
220.563965
 30
0.0
 10
224.697713
 20
220.563965
 30
0.0
  0
LINE
  5
10e
100
AcDbEntity
  8
Layer_1
 62
1
100
AcDbLine
 10
224.697713
 20
220.563965
 30
0.0
 11
224.091994
 21
220.563965
 31
0.0
  0
LINE
  5
10f
100
AcDbEntity
  8
Layer_1
 62
1
100
AcDbLine
 10
224.091994
 20
220.563965
 30
0.0
 11
224.091994
 21
219.648154
 31
0.0
  0
LINE
  5
110
100
AcDbEntity
  8
Layer_1
 62
1
100
AcDbLine
 10
224.091994
 20
219.648154
 30
0.0
 11
224.091994
 21
219.648154
 31
0.0
  0
LINE
  5
111
100
AcDbEntity
  8
Layer_1
 62
1
100
AcDbLine
 10
224.091994
 20
218.248684
 30
0.0
 11
224.846586
 21
218.248684
 31
0.0
  0
SPLINE
  5
112
100
AcDbEntity
  8
Layer_1
 62
1
100
AcDbSpline
 70
8
 71
3
 72
8
 73
4
 74
0
 40
0
 40
0
 40
0
 40
0
 40
1
 40
1
 40
1
 40
1
 10
224.846586
 20
218.248684
 30
0.0
 10
224.976055
 20
218.248684
 30
0.0
 10
225.067072
 20
218.253623
 30
0.0
 10
225.119283
 20
218.263162
 30
0.0
  0
SPLINE
  5
113
100
AcDbEntity
  8
Layer_1
 62
1
100
AcDbSpline
 70
8
 71
3
 72
8
 73
4
 74
0
 40
0
 40
0
 40
0
 40
0
 40
1
 40
1
 40
1
 40
1
 10
225.119283
 20
218.263162
 30
0.0
 10
225.211711
 20
218.279757
 30
0.0
 10
225.288969
 20
218.307260
 30
0.0
 10
225.350705
 20
218.346065
 30
0.0
  0
SPLINE
  5
114
100
AcDbEntity
  8
Layer_1
 62
1
100
AcDbSpline
 70
8
 71
3
 72
8
 73
4
 74
0
 40
0
 40
0
 40
0
 40
0
 40
1
 40
1
 40
1
 40
1
 10
225.350705
 20
218.346065
 30
0.0
 10
225.412794
 20
218.384518
 30
0.0
 10
225.463947
 20
218.440257
 30
0.0
 10
225.503811
 20
218.513987
 30
0.0
  0
SPLINE
  5
115
100
AcDbEntity
  8
Layer_1
 62
1
100
AcDbSpline
 70
8
 71
3
 72
8
 73
4
 74
0
 40
0
 40
0
 40
0
 40
0
 40
1
 40
1
 40
1
 40
1
 10
225.503811
 20
218.513987
 30
0.0
 10
225.543674
 20
218.587718
 30
0.0
 10
225.563783
 20
218.673090
 30
0.0
 10
225.563783
 20
218.769751
 30
0.0
  0
SPLINE
  5
116
100
AcDbEntity
  8
Layer_1
 62
1
100
AcDbSpline
 70
8
 71
3
 72
8
 73
4
 74
0
 40
0
 40
0
 40
0
 40
0
 40
1
 40
1
 40
1
 40
1
 10
225.563783
 20
218.769751
 30
0.0
 10
225.563783
 20
218.882640
 30
0.0
 10
225.534855
 20
218.980712
 30
0.0
 10
225.476999
 20
219.064321
 30
0.0
  0
SPLINE
  5
117
100
AcDbEntity
  8
Layer_1
 62
1
100
AcDbSpline
 70
8
 71
3
 72
8
 73
4
 74
0
 40
0
 40
0
 40
0
 40
0
 40
1
 40
1
 40
1
 40
1
 10
225.476999
 20
219.064321
 30
0.0
 10
225.419144
 20
219.147576
 30
0.0
 10
225.338711
 20
219.206137
 30
0.0
 10
225.236052
 20
219.240004
 30
0.0
  0
SPLINE
  5
118
100
AcDbEntity
  8
Layer_1
 62
1
100
AcDbSpline
 70
8
 71
3
 72
8
 73
4
 74
0
 40
0
 40
0
 40
0
 40
0
 40
1
 40
1
 40
1
 40
1
 10
225.236052
 20
219.240004
 30
0.0
 10
225.133394
 20
219.273518
 30
0.0
 10
224.985580
 20
219.290451
 30
0.0
 10
224.792611
 20
219.290451
 30
0.0
  0
LINE
  5
119
100
AcDbEntity
  8
Layer_1
 62
1
100
AcDbLine
 10
224.792611
 20
219.290451
 30
0.0
 11
224.091994
 21
219.290451
 31
0.0
  0
LINE
  5
11a
100
AcDbEntity
  8
Layer_1
 62
1
100
AcDbLine
 10
224.091994
 20
219.290451
 30
0.0
 11
224.091994
 21
218.248698
 31
0.0
  0
LINE
  5
11b
100
AcDbEntity
  8
Layer_1
 62
1
100
AcDbLine
 10
224.091994
 20
218.248698
 30
0.0
 11
224.091994
 21
218.248684
 31
0.0
  0
LINE
  5
11c
100
AcDbEntity
  8
Layer_1
 62
1
100
AcDbLine
 10
223.690886
 20
217.891320
 30
0.0
 11
223.690886
 21
220.921329
 31
0.0
  0
LINE
  5
11d
100
AcDbEntity
  8
Layer_1
 62
1
100
AcDbLine
 10
223.690886
 20
220.921329
 30
0.0
 11
224.827888
 21
220.921329
 31
0.0
  0
SPLINE
  5
11e
100
AcDbEntity
  8
Layer_1
 62
1
100
AcDbSpline
 70
8
 71
3
 72
8
 73
4
 74
0
 40
0
 40
0
 40
0
 40
0
 40
1
 40
1
 40
1
 40
1
 10
224.827888
 20
220.921329
 30
0.0
 10
225.059311
 20
220.921329
 30
0.0
 10
225.245224
 20
220.890637
 30
0.0
 10
225.384924
 20
220.829607
 30
0.0
  0
SPLINE
  5
11f
100
AcDbEntity
  8
Layer_1
 62
1
100
AcDbSpline
 70
8
 71
3
 72
8
 73
4
 74
0
 40
0
 40
0
 40
0
 40
0
 40
1
 40
1
 40
1
 40
1
 10
225.384924
 20
220.829607
 30
0.0
 10
225.524977
 20
220.768223
 30
0.0
 10
225.634338
 20
220.673679
 30
0.0
 10
225.713713
 20
220.546326
 30
0.0
  0
SPLINE
  5
120
100
AcDbEntity
  8
Layer_1
 62
1
100
AcDbSpline
 70
8
 71
3
 72
8
 73
4
 74
0
 40
0
 40
0
 40
0
 40
0
 40
1
 40
1
 40
1
 40
1
 10
225.713713
 20
220.546326
 30
0.0
 10
225.792736
 20
220.418973
 30
0.0
 10
225.832599
 20
220.285623
 30
0.0
 10
225.832599
 20
220.146276
 30
0.0
  0
SPLINE
  5
121
100
AcDbEntity
  8
Layer_1
 62
1
100
AcDbSpline
 70
8
 71
3
 72
8
 73
4
 74
0
 40
0
 40
0
 40
0
 40
0
 40
1
 40
1
 40
1
 40
1
 10
225.832599
 20
220.146276
 30
0.0
 10
225.832599
 20
220.016807
 30
0.0
 10
225.797322
 20
219.894745
 30
0.0
 10
225.727119
 20
219.780445
 30
0.0
  0
SPLINE
  5
122
100
AcDbEntity
  8
Layer_1
 62
1
100
AcDbSpline
 70
8
 71
3
 72
8
 73
4
 74
0
 40
0
 40
0
 40
0
 40
0
 40
1
 40
1
 40
1
 40
1
 10
225.727119
 20
219.780445
 30
0.0
 10
225.656916
 20
219.666145
 30
0.0
 10
225.550730
 20
219.573718
 30
0.0
 10
225.408561
 20
219.503515
 30
0.0
  0
SPLINE
  5
123
100
AcDbEntity
  8
Layer_1
 62
1
100
AcDbSpline
 70
8
 71
3
 72
8
 73
4
 74
0
 40
0
 40
0
 40
0
 40
0
 40
1
 40
1
 40
1
 40
1
 10
225.408561
 20
219.503515
 30
0.0
 10
225.592005
 20
219.449540
 30
0.0
 10
225.732763
 20
219.358170
 30
0.0
 10
225.831541
 20
219.228701
 30
0.0
  0
SPLINE
  5
124
100
AcDbEntity
  8
Layer_1
 62
1
100
AcDbSpline
 70
8
 71
3
 72
8
 73
4
 74
0
 40
0
 40
0
 40
0
 40
0
 40
1
 40
1
 40
1
 40
1
 10
225.831541
 20
219.228701
 30
0.0
 10
225.929966
 20
219.098879
 30
0.0
 10
225.979355
 20
218.946126
 30
0.0
 10
225.979355
 20
218.769737
 30
0.0
  0
SPLINE
  5
125
100
AcDbEntity
  8
Layer_1
 62
1
100
AcDbSpline
 70
8
 71
3
 72
8
 73
4
 74
0
 40
0
 40
0
 40
0
 40
0
 40
1
 40
1
 40
1
 40
1
 10
225.979355
 20
218.769737
 30
0.0
 10
225.979355
 20
218.627568
 30
0.0
 10
225.949369
 20
218.495276
 30
0.0
 10
225.889397
 20
218.373568
 30
0.0
  0
SPLINE
  5
126
100
AcDbEntity
  8
Layer_1
 62
1
100
AcDbSpline
 70
8
 71
3
 72
8
 73
4
 74
0
 40
0
 40
0
 40
0
 40
0
 40
1
 40
1
 40
1
 40
1
 10
225.889397
 20
218.373568
 30
0.0
 10
225.829424
 20
218.251507
 30
0.0
 10
225.755341
 20
218.157668
 30
0.0
 10
225.667147
 20
218.091698
 30
0.0
  0
SPLINE
  5
127
100
AcDbEntity
  8
Layer_1
 62
1
100
AcDbSpline
 70
8
 71
3
 72
8
 73
4
 74
0
 40
0
 40
0
 40
0
 40
0
 40
1
 40
1
 40
1
 40
1
 10
225.667147
 20
218.091698
 30
0.0
 10
225.578952
 20
218.025376
 30
0.0
 10
225.468180
 20
217.975282
 30
0.0
 10
225.335183
 20
217.941415
 30
0.0
  0
SPLINE
  5
128
100
AcDbEntity
  8
Layer_1
 62
1
100
AcDbSpline
 70
8
 71
3
 72
8
 73
4
 74
0
 40
0
 40
0
 40
0
 40
0
 40
1
 40
1
 40
1
 40
1
 10
225.335183
 20
217.941415
 30
0.0
 10
225.202186
 20
217.907548
 30
0.0
 10
225.039555
 20
217.891320
 30
0.0
 10
224.846586
 20
217.891320
 30
0.0
  0
LINE
  5
129
100
AcDbEntity
  8
Layer_1
 62
1
100
AcDbLine
 10
224.846586
 20
217.891320
 30
0.0
 11
223.690886
 21
217.891320
 31
0.0
  0
LINE
  5
12a
100
AcDbEntity
  8
Layer_1
 62
1
100
AcDbLine
 10
223.690886
 20
217.891320
 30
0.0
 11
223.690886
 21
217.891320
 31
0.0
  0
LINE
  5
12b
100
AcDbEntity
  8
Layer_1
 62
1
100
AcDbLine
 10
226.691297
 20
217.891146
 30
0.0
 11
226.691297
 21
220.086482
 31
0.0
  0
LINE
  5
12c
100
AcDbEntity
  8
Layer_1
 62
1
100
AcDbLine
 10
226.691297
 20
220.086482
 30
0.0
 11
227.026083
 21
220.086482
 31
0.0
  0
LINE
  5
12d
100
AcDbEntity
  8
Layer_1
 62
1
100
AcDbLine
 10
227.026083
 20
220.086482
 30
0.0
 11
227.026083
 21
219.753459
 31
0.0
  0
SPLINE
  5
12e
100
AcDbEntity
  8
Layer_1
 62
1
100
AcDbSpline
 70
8
 71
3
 72
8
 73
4
 74
0
 40
0
 40
0
 40
0
 40
0
 40
1
 40
1
 40
1
 40
1
 10
227.026083
 20
219.753459
 30
0.0
 10
227.111456
 20
219.909387
 30
0.0
 10
227.190125
 20
220.012046
 30
0.0
 10
227.262444
 20
220.061434
 30
0.0
  0
SPLINE
  5
12f
100
AcDbEntity
  8
Layer_1
 62
1
100
AcDbSpline
 70
8
 71
3
 72
8
 73
4
 74
0
 40
0
 40
0
 40
0
 40
0
 40
1
 40
1
 40
1
 40
1
 10
227.262444
 20
220.061434
 30
0.0
 10
227.334764
 20
220.111176
 30
0.0
 10
227.414844
 20
220.135871
 30
0.0
 10
227.501628
 20
220.135871
 30
0.0
  0
SPLINE
  5
130
100
AcDbEntity
  8
Layer_1
 62
1
100
AcDbSpline
 70
8
 71
3
 72
8
 73
4
 74
0
 40
0
 40
0
 40
0
 40
0
 40
1
 40
1
 40
1
 40
1
 10
227.501628
 20
220.135871
 30
0.0
 10
227.626864
 20
220.135871
 30
0.0
 10
227.754569
 20
220.096007
 30
0.0
 10
227.884039
 20
220.015926
 30
0.0
  0
LINE
  5
131
100
AcDbEntity
  8
Layer_1
 62
1
100
AcDbLine
 10
227.884039
 20
220.015926
 30
0.0
 11
227.755981
 21
219.670909
 31
0.0
  0
SPLINE
  5
132
100
AcDbEntity
  8
Layer_1
 62
1
100
AcDbSpline
 70
8
 71
3
 72
8
 73
4
 74
0
 40
0
 40
0
 40
0
 40
0
 40
1
 40
1
 40
1
 40
1
 10
227.755981
 20
219.670909
 30
0.0
 10
227.664964
 20
219.724532
 30
0.0
 10
227.573947
 20
219.751343
 30
0.0
 10
227.482931
 20
219.751343
 30
0.0
  0
SPLINE
  5
133
100
AcDbEntity
  8
Layer_1
 62
1
100
AcDbSpline
 70
8
 71
3
 72
8
 73
4
 74
0
 40
0
 40
0
 40
0
 40
0
 40
1
 40
1
 40
1
 40
1
 10
227.482931
 20
219.751343
 30
0.0
 10
227.401792
 20
219.751343
 30
0.0
 10
227.328767
 20
219.727015
 30
0.0
 10
227.263856
 20
219.677965
 30
0.0
  0
SPLINE
  5
134
100
AcDbEntity
  8
Layer_1
 62
1
100
AcDbSpline
 70
8
 71
3
 72
8
 73
4
 74
0
 40
0
 40
0
 40
0
 40
0
 40
1
 40
1
 40
1
 40
1
 10
227.263856
 20
219.677965
 30
0.0
 10
227.198944
 20
219.629282
 30
0.0
 10
227.153083
 20
219.561196
 30
0.0
 10
227.125214
 20
219.474412
 30
0.0
  0
SPLINE
  5
135
100
AcDbEntity
  8
Layer_1
 62
1
100
AcDbSpline
 70
8
 71
3
 72
8
 73
4
 74
0
 40
0
 40
0
 40
0
 40
0
 40
1
 40
1
 40
1
 40
1
 10
227.125214
 20
219.474412
 30
0.0
 10
227.083939
 20
219.342121
 30
0.0
 10
227.063478
 20
219.197482
 30
0.0
 10
227.063478
 20
219.040496
 30
0.0
  0
LINE
  5
136
100
AcDbEntity
  8
Layer_1
 62
1
100
AcDbLine
 10
227.063478
 20
219.040496
 30
0.0
 11
227.063478
 21
217.891146
 31
0.0
  0
LINE
  5
137
100
AcDbEntity
  8
Layer_1
 62
1
100
AcDbLine
 10
227.063478
 20
217.891146
 30
0.0
 11
226.691297
 21
217.891146
 31
0.0
  0
LINE
  5
138
100
AcDbEntity
  8
Layer_1
 62
1
100
AcDbLine
 10
226.691297
 20
217.891146
 30
0.0
 11
226.691297
 21
217.891146
 31
0.0
  0
LINE
  5
139
100
AcDbEntity
  8
Layer_1
 62
1
100
AcDbLine
 10
228.597813
 20
219.199598
 30
0.0
 11
229.823716
 21
219.199598
 31
0.0
  0
SPLINE
  5
13a
100
AcDbEntity
  8
Layer_1
 62
1
100
AcDbSpline
 70
8
 71
3
 72
8
 73
4
 74
0
 40
0
 40
0
 40
0
 40
0
 40
1
 40
1
 40
1
 40
1
 10
229.823716
 20
219.199598
 30
0.0
 10
229.807121
 20
219.384101
 30
0.0
 10
229.760216
 20
219.522743
 30
0.0
 10
229.682957
 20
219.615171
 30
0.0
  0
SPLINE
  5
13b
100
AcDbEntity
  8
Layer_1
 62
1
100
AcDbSpline
 70
8
 71
3
 72
8
 73
4
 74
0
 40
0
 40
0
 40
0
 40
0
 40
1
 40
1
 40
1
 40
1
 10
229.682957
 20
219.615171
 30
0.0
 10
229.564424
 20
219.758398
 30
0.0
 10
229.410966
 20
219.830012
 30
0.0
 10
229.222229
 20
219.830012
 30
0.0
  0
SPLINE
  5
13c
100
AcDbEntity
  8
Layer_1
 62
1
100
AcDbSpline
 70
8
 71
3
 72
8
 73
4
 74
0
 40
0
 40
0
 40
0
 40
0
 40
1
 40
1
 40
1
 40
1
 10
229.222229
 20
219.830012
 30
0.0
 10
229.051132
 20
219.830012
 30
0.0
 10
228.907552
 20
219.772862
 30
0.0
 10
228.791135
 20
219.658562
 30
0.0
  0
SPLINE
  5
13d
100
AcDbEntity
  8
Layer_1
 62
1
100
AcDbSpline
 70
8
 71
3
 72
8
 73
4
 74
0
 40
0
 40
0
 40
0
 40
0
 40
1
 40
1
 40
1
 40
1
 10
228.791135
 20
219.658562
 30
0.0
 10
228.674718
 20
219.544262
 30
0.0
 10
228.610160
 20
219.391157
 30
0.0
 10
228.597813
 20
219.199598
 30
0.0
  0
LINE
  5
13e
100
AcDbEntity
  8
Layer_1
 62
1
100
AcDbLine
 10
228.597813
 20
219.199598
 30
0.0
 11
228.597813
 21
219.199598
 31
0.0
  0
LINE
  5
13f
100
AcDbEntity
  8
Layer_1
 62
1
100
AcDbLine
 10
229.819482
 20
218.598112
 30
0.0
 11
230.204010
 21
218.550487
 31
0.0
  0
SPLINE
  5
140
100
AcDbEntity
  8
Layer_1
 62
1
100
AcDbSpline
 70
8
 71
3
 72
8
 73
4
 74
0
 40
0
 40
0
 40
0
 40
0
 40
1
 40
1
 40
1
 40
1
 10
230.204010
 20
218.550487
 30
0.0
 10
230.143332
 20
218.325768
 30
0.0
 10
230.031149
 20
218.151496
 30
0.0
 10
229.867107
 20
218.027671
 30
0.0
  0
SPLINE
  5
141
100
AcDbEntity
  8
Layer_1
 62
1
100
AcDbSpline
 70
8
 71
3
 72
8
 73
4
 74
0
 40
0
 40
0
 40
0
 40
0
 40
1
 40
1
 40
1
 40
1
 10
229.867107
 20
218.027671
 30
0.0
 10
229.703066
 20
217.903493
 30
0.0
 10
229.493516
 20
217.841404
 30
0.0
 10
229.238457
 20
217.841404
 30
0.0
  0
SPLINE
  5
142
100
AcDbEntity
  8
Layer_1
 62
1
100
AcDbSpline
 70
8
 71
3
 72
8
 73
4
 74
0
 40
0
 40
0
 40
0
 40
0
 40
1
 40
1
 40
1
 40
1
 10
229.238457
 20
217.841404
 30
0.0
 10
228.917429
 20
217.841404
 30
0.0
 10
228.663077
 20
217.940182
 30
0.0
 10
228.474693
 20
218.137737
 30
0.0
  0
SPLINE
  5
143
100
AcDbEntity
  8
Layer_1
 62
1
100
AcDbSpline
 70
8
 71
3
 72
8
 73
4
 74
0
 40
0
 40
0
 40
0
 40
0
 40
1
 40
1
 40
1
 40
1
 10
228.474693
 20
218.137737
 30
0.0
 10
228.286663
 20
218.335646
 30
0.0
 10
228.192824
 20
218.613282
 30
0.0
 10
228.192824
 20
218.970293
 30
0.0
  0
SPLINE
  5
144
100
AcDbEntity
  8
Layer_1
 62
1
100
AcDbSpline
 70
8
 71
3
 72
8
 73
4
 74
0
 40
0
 40
0
 40
0
 40
0
 40
1
 40
1
 40
1
 40
1
 10
228.192824
 20
218.970293
 30
0.0
 10
228.192824
 20
219.339298
 30
0.0
 10
228.287721
 20
219.626107
 30
0.0
 10
228.477868
 20
219.830012
 30
0.0
  0
SPLINE
  5
145
100
AcDbEntity
  8
Layer_1
 62
1
100
AcDbSpline
 70
8
 71
3
 72
8
 73
4
 74
0
 40
0
 40
0
 40
0
 40
0
 40
1
 40
1
 40
1
 40
1
 10
228.477868
 20
219.830012
 30
0.0
 10
228.668016
 20
220.033918
 30
0.0
 10
228.914607
 20
220.135871
 30
0.0
 10
229.217996
 20
220.135871
 30
0.0
  0
SPLINE
  5
146
100
AcDbEntity
  8
Layer_1
 62
1
100
AcDbSpline
 70
8
 71
3
 72
8
 73
4
 74
0
 40
0
 40
0
 40
0
 40
0
 40
1
 40
1
 40
1
 40
1
 10
229.217996
 20
220.135871
 30
0.0
 10
229.511507
 20
220.135871
 30
0.0
 10
229.751396
 20
220.036034
 30
0.0
 10
229.937310
 20
219.836362
 30
0.0
  0
SPLINE
  5
147
100
AcDbEntity
  8
Layer_1
 62
1
100
AcDbSpline
 70
8
 71
3
 72
8
 73
4
 74
0
 40
0
 40
0
 40
0
 40
0
 40
1
 40
1
 40
1
 40
1
 10
229.937310
 20
219.836362
 30
0.0
 10
230.123224
 20
219.636337
 30
0.0
 10
230.216357
 20
219.355173
 30
0.0
 10
230.216357
 20
218.992871
 30
0.0
  0
SPLINE
  5
148
100
AcDbEntity
  8
Layer_1
 62
1
100
AcDbSpline
 70
8
 71
3
 72
8
 73
4
 74
0
 40
0
 40
0
 40
0
 40
0
 40
1
 40
1
 40
1
 40
1
 10
230.216357
 20
218.992871
 30
0.0
 10
230.216357
 20
218.970998
 30
0.0
 10
230.215793
 20
218.937837
 30
0.0
 10
230.214382
 20
218.893740
 30
0.0
  0
LINE
  5
149
100
AcDbEntity
  8
Layer_1
 62
1
100
AcDbLine
 10
230.214382
 20
218.893740
 30
0.0
 11
228.577140
 21
218.893740
 31
0.0
  0
SPLINE
  5
14a
100
AcDbEntity
  8
Layer_1
 62
1
100
AcDbSpline
 70
8
 71
3
 72
8
 73
4
 74
0
 40
0
 40
0
 40
0
 40
0
 40
1
 40
1
 40
1
 40
1
 10
228.577140
 20
218.893740
 30
0.0
 10
228.590884
 20
218.652440
 30
0.0
 10
228.659337
 20
218.467937
 30
0.0
 10
228.781751
 20
218.339526
 30
0.0
  0
SPLINE
  5
14b
100
AcDbEntity
  8
Layer_1
 62
1
100
AcDbSpline
 70
8
 71
3
 72
8
 73
4
 74
0
 40
0
 40
0
 40
0
 40
0
 40
1
 40
1
 40
1
 40
1
 10
228.781751
 20
218.339526
 30
0.0
 10
228.904518
 20
218.211468
 30
0.0
 10
229.057623
 20
218.147615
 30
0.0
 10
229.240715
 20
218.147615
 30
0.0
  0
SPLINE
  5
14c
100
AcDbEntity
  8
Layer_1
 62
1
100
AcDbSpline
 70
8
 71
3
 72
8
 73
4
 74
0
 40
0
 40
0
 40
0
 40
0
 40
1
 40
1
 40
1
 40
1
 10
229.240715
 20
218.147615
 30
0.0
 10
229.377240
 20
218.147615
 30
0.0
 10
229.493657
 20
218.183246
 30
0.0
 10
229.590318
 20
218.254859
 30
0.0
  0
SPLINE
  5
14d
100
AcDbEntity
  8
Layer_1
 62
1
100
AcDbSpline
 70
8
 71
3
 72
8
 73
4
 74
0
 40
0
 40
0
 40
0
 40
0
 40
1
 40
1
 40
1
 40
1
 10
229.590318
 20
218.254859
 30
0.0
 10
229.686626
 20
218.326473
 30
0.0
 10
229.763179
 20
218.441126
 30
0.0
 10
229.819623
 20
218.598112
 30
0.0
  0
LINE
  5
14e
100
AcDbEntity
  8
Layer_1
 62
1
100
AcDbLine
 10
229.819623
 20
218.598112
 30
0.0
 11
229.819482
 21
218.598112
 31
0.0
  0
SPLINE
  5
14f
100
AcDbEntity
  8
Layer_1
 62
1
100
AcDbSpline
 70
8
 71
3
 72
8
 73
4
 74
0
 40
0
 40
0
 40
0
 40
0
 40
1
 40
1
 40
1
 40
1
 10
232.284058
 20
218.992871
 30
0.0
 10
232.148944
 20
218.937837
 30
0.0
 10
231.946450
 20
218.890918
 30
0.0
 10
231.676222
 20
218.852465
 30
0.0
  0
SPLINE
  5
150
100
AcDbEntity
  8
Layer_1
 62
1
100
AcDbSpline
 70
8
 71
3
 72
8
 73
4
 74
0
 40
0
 40
0
 40
0
 40
0
 40
1
 40
1
 40
1
 40
1
 10
231.676222
 20
218.852465
 30
0.0
 10
231.523469
 20
218.830226
 30
0.0
 10
231.415167
 20
218.805546
 30
0.0
 10
231.351667
 20
218.778029
 30
0.0
  0
SPLINE
  5
151
100
AcDbEntity
  8
Layer_1
 62
1
100
AcDbSpline
 70
8
 71
3
 72
8
 73
4
 74
0
 40
0
 40
0
 40
0
 40
0
 40
1
 40
1
 40
1
 40
1
 10
231.351667
 20
218.778029
 30
0.0
 10
231.288519
 20
218.750174
 30
0.0
 10
231.239483
 20
218.709590
 30
0.0
 10
231.204911
 20
218.656673
 30
0.0
  0
SPLINE
  5
152
100
AcDbEntity
  8
Layer_1
 62
1
100
AcDbSpline
 70
8
 71
3
 72
8
 73
4
 74
0
 40
0
 40
0
 40
0
 40
0
 40
1
 40
1
 40
1
 40
1
 10
231.204911
 20
218.656673
 30
0.0
 10
231.170692
 20
218.603404
 30
0.0
 10
231.153406
 20
218.544843
 30
0.0
 10
231.153406
 20
218.480284
 30
0.0
  0
SPLINE
  5
153
100
AcDbEntity
  8
Layer_1
 62
1
100
AcDbSpline
 70
8
 71
3
 72
8
 73
4
 74
0
 40
0
 40
0
 40
0
 40
0
 40
1
 40
1
 40
1
 40
1
 10
231.153406
 20
218.480284
 30
0.0
 10
231.153406
 20
218.381154
 30
0.0
 10
231.190800
 20
218.298251
 30
0.0
 10
231.265942
 20
218.232282
 30
0.0
  0
SPLINE
  5
154
100
AcDbEntity
  8
Layer_1
 62
1
100
AcDbSpline
 70
8
 71
3
 72
8
 73
4
 74
0
 40
0
 40
0
 40
0
 40
0
 40
1
 40
1
 40
1
 40
1
 10
231.265942
 20
218.232282
 30
0.0
 10
231.341083
 20
218.165959
 30
0.0
 10
231.451150
 20
218.132798
 30
0.0
 10
231.595789
 20
218.132798
 30
0.0
  0
SPLINE
  5
155
100
AcDbEntity
  8
Layer_1
 62
1
100
AcDbSpline
 70
8
 71
3
 72
8
 73
4
 74
0
 40
0
 40
0
 40
0
 40
0
 40
1
 40
1
 40
1
 40
1
 10
231.595789
 20
218.132798
 30
0.0
 10
231.739017
 20
218.132798
 30
0.0
 10
231.866369
 20
218.163843
 30
0.0
 10
231.978200
 20
218.226637
 30
0.0
  0
SPLINE
  5
156
100
AcDbEntity
  8
Layer_1
 62
1
100
AcDbSpline
 70
8
 71
3
 72
8
 73
4
 74
0
 40
0
 40
0
 40
0
 40
0
 40
1
 40
1
 40
1
 40
1
 10
231.978200
 20
218.226637
 30
0.0
 10
232.089678
 20
218.289432
 30
0.0
 10
232.171875
 20
218.375509
 30
0.0
 10
232.224086
 20
218.484518
 30
0.0
  0
SPLINE
  5
157
100
AcDbEntity
  8
Layer_1
 62
1
100
AcDbSpline
 70
8
 71
3
 72
8
 73
4
 74
0
 40
0
 40
0
 40
0
 40
0
 40
1
 40
1
 40
1
 40
1
 10
232.224086
 20
218.484518
 30
0.0
 10
232.263950
 20
218.568479
 30
0.0
 10
232.284058
 20
218.692304
 30
0.0
 10
232.284058
 20
218.856346
 30
0.0
  0
LINE
  5
158
100
AcDbEntity
  8
Layer_1
 62
1
100
AcDbLine
 10
232.284058
 20
218.856346
 30
0.0
 11
232.284058
 21
218.992871
 31
0.0
  0
LINE
  5
159
100
AcDbEntity
  8
Layer_1
 62
1
100
AcDbLine
 10
232.284058
 20
218.992871
 30
0.0
 11
232.284058
 21
218.992871
 31
0.0
  0
SPLINE
  5
15a
100
AcDbEntity
  8
Layer_1
 62
1
100
AcDbSpline
 70
8
 71
3
 72
8
 73
4
 74
0
 40
0
 40
0
 40
0
 40
0
 40
1
 40
1
 40
1
 40
1
 10
232.315103
 20
218.162079
 30
0.0
 10
232.177167
 20
218.044604
 30
0.0
 10
232.044522
 20
217.962054
 30
0.0
 10
231.917169
 20
217.913723
 30
0.0
  0
SPLINE
  5
15b
100
AcDbEntity
  8
Layer_1
 62
1
100
AcDbSpline
 70
8
 71
3
 72
8
 73
4
 74
0
 40
0
 40
0
 40
0
 40
0
 40
1
 40
1
 40
1
 40
1
 10
231.917169
 20
217.913723
 30
0.0
 10
231.789817
 20
217.865746
 30
0.0
 10
231.652939
 20
217.841404
 30
0.0
 10
231.506889
 20
217.841404
 30
0.0
  0
SPLINE
  5
15c
100
AcDbEntity
  8
Layer_1
 62
1
100
AcDbSpline
 70
8
 71
3
 72
8
 73
4
 74
0
 40
0
 40
0
 40
0
 40
0
 40
1
 40
1
 40
1
 40
1
 10
231.506889
 20
217.841404
 30
0.0
 10
231.265589
 20
217.841404
 30
0.0
 10
231.080381
 20
217.899965
 30
0.0
 10
230.950911
 20
218.017793
 30
0.0
  0
SPLINE
  5
15d
100
AcDbEntity
  8
Layer_1
 62
1
100
AcDbSpline
 70
8
 71
3
 72
8
 73
4
 74
0
 40
0
 40
0
 40
0
 40
0
 40
1
 40
1
 40
1
 40
1
 10
230.950911
 20
218.017793
 30
0.0
 10
230.821442
 20
218.135621
 30
0.0
 10
230.756531
 20
218.286609
 30
0.0
 10
230.756531
 20
218.470054
 30
0.0
  0
SPLINE
  5
15e
100
AcDbEntity
  8
Layer_1
 62
1
100
AcDbSpline
 70
8
 71
3
 72
8
 73
4
 74
0
 40
0
 40
0
 40
0
 40
0
 40
1
 40
1
 40
1
 40
1
 10
230.756531
 20
218.470054
 30
0.0
 10
230.756531
 20
218.577298
 30
0.0
 10
230.780858
 20
218.675371
 30
0.0
 10
230.829908
 20
218.764271
 30
0.0
  0
SPLINE
  5
15f
100
AcDbEntity
  8
Layer_1
 62
1
100
AcDbSpline
 70
8
 71
3
 72
8
 73
4
 74
0
 40
0
 40
0
 40
0
 40
0
 40
1
 40
1
 40
1
 40
1
 10
230.829908
 20
218.764271
 30
0.0
 10
230.878944
 20
218.853171
 30
0.0
 10
230.942797
 20
218.924784
 30
0.0
 10
231.022172
 20
218.978407
 30
0.0
  0
SPLINE
  5
160
100
AcDbEntity
  8
Layer_1
 62
1
100
AcDbSpline
 70
8
 71
3
 72
8
 73
4
 74
0
 40
0
 40
0
 40
0
 40
0
 40
1
 40
1
 40
1
 40
1
 10
231.022172
 20
218.978407
 30
0.0
 10
231.101194
 20
219.032029
 30
0.0
 10
231.190447
 20
219.072951
 30
0.0
 10
231.289931
 20
219.100468
 30
0.0
  0
SPLINE
  5
161
100
AcDbEntity
  8
Layer_1
 62
1
100
AcDbSpline
 70
8
 71
3
 72
8
 73
4
 74
0
 40
0
 40
0
 40
0
 40
0
 40
1
 40
1
 40
1
 40
1
 10
231.289931
 20
219.100468
 30
0.0
 10
231.362956
 20
219.119518
 30
0.0
 10
231.473022
 20
219.138215
 30
0.0
 10
231.620483
 20
219.156207
 30
0.0
  0
SPLINE
  5
162
100
AcDbEntity
  8
Layer_1
 62
1
100
AcDbSpline
 70
8
 71
3
 72
8
 73
4
 74
0
 40
0
 40
0
 40
0
 40
0
 40
1
 40
1
 40
1
 40
1
 10
231.620483
 20
219.156207
 30
0.0
 10
231.921050
 20
219.191837
 30
0.0
 10
232.142242
 20
219.234876
 30
0.0
 10
232.284058
 20
219.284265
 30
0.0
  0
SPLINE
  5
163
100
AcDbEntity
  8
Layer_1
 62
1
100
AcDbSpline
 70
8
 71
3
 72
8
 73
4
 74
0
 40
0
 40
0
 40
0
 40
0
 40
1
 40
1
 40
1
 40
1
 10
232.284058
 20
219.284265
 30
0.0
 10
232.285469
 20
219.335418
 30
0.0
 10
232.286316
 20
219.367873
 30
0.0
 10
232.286316
 20
219.381632
 30
0.0
  0
SPLINE
  5
164
100
AcDbEntity
  8
Layer_1
 62
1
100
AcDbSpline
 70
8
 71
3
 72
8
 73
4
 74
0
 40
0
 40
0
 40
0
 40
0
 40
1
 40
1
 40
1
 40
1
 10
232.286316
 20
219.381632
 30
0.0
 10
232.286316
 20
219.532973
 30
0.0
 10
232.251038
 20
219.639865
 30
0.0
 10
232.180836
 20
219.701954
 30
0.0
  0
SPLINE
  5
165
100
AcDbEntity
  8
Layer_1
 62
1
100
AcDbSpline
 70
8
 71
3
 72
8
 73
4
 74
0
 40
0
 40
0
 40
0
 40
0
 40
1
 40
1
 40
1
 40
1
 10
232.180836
 20
219.701954
 30
0.0
 10
232.085586
 20
219.785915
 30
0.0
 10
231.944474
 20
219.827896
 30
0.0
 10
231.757149
 20
219.827896
 30
0.0
  0
SPLINE
  5
166
100
AcDbEntity
  8
Layer_1
 62
1
100
AcDbSpline
 70
8
 71
3
 72
8
 73
4
 74
0
 40
0
 40
0
 40
0
 40
0
 40
1
 40
1
 40
1
 40
1
 10
231.757149
 20
219.827896
 30
0.0
 10
231.582172
 20
219.827896
 30
0.0
 10
231.453055
 20
219.797204
 30
0.0
 10
231.369447
 20
219.735821
 30
0.0
  0
SPLINE
  5
167
100
AcDbEntity
  8
Layer_1
 62
1
100
AcDbSpline
 70
8
 71
3
 72
8
 73
4
 74
0
 40
0
 40
0
 40
0
 40
0
 40
1
 40
1
 40
1
 40
1
 10
231.369447
 20
219.735821
 30
0.0
 10
231.286191
 20
219.674790
 30
0.0
 10
231.224455
 20
219.566134
 30
0.0
 10
231.184591
 20
219.410559
 30
0.0
  0
LINE
  5
168
100
AcDbEntity
  8
Layer_1
 62
1
100
AcDbLine
 10
231.184591
 20
219.410559
 30
0.0
 11
230.820877
 21
219.459948
 31
0.0
  0
SPLINE
  5
169
100
AcDbEntity
  8
Layer_1
 62
1
100
AcDbSpline
 70
8
 71
3
 72
8
 73
4
 74
0
 40
0
 40
0
 40
0
 40
0
 40
1
 40
1
 40
1
 40
1
 10
230.820877
 20
219.459948
 30
0.0
 10
230.853686
 20
219.615876
 30
0.0
 10
230.908366
 20
219.741465
 30
0.0
 10
230.983861
 20
219.837421
 30
0.0
  0
SPLINE
  5
16a
100
AcDbEntity
  8
Layer_1
 62
1
100
AcDbSpline
 70
8
 71
3
 72
8
 73
4
 74
0
 40
0
 40
0
 40
0
 40
0
 40
1
 40
1
 40
1
 40
1
 10
230.983861
 20
219.837421
 30
0.0
 10
231.059708
 20
219.933023
 30
0.0
 10
231.169422
 20
220.006754
 30
0.0
 10
231.312649
 20
220.058612
 30
0.0
  0
SPLINE
  5
16b
100
AcDbEntity
  8
Layer_1
 62
1
100
AcDbSpline
 70
8
 71
3
 72
8
 73
4
 74
0
 40
0
 40
0
 40
0
 40
0
 40
1
 40
1
 40
1
 40
1
 10
231.312649
 20
220.058612
 30
0.0
 10
231.455877
 20
220.110118
 30
0.0
 10
231.622036
 20
220.135871
 30
0.0
 10
231.810772
 20
220.135871
 30
0.0
  0
SPLINE
  5
16c
100
AcDbEntity
  8
Layer_1
 62
1
100
AcDbSpline
 70
8
 71
3
 72
8
 73
4
 74
0
 40
0
 40
0
 40
0
 40
0
 40
1
 40
1
 40
1
 40
1
 10
231.810772
 20
220.135871
 30
0.0
 10
231.998097
 20
220.135871
 30
0.0
 10
232.150497
 20
220.113998
 30
0.0
 10
232.267619
 20
220.069901
 30
0.0
  0
SPLINE
  5
16d
100
AcDbEntity
  8
Layer_1
 62
1
100
AcDbSpline
 70
8
 71
3
 72
8
 73
4
 74
0
 40
0
 40
0
 40
0
 40
0
 40
1
 40
1
 40
1
 40
1
 10
232.267619
 20
220.069901
 30
0.0
 10
232.384741
 20
220.025804
 30
0.0
 10
232.470819
 20
219.970418
 30
0.0
 10
232.526205
 20
219.903390
 30
0.0
  0
SPLINE
  5
16e
100
AcDbEntity
  8
Layer_1
 62
1
100
AcDbSpline
 70
8
 71
3
 72
8
 73
4
 74
0
 40
0
 40
0
 40
0
 40
0
 40
1
 40
1
 40
1
 40
1
 10
232.526205
 20
219.903390
 30
0.0
 10
232.581238
 20
219.836715
 30
0.0
 10
232.619691
 20
219.752048
 30
0.0
 10
232.641916
 20
219.650096
 30
0.0
  0
SPLINE
  5
16f
100
AcDbEntity
  8
Layer_1
 62
1
100
AcDbSpline
 70
8
 71
3
 72
8
 73
4
 74
0
 40
0
 40
0
 40
0
 40
0
 40
1
 40
1
 40
1
 40
1
 10
232.641916
 20
219.650096
 30
0.0
 10
232.654277
 20
219.586948
 30
0.0
 10
232.660261
 20
219.472296
 30
0.0
 10
232.660261
 20
219.307196
 30
0.0
  0
LINE
  5
170
100
AcDbEntity
  8
Layer_1
 62
1
100
AcDbLine
 10
232.660261
 20
219.307196
 30
0.0
 11
232.660261
 21
218.810837
 31
0.0
  0
SPLINE
  5
171
100
AcDbEntity
  8
Layer_1
 62
1
100
AcDbSpline
 70
8
 71
3
 72
8
 73
4
 74
0
 40
0
 40
0
 40
0
 40
0
 40
1
 40
1
 40
1
 40
1
 10
232.660261
 20
218.810837
 30
0.0
 10
232.660261
 20
218.465115
 30
0.0
 10
232.668360
 20
218.246040
 30
0.0
 10
232.684249
 20
218.154318
 30
0.0
  0
SPLINE
  5
172
100
AcDbEntity
  8
Layer_1
 62
1
100
AcDbSpline
 70
8
 71
3
 72
8
 73
4
 74
0
 40
0
 40
0
 40
0
 40
0
 40
1
 40
1
 40
1
 40
1
 10
232.684249
 20
218.154318
 30
0.0
 10
232.700110
 20
218.062596
 30
0.0
 10
232.731522
 20
217.975107
 30
0.0
 10
232.778088
 20
217.891146
 30
0.0
  0
LINE
  5
173
100
AcDbEntity
  8
Layer_1
 62
1
100
AcDbLine
 10
232.778088
 20
217.891146
 30
0.0
 11
232.389680
 21
217.891146
 31
0.0
  0
SPLINE
  5
174
100
AcDbEntity
  8
Layer_1
 62
1
100
AcDbSpline
 70
8
 71
3
 72
8
 73
4
 74
0
 40
0
 40
0
 40
0
 40
0
 40
1
 40
1
 40
1
 40
1
 10
232.389680
 20
217.891146
 30
0.0
 10
232.350874
 20
217.968404
 30
0.0
 10
232.326180
 20
218.058715
 30
0.0
 10
232.315244
 20
218.162079
 30
0.0
  0
LINE
  5
175
100
AcDbEntity
  8
Layer_1
 62
1
100
AcDbLine
 10
232.315244
 20
218.162079
 30
0.0
 11
232.315103
 21
218.162079
 31
0.0
  0
SPLINE
  5
176
100
AcDbEntity
  8
Layer_1
 62
1
100
AcDbSpline
 70
8
 71
3
 72
8
 73
4
 74
0
 40
0
 40
0
 40
0
 40
0
 40
1
 40
1
 40
1
 40
1
 10
233.696899
 20
218.986695
 30
0.0
 10
233.696899
 20
218.705532
 30
0.0
 10
233.756166
 20
218.495276
 30
0.0
 10
233.874699
 20
218.356282
 30
0.0
  0
SPLINE
  5
177
100
AcDbEntity
  8
Layer_1
 62
1
100
AcDbSpline
 70
8
 71
3
 72
8
 73
4
 74
0
 40
0
 40
0
 40
0
 40
0
 40
1
 40
1
 40
1
 40
1
 10
233.874699
 20
218.356282
 30
0.0
 10
233.993233
 20
218.216934
 30
0.0
 10
234.132933
 20
218.147437
 30
0.0
 10
234.294152
 20
218.147437
 30
0.0
  0
SPLINE
  5
178
100
AcDbEntity
  8
Layer_1
 62
1
100
AcDbSpline
 70
8
 71
3
 72
8
 73
4
 74
0
 40
0
 40
0
 40
0
 40
0
 40
1
 40
1
 40
1
 40
1
 10
234.294152
 20
218.147437
 30
0.0
 10
234.456783
 20
218.147437
 30
0.0
 10
234.595072
 20
218.213759
 30
0.0
 10
234.708666
 20
218.346757
 30
0.0
  0
SPLINE
  5
179
100
AcDbEntity
  8
Layer_1
 62
1
100
AcDbSpline
 70
8
 71
3
 72
8
 73
4
 74
0
 40
0
 40
0
 40
0
 40
0
 40
1
 40
1
 40
1
 40
1
 10
234.708666
 20
218.346757
 30
0.0
 10
234.822261
 20
218.479401
 30
0.0
 10
234.879411
 20
218.682954
 30
0.0
 10
234.879411
 20
218.955651
 30
0.0
  0
SPLINE
  5
17a
100
AcDbEntity
  8
Layer_1
 62
1
100
AcDbSpline
 70
8
 71
3
 72
8
 73
4
 74
0
 40
0
 40
0
 40
0
 40
0
 40
1
 40
1
 40
1
 40
1
 10
234.879411
 20
218.955651
 30
0.0
 10
234.879411
 20
219.256218
 30
0.0
 10
234.821555
 20
219.476704
 30
0.0
 10
234.705491
 20
219.617109
 30
0.0
  0
SPLINE
  5
17b
100
AcDbEntity
  8
Layer_1
 62
1
100
AcDbSpline
 70
8
 71
3
 72
8
 73
4
 74
0
 40
0
 40
0
 40
0
 40
0
 40
1
 40
1
 40
1
 40
1
 10
234.705491
 20
219.617109
 30
0.0
 10
234.589780
 20
219.757868
 30
0.0
 10
234.447258
 20
219.828070
 30
0.0
 10
234.277572
 20
219.828070
 30
0.0
  0
SPLINE
  5
17c
100
AcDbEntity
  8
Layer_1
 62
1
100
AcDbSpline
 70
8
 71
3
 72
8
 73
4
 74
0
 40
0
 40
0
 40
0
 40
0
 40
1
 40
1
 40
1
 40
1
 10
234.277572
 20
219.828070
 30
0.0
 10
234.112472
 20
219.828070
 30
0.0
 10
233.974183
 20
219.760337
 30
0.0
 10
233.863411
 20
219.625576
 30
0.0
  0
SPLINE
  5
17d
100
AcDbEntity
  8
Layer_1
 62
1
100
AcDbSpline
 70
8
 71
3
 72
8
 73
4
 74
0
 40
0
 40
0
 40
0
 40
0
 40
1
 40
1
 40
1
 40
1
 10
233.863411
 20
219.625576
 30
0.0
 10
233.752286
 20
219.490462
 30
0.0
 10
233.696899
 20
219.277384
 30
0.0
 10
233.696899
 20
218.986695
 30
0.0
  0
LINE
  5
17e
100
AcDbEntity
  8
Layer_1
 62
1
100
AcDbLine
 10
233.696899
 20
218.986695
 30
0.0
 11
233.696899
 21
218.986695
 31
0.0
  0
LINE
  5
17f
100
AcDbEntity
  8
Layer_1
 62
1
100
AcDbLine
 10
234.873061
 20
217.891320
 30
0.0
 11
234.873061
 21
218.168251
 31
0.0
  0
SPLINE
  5
180
100
AcDbEntity
  8
Layer_1
 62
1
100
AcDbSpline
 70
8
 71
3
 72
8
 73
4
 74
0
 40
0
 40
0
 40
0
 40
0
 40
1
 40
1
 40
1
 40
1
 10
234.873061
 20
218.168251
 30
0.0
 10
234.733713
 20
217.950234
 30
0.0
 10
234.529102
 20
217.841579
 30
0.0
 10
234.259227
 20
217.841579
 30
0.0
  0
SPLINE
  5
181
100
AcDbEntity
  8
Layer_1
 62
1
100
AcDbSpline
 70
8
 71
3
 72
8
 73
4
 74
0
 40
0
 40
0
 40
0
 40
0
 40
1
 40
1
 40
1
 40
1
 10
234.259227
 20
217.841579
 30
0.0
 10
234.084249
 20
217.841579
 30
0.0
 10
233.923383
 20
217.889909
 30
0.0
 10
233.776627
 20
217.986218
 30
0.0
  0
SPLINE
  5
182
100
AcDbEntity
  8
Layer_1
 62
1
100
AcDbSpline
 70
8
 71
3
 72
8
 73
4
 74
0
 40
0
 40
0
 40
0
 40
0
 40
1
 40
1
 40
1
 40
1
 10
233.776627
 20
217.986218
 30
0.0
 10
233.629872
 20
218.082526
 30
0.0
 10
233.515924
 20
218.216934
 30
0.0
 10
233.435491
 20
218.390148
 30
0.0
  0
SPLINE
  5
183
100
AcDbEntity
  8
Layer_1
 62
1
100
AcDbSpline
 70
8
 71
3
 72
8
 73
4
 74
0
 40
0
 40
0
 40
0
 40
0
 40
1
 40
1
 40
1
 40
1
 10
233.435491
 20
218.390148
 30
0.0
 10
233.354705
 20
218.563009
 30
0.0
 10
233.314488
 20
218.761976
 30
0.0
 10
233.314488
 20
218.986695
 30
0.0
  0
SPLINE
  5
184
100
AcDbEntity
  8
Layer_1
 62
1
100
AcDbSpline
 70
8
 71
3
 72
8
 73
4
 74
0
 40
0
 40
0
 40
0
 40
0
 40
1
 40
1
 40
1
 40
1
 10
233.314488
 20
218.986695
 30
0.0
 10
233.314488
 20
219.205770
 30
0.0
 10
233.351177
 20
219.404737
 30
0.0
 10
233.424202
 20
219.582890
 30
0.0
  0
SPLINE
  5
185
100
AcDbEntity
  8
Layer_1
 62
1
100
AcDbSpline
 70
8
 71
3
 72
8
 73
4
 74
0
 40
0
 40
0
 40
0
 40
0
 40
1
 40
1
 40
1
 40
1
 10
233.424202
 20
219.582890
 30
0.0
 10
233.497227
 20
219.761395
 30
0.0
 10
233.606588
 20
219.898273
 30
0.0
 10
233.752638
 20
219.993523
 30
0.0
  0
SPLINE
  5
186
100
AcDbEntity
  8
Layer_1
 62
1
100
AcDbSpline
 70
8
 71
3
 72
8
 73
4
 74
0
 40
0
 40
0
 40
0
 40
0
 40
1
 40
1
 40
1
 40
1
 10
233.752638
 20
219.993523
 30
0.0
 10
233.898688
 20
220.088420
 30
0.0
 10
234.062024
 20
220.136045
 30
0.0
 10
234.242647
 20
220.136045
 30
0.0
  0
SPLINE
  5
187
100
AcDbEntity
  8
Layer_1
 62
1
100
AcDbSpline
 70
8
 71
3
 72
8
 73
4
 74
0
 40
0
 40
0
 40
0
 40
0
 40
1
 40
1
 40
1
 40
1
 10
234.242647
 20
220.136045
 30
0.0
 10
234.374938
 20
220.136045
 30
0.0
 10
234.492766
 20
220.108190
 30
0.0
 10
234.596130
 20
220.052437
 30
0.0
  0
SPLINE
  5
188
100
AcDbEntity
  8
Layer_1
 62
1
100
AcDbSpline
 70
8
 71
3
 72
8
 73
4
 74
0
 40
0
 40
0
 40
0
 40
0
 40
1
 40
1
 40
1
 40
1
 10
234.596130
 20
220.052437
 30
0.0
 10
234.699494
 20
219.996345
 30
0.0
 10
234.783455
 20
219.923673
 30
0.0
 10
234.848366
 20
219.834068
 30
0.0
  0
LINE
  5
189
100
AcDbEntity
  8
Layer_1
 62
1
100
AcDbLine
 10
234.848366
 20
219.834068
 30
0.0
 11
234.848366
 21
220.921329
 31
0.0
  0
LINE
  5
18a
100
AcDbEntity
  8
Layer_1
 62
1
100
AcDbLine
 10
234.848366
 20
220.921329
 30
0.0
 11
235.218430
 21
220.921329
 31
0.0
  0
LINE
  5
18b
100
AcDbEntity
  8
Layer_1
 62
1
100
AcDbLine
 10
235.218430
 20
220.921329
 30
0.0
 11
235.218430
 21
217.891320
 31
0.0
  0
LINE
  5
18c
100
AcDbEntity
  8
Layer_1
 62
1
100
AcDbLine
 10
235.218430
 20
217.891320
 30
0.0
 11
234.873061
 21
217.891320
 31
0.0
  0
LINE
  5
18d
100
AcDbEntity
  8
Layer_1
 62
1
100
AcDbLine
 10
234.873061
 20
217.891320
 30
0.0
 11
234.873061
 21
217.891320
 31
0.0
  0
SPLINE
  5
18e
100
AcDbEntity
  8
Layer_1
 62
1
100
AcDbSpline
 70
8
 71
3
 72
8
 73
4
 74
0
 40
0
 40
0
 40
0
 40
0
 40
1
 40
1
 40
1
 40
1
 10
236.353773
 20
219.005288
 30
0.0
 10
236.353773
 20
218.742116
 30
0.0
 10
236.389757
 20
218.551969
 30
0.0
 10
236.461371
 20
218.434847
 30
0.0
  0
SPLINE
  5
18f
100
AcDbEntity
  8
Layer_1
 62
1
100
AcDbSpline
 70
8
 71
3
 72
8
 73
4
 74
0
 40
0
 40
0
 40
0
 40
0
 40
1
 40
1
 40
1
 40
1
 10
236.461371
 20
218.434847
 30
0.0
 10
236.578493
 20
218.243288
 30
0.0
 10
236.736890
 20
218.147333
 30
0.0
 10
236.936562
 20
218.147333
 30
0.0
  0
SPLINE
  5
190
100
AcDbEntity
  8
Layer_1
 62
1
100
AcDbSpline
 70
8
 71
3
 72
8
 73
4
 74
0
 40
0
 40
0
 40
0
 40
0
 40
1
 40
1
 40
1
 40
1
 10
236.936562
 20
218.147333
 30
0.0
 10
237.099196
 20
218.147333
 30
0.0
 10
237.239954
 20
218.217888
 30
0.0
 10
237.358487
 20
218.358999
 30
0.0
  0
SPLINE
  5
191
100
AcDbEntity
  8
Layer_1
 62
1
100
AcDbSpline
 70
8
 71
3
 72
8
 73
4
 74
0
 40
0
 40
0
 40
0
 40
0
 40
1
 40
1
 40
1
 40
1
 10
237.358487
 20
218.358999
 30
0.0
 10
237.477021
 20
218.500111
 30
0.0
 10
237.536287
 20
218.711072
 30
0.0
 10
237.536287
 20
218.990824
 30
0.0
  0
SPLINE
  5
192
100
AcDbEntity
  8
Layer_1
 62
1
100
AcDbSpline
 70
8
 71
3
 72
8
 73
4
 74
0
 40
0
 40
0
 40
0
 40
0
 40
1
 40
1
 40
1
 40
1
 10
237.536287
 20
218.990824
 30
0.0
 10
237.536287
 20
219.277280
 30
0.0
 10
237.479137
 20
219.488947
 30
0.0
 10
237.365543
 20
219.625472
 30
0.0
  0
SPLINE
  5
193
100
AcDbEntity
  8
Layer_1
 62
1
100
AcDbSpline
 70
8
 71
3
 72
8
 73
4
 74
0
 40
0
 40
0
 40
0
 40
0
 40
1
 40
1
 40
1
 40
1
 10
237.365543
 20
219.625472
 30
0.0
 10
237.251948
 20
219.761997
 30
0.0
 10
237.114365
 20
219.830083
 30
0.0
 10
236.953143
 20
219.830083
 30
0.0
  0
SPLINE
  5
194
100
AcDbEntity
  8
Layer_1
 62
1
100
AcDbSpline
 70
8
 71
3
 72
8
 73
4
 74
0
 40
0
 40
0
 40
0
 40
0
 40
1
 40
1
 40
1
 40
1
 10
236.953143
 20
219.830083
 30
0.0
 10
236.790512
 20
219.830083
 30
0.0
 10
236.650107
 20
219.759527
 30
0.0
 10
236.531573
 20
219.618063
 30
0.0
  0
SPLINE
  5
195
100
AcDbEntity
  8
Layer_1
 62
1
100
AcDbSpline
 70
8
 71
3
 72
8
 73
4
 74
0
 40
0
 40
0
 40
0
 40
0
 40
1
 40
1
 40
1
 40
1
 10
236.531573
 20
219.618063
 30
0.0
 10
236.413040
 20
219.476952
 30
0.0
 10
236.353773
 20
219.272694
 30
0.0
 10
236.353773
 20
219.005288
 30
0.0
  0
LINE
  5
196
100
AcDbEntity
  8
Layer_1
 62
1
100
AcDbLine
 10
236.353773
 20
219.005288
 30
0.0
 11
236.353773
 21
219.005288
 31
0.0
  0
LINE
  5
197
100
AcDbEntity
  8
Layer_1
 62
1
100
AcDbLine
 10
236.358007
 20
217.891216
 30
0.0
 11
236.012637
 21
217.891216
 31
0.0
  0
LINE
  5
198
100
AcDbEntity
  8
Layer_1
 62
1
100
AcDbLine
 10
236.012637
 20
217.891216
 30
0.0
 11
236.012637
 21
220.921577
 31
0.0
  0
LINE
  5
199
100
AcDbEntity
  8
Layer_1
 62
1
100
AcDbLine
 10
236.012637
 20
220.921577
 30
0.0
 11
236.384818
 21
220.921577
 31
0.0
  0
LINE
  5
19a
100
AcDbEntity
  8
Layer_1
 62
1
100
AcDbLine
 10
236.384818
 20
220.921577
 30
0.0
 11
236.384818
 21
219.840313
 31
0.0
  0
SPLINE
  5
19b
100
AcDbEntity
  8
Layer_1
 62
1
100
AcDbSpline
 70
8
 71
3
 72
8
 73
4
 74
0
 40
0
 40
0
 40
0
 40
0
 40
1
 40
1
 40
1
 40
1
 10
236.384818
 20
219.840313
 30
0.0
 10
236.541804
 20
220.037516
 30
0.0
 10
236.742534
 20
220.135941
 30
0.0
 10
236.986307
 20
220.135941
 30
0.0
  0
SPLINE
  5
19c
100
AcDbEntity
  8
Layer_1
 62
1
100
AcDbSpline
 70
8
 71
3
 72
8
 73
4
 74
0
 40
0
 40
0
 40
0
 40
0
 40
1
 40
1
 40
1
 40
1
 10
236.986307
 20
220.135941
 30
0.0
 10
237.121421
 20
220.135941
 30
0.0
 10
237.249126
 20
220.108791
 30
0.0
 10
237.369776
 20
220.054449
 30
0.0
  0
SPLINE
  5
19d
100
AcDbEntity
  8
Layer_1
 62
1
100
AcDbSpline
 70
8
 71
3
 72
8
 73
4
 74
0
 40
0
 40
0
 40
0
 40
0
 40
1
 40
1
 40
1
 40
1
 10
237.369776
 20
220.054449
 30
0.0
 10
237.490426
 20
219.999769
 30
0.0
 10
237.589557
 20
219.923569
 30
0.0
 10
237.667521
 20
219.824791
 30
0.0
  0
SPLINE
  5
19e
100
AcDbEntity
  8
Layer_1
 62
1
100
AcDbSpline
 70
8
 71
3
 72
8
 73
4
 74
0
 40
0
 40
0
 40
0
 40
0
 40
1
 40
1
 40
1
 40
1
 10
237.667521
 20
219.824791
 30
0.0
 10
237.745132
 20
219.726366
 30
0.0
 10
237.806162
 20
219.607480
 30
0.0
 10
237.850259
 20
219.468486
 30
0.0
  0
SPLINE
  5
19f
100
AcDbEntity
  8
Layer_1
 62
1
100
AcDbSpline
 70
8
 71
3
 72
8
 73
4
 74
0
 40
0
 40
0
 40
0
 40
0
 40
1
 40
1
 40
1
 40
1
 10
237.850259
 20
219.468486
 30
0.0
 10
237.894357
 20
219.329138
 30
0.0
 10
237.916582
 20
219.180266
 30
0.0
 10
237.916582
 20
219.021869
 30
0.0
  0
SPLINE
  5
1a0
100
AcDbEntity
  8
Layer_1
 62
1
100
AcDbSpline
 70
8
 71
3
 72
8
 73
4
 74
0
 40
0
 40
0
 40
0
 40
0
 40
1
 40
1
 40
1
 40
1
 10
237.916582
 20
219.021869
 30
0.0
 10
237.916582
 20
218.645455
 30
0.0
 10
237.823448
 20
218.354766
 30
0.0
 10
237.637534
 20
218.149449
 30
0.0
  0
SPLINE
  5
1a1
100
AcDbEntity
  8
Layer_1
 62
1
100
AcDbSpline
 70
8
 71
3
 72
8
 73
4
 74
0
 40
0
 40
0
 40
0
 40
0
 40
1
 40
1
 40
1
 40
1
 10
237.637534
 20
218.149449
 30
0.0
 10
237.451268
 20
217.944133
 30
0.0
 10
237.228312
 20
217.841474
 30
0.0
 10
236.967609
 20
217.841474
 30
0.0
  0
SPLINE
  5
1a2
100
AcDbEntity
  8
Layer_1
 62
1
100
AcDbSpline
 70
8
 71
3
 72
8
 73
4
 74
0
 40
0
 40
0
 40
0
 40
0
 40
1
 40
1
 40
1
 40
1
 10
236.967609
 20
217.841474
 30
0.0
 10
236.708668
 20
217.841474
 30
0.0
 10
236.505468
 20
217.949777
 30
0.0
 10
236.358007
 20
218.166030
 30
0.0
  0
LINE
  5
1a3
100
AcDbEntity
  8
Layer_1
 62
1
100
AcDbLine
 10
236.358007
 20
218.166030
 30
0.0
 11
236.358007
 21
217.891216
 31
0.0
  0
LINE
  5
1a4
100
AcDbEntity
  8
Layer_1
 62
1
100
AcDbLine
 10
236.358007
 20
217.891216
 30
0.0
 11
236.358007
 21
217.891216
 31
0.0
  0
SPLINE
  5
1a5
100
AcDbEntity
  8
Layer_1
 62
1
100
AcDbSpline
 70
8
 71
3
 72
8
 73
4
 74
0
 40
0
 40
0
 40
0
 40
0
 40
1
 40
1
 40
1
 40
1
 10
238.824948
 20
218.988742
 30
0.0
 10
238.824948
 20
218.707578
 30
0.0
 10
238.886331
 20
218.496617
 30
0.0
 10
239.008745
 20
218.356917
 30
0.0
  0
SPLINE
  5
1a6
100
AcDbEntity
  8
Layer_1
 62
1
100
AcDbSpline
 70
8
 71
3
 72
8
 73
4
 74
0
 40
0
 40
0
 40
0
 40
0
 40
1
 40
1
 40
1
 40
1
 10
239.008745
 20
218.356917
 30
0.0
 10
239.131512
 20
218.216864
 30
0.0
 10
239.286028
 20
218.147367
 30
0.0
 10
239.471942
 20
218.147367
 30
0.0
  0
SPLINE
  5
1a7
100
AcDbEntity
  8
Layer_1
 62
1
100
AcDbSpline
 70
8
 71
3
 72
8
 73
4
 74
0
 40
0
 40
0
 40
0
 40
0
 40
1
 40
1
 40
1
 40
1
 10
239.471942
 20
218.147367
 30
0.0
 10
239.656445
 20
218.147367
 30
0.0
 10
239.810256
 20
218.217569
 30
0.0
 10
239.933023
 20
218.358328
 30
0.0
  0
SPLINE
  5
1a8
100
AcDbEntity
  8
Layer_1
 62
1
100
AcDbSpline
 70
8
 71
3
 72
8
 73
4
 74
0
 40
0
 40
0
 40
0
 40
0
 40
1
 40
1
 40
1
 40
1
 10
239.933023
 20
218.358328
 30
0.0
 10
240.055437
 20
218.498733
 30
0.0
 10
240.116820
 20
218.713222
 30
0.0
 10
240.116820
 20
219.001089
 30
0.0
  0
SPLINE
  5
1a9
100
AcDbEntity
  8
Layer_1
 62
1
100
AcDbSpline
 70
8
 71
3
 72
8
 73
4
 74
0
 40
0
 40
0
 40
0
 40
0
 40
1
 40
1
 40
1
 40
1
 10
240.116820
 20
219.001089
 30
0.0
 10
240.116820
 20
219.272728
 30
0.0
 10
240.055084
 20
219.478397
 30
0.0
 10
239.931964
 20
219.618097
 30
0.0
  0
SPLINE
  5
1aa
100
AcDbEntity
  8
Layer_1
 62
1
100
AcDbSpline
 70
8
 71
3
 72
8
 73
4
 74
0
 40
0
 40
0
 40
0
 40
0
 40
1
 40
1
 40
1
 40
1
 10
239.931964
 20
219.618097
 30
0.0
 10
239.808492
 20
219.758150
 30
0.0
 10
239.655387
 20
219.828000
 30
0.0
 10
239.471942
 20
219.828000
 30
0.0
  0
SPLINE
  5
1ab
100
AcDbEntity
  8
Layer_1
 62
1
100
AcDbSpline
 70
8
 71
3
 72
8
 73
4
 74
0
 40
0
 40
0
 40
0
 40
0
 40
1
 40
1
 40
1
 40
1
 10
239.471942
 20
219.828000
 30
0.0
 10
239.286028
 20
219.828000
 30
0.0
 10
239.131512
 20
219.758503
 30
0.0
 10
239.008745
 20
219.619155
 30
0.0
  0
SPLINE
  5
1ac
100
AcDbEntity
  8
Layer_1
 62
1
100
AcDbSpline
 70
8
 71
3
 72
8
 73
4
 74
0
 40
0
 40
0
 40
0
 40
0
 40
1
 40
1
 40
1
 40
1
 10
239.008745
 20
219.619155
 30
0.0
 10
238.886331
 20
219.480161
 30
0.0
 10
238.824948
 20
219.269905
 30
0.0
 10
238.824948
 20
218.988742
 30
0.0
  0
LINE
  5
1ad
100
AcDbEntity
  8
Layer_1
 62
1
100
AcDbLine
 10
238.824948
 20
218.988742
 30
0.0
 11
238.824948
 21
218.988742
 31
0.0
  0
SPLINE
  5
1ae
100
AcDbEntity
  8
Layer_1
 62
1
100
AcDbSpline
 70
8
 71
3
 72
8
 73
4
 74
0
 40
0
 40
0
 40
0
 40
0
 40
1
 40
1
 40
1
 40
1
 10
238.442537
 20
218.988742
 30
0.0
 10
238.442537
 20
219.395142
 30
0.0
 10
238.555426
 20
219.696414
 30
0.0
 10
238.781556
 20
219.892205
 30
0.0
  0
SPLINE
  5
1af
100
AcDbEntity
  8
Layer_1
 62
1
100
AcDbSpline
 70
8
 71
3
 72
8
 73
4
 74
0
 40
0
 40
0
 40
0
 40
0
 40
1
 40
1
 40
1
 40
1
 10
238.781556
 20
219.892205
 30
0.0
 10
238.970292
 20
220.054483
 30
0.0
 10
239.200303
 20
220.135975
 30
0.0
 10
239.471942
 20
220.135975
 30
0.0
  0
SPLINE
  5
1b0
100
AcDbEntity
  8
Layer_1
 62
1
100
AcDbSpline
 70
8
 71
3
 72
8
 73
4
 74
0
 40
0
 40
0
 40
0
 40
0
 40
1
 40
1
 40
1
 40
1
 10
239.471942
 20
220.135975
 30
0.0
 10
239.773567
 20
220.135975
 30
0.0
 10
240.020512
 20
220.037197
 30
0.0
 10
240.212070
 20
219.839289
 30
0.0
  0
SPLINE
  5
1b1
100
AcDbEntity
  8
Layer_1
 62
1
100
AcDbSpline
 70
8
 71
3
 72
8
 73
4
 74
0
 40
0
 40
0
 40
0
 40
0
 40
1
 40
1
 40
1
 40
1
 10
240.212070
 20
219.839289
 30
0.0
 10
240.403628
 20
219.641733
 30
0.0
 10
240.499231
 20
219.368330
 30
0.0
 10
240.499231
 20
219.019786
 30
0.0
  0
SPLINE
  5
1b2
100
AcDbEntity
  8
Layer_1
 62
1
100
AcDbSpline
 70
8
 71
3
 72
8
 73
4
 74
0
 40
0
 40
0
 40
0
 40
0
 40
1
 40
1
 40
1
 40
1
 10
240.499231
 20
219.019786
 30
0.0
 10
240.499231
 20
218.737211
 30
0.0
 10
240.456898
 20
218.514608
 30
0.0
 10
240.372231
 20
218.352683
 30
0.0
  0
SPLINE
  5
1b3
100
AcDbEntity
  8
Layer_1
 62
1
100
AcDbSpline
 70
8
 71
3
 72
8
 73
4
 74
0
 40
0
 40
0
 40
0
 40
0
 40
1
 40
1
 40
1
 40
1
 10
240.372231
 20
218.352683
 30
0.0
 10
240.287564
 20
218.190758
 30
0.0
 10
240.164092
 20
218.065522
 30
0.0
 10
240.002167
 20
217.975917
 30
0.0
  0
SPLINE
  5
1b4
100
AcDbEntity
  8
Layer_1
 62
1
100
AcDbSpline
 70
8
 71
3
 72
8
 73
4
 74
0
 40
0
 40
0
 40
0
 40
0
 40
1
 40
1
 40
1
 40
1
 10
240.002167
 20
217.975917
 30
0.0
 10
239.840242
 20
217.886311
 30
0.0
 10
239.663501
 20
217.841508
 30
0.0
 10
239.471942
 20
217.841508
 30
0.0
  0
SPLINE
  5
1b5
100
AcDbEntity
  8
Layer_1
 62
1
100
AcDbSpline
 70
8
 71
3
 72
8
 73
4
 74
0
 40
0
 40
0
 40
0
 40
0
 40
1
 40
1
 40
1
 40
1
 10
239.471942
 20
217.841508
 30
0.0
 10
239.164673
 20
217.841508
 30
0.0
 10
238.916317
 20
217.939933
 30
0.0
 10
238.726876
 20
218.137136
 30
0.0
  0
SPLINE
  5
1b6
100
AcDbEntity
  8
Layer_1
 62
1
100
AcDbSpline
 70
8
 71
3
 72
8
 73
4
 74
0
 40
0
 40
0
 40
0
 40
0
 40
1
 40
1
 40
1
 40
1
 10
238.726876
 20
218.137136
 30
0.0
 10
238.537434
 20
218.334339
 30
0.0
 10
238.442537
 20
218.617972
 30
0.0
 10
238.442537
 20
218.988742
 30
0.0
  0
LINE
  5
1b7
100
AcDbEntity
  8
Layer_1
 62
1
100
AcDbLine
 10
238.442537
 20
218.988742
 30
0.0
 11
238.442537
 21
218.988742
 31
0.0
  0
SPLINE
  5
1b8
100
AcDbEntity
  8
Layer_1
 62
1
100
AcDbSpline
 70
8
 71
3
 72
8
 73
4
 74
0
 40
0
 40
0
 40
0
 40
0
 40
1
 40
1
 40
1
 40
1
 10
242.548376
 20
218.992871
 30
0.0
 10
242.413262
 20
218.937837
 30
0.0
 10
242.210768
 20
218.890918
 30
0.0
 10
241.940540
 20
218.852465
 30
0.0
  0
SPLINE
  5
1b9
100
AcDbEntity
  8
Layer_1
 62
1
100
AcDbSpline
 70
8
 71
3
 72
8
 73
4
 74
0
 40
0
 40
0
 40
0
 40
0
 40
1
 40
1
 40
1
 40
1
 10
241.940540
 20
218.852465
 30
0.0
 10
241.787787
 20
218.830226
 30
0.0
 10
241.679484
 20
218.805546
 30
0.0
 10
241.615984
 20
218.778029
 30
0.0
  0
SPLINE
  5
1ba
100
AcDbEntity
  8
Layer_1
 62
1
100
AcDbSpline
 70
8
 71
3
 72
8
 73
4
 74
0
 40
0
 40
0
 40
0
 40
0
 40
1
 40
1
 40
1
 40
1
 10
241.615984
 20
218.778029
 30
0.0
 10
241.552837
 20
218.750174
 30
0.0
 10
241.503801
 20
218.709590
 30
0.0
 10
241.469229
 20
218.656673
 30
0.0
  0
SPLINE
  5
1bb
100
AcDbEntity
  8
Layer_1
 62
1
100
AcDbSpline
 70
8
 71
3
 72
8
 73
4
 74
0
 40
0
 40
0
 40
0
 40
0
 40
1
 40
1
 40
1
 40
1
 10
241.469229
 20
218.656673
 30
0.0
 10
241.435009
 20
218.603404
 30
0.0
 10
241.417723
 20
218.544843
 30
0.0
 10
241.417723
 20
218.480284
 30
0.0
  0
SPLINE
  5
1bc
100
AcDbEntity
  8
Layer_1
 62
1
100
AcDbSpline
 70
8
 71
3
 72
8
 73
4
 74
0
 40
0
 40
0
 40
0
 40
0
 40
1
 40
1
 40
1
 40
1
 10
241.417723
 20
218.480284
 30
0.0
 10
241.417723
 20
218.381154
 30
0.0
 10
241.455118
 20
218.298251
 30
0.0
 10
241.530259
 20
218.232282
 30
0.0
  0
SPLINE
  5
1bd
100
AcDbEntity
  8
Layer_1
 62
1
100
AcDbSpline
 70
8
 71
3
 72
8
 73
4
 74
0
 40
0
 40
0
 40
0
 40
0
 40
1
 40
1
 40
1
 40
1
 10
241.530259
 20
218.232282
 30
0.0
 10
241.605401
 20
218.165959
 30
0.0
 10
241.715468
 20
218.132798
 30
0.0
 10
241.860107
 20
218.132798
 30
0.0
  0
SPLINE
  5
1be
100
AcDbEntity
  8
Layer_1
 62
1
100
AcDbSpline
 70
8
 71
3
 72
8
 73
4
 74
0
 40
0
 40
0
 40
0
 40
0
 40
1
 40
1
 40
1
 40
1
 10
241.860107
 20
218.132798
 30
0.0
 10
242.003334
 20
218.132798
 30
0.0
 10
242.130687
 20
218.163843
 30
0.0
 10
242.242518
 20
218.226637
 30
0.0
  0
SPLINE
  5
1bf
100
AcDbEntity
  8
Layer_1
 62
1
100
AcDbSpline
 70
8
 71
3
 72
8
 73
4
 74
0
 40
0
 40
0
 40
0
 40
0
 40
1
 40
1
 40
1
 40
1
 10
242.242518
 20
218.226637
 30
0.0
 10
242.353996
 20
218.289432
 30
0.0
 10
242.436193
 20
218.375509
 30
0.0
 10
242.488404
 20
218.484518
 30
0.0
  0
SPLINE
  5
1c0
100
AcDbEntity
  8
Layer_1
 62
1
100
AcDbSpline
 70
8
 71
3
 72
8
 73
4
 74
0
 40
0
 40
0
 40
0
 40
0
 40
1
 40
1
 40
1
 40
1
 10
242.488404
 20
218.484518
 30
0.0
 10
242.528268
 20
218.568479
 30
0.0
 10
242.548376
 20
218.692304
 30
0.0
 10
242.548376
 20
218.856346
 30
0.0
  0
LINE
  5
1c1
100
AcDbEntity
  8
Layer_1
 62
1
100
AcDbLine
 10
242.548376
 20
218.856346
 30
0.0
 11
242.548376
 21
218.992871
 31
0.0
  0
LINE
  5
1c2
100
AcDbEntity
  8
Layer_1
 62
1
100
AcDbLine
 10
242.548376
 20
218.992871
 30
0.0
 11
242.548376
 21
218.992871
 31
0.0
  0
SPLINE
  5
1c3
100
AcDbEntity
  8
Layer_1
 62
1
100
AcDbSpline
 70
8
 71
3
 72
8
 73
4
 74
0
 40
0
 40
0
 40
0
 40
0
 40
1
 40
1
 40
1
 40
1
 10
242.579421
 20
218.162079
 30
0.0
 10
242.441484
 20
218.044604
 30
0.0
 10
242.308840
 20
217.962054
 30
0.0
 10
242.181487
 20
217.913723
 30
0.0
  0
SPLINE
  5
1c4
100
AcDbEntity
  8
Layer_1
 62
1
100
AcDbSpline
 70
8
 71
3
 72
8
 73
4
 74
0
 40
0
 40
0
 40
0
 40
0
 40
1
 40
1
 40
1
 40
1
 10
242.181487
 20
217.913723
 30
0.0
 10
242.054134
 20
217.865746
 30
0.0
 10
241.917257
 20
217.841404
 30
0.0
 10
241.771207
 20
217.841404
 30
0.0
  0
SPLINE
  5
1c5
100
AcDbEntity
  8
Layer_1
 62
1
100
AcDbSpline
 70
8
 71
3
 72
8
 73
4
 74
0
 40
0
 40
0
 40
0
 40
0
 40
1
 40
1
 40
1
 40
1
 10
241.771207
 20
217.841404
 30
0.0
 10
241.529907
 20
217.841404
 30
0.0
 10
241.344698
 20
217.899965
 30
0.0
 10
241.215229
 20
218.017793
 30
0.0
  0
SPLINE
  5
1c6
100
AcDbEntity
  8
Layer_1
 62
1
100
AcDbSpline
 70
8
 71
3
 72
8
 73
4
 74
0
 40
0
 40
0
 40
0
 40
0
 40
1
 40
1
 40
1
 40
1
 10
241.215229
 20
218.017793
 30
0.0
 10
241.085759
 20
218.135621
 30
0.0
 10
241.020848
 20
218.286609
 30
0.0
 10
241.020848
 20
218.470054
 30
0.0
  0
SPLINE
  5
1c7
100
AcDbEntity
  8
Layer_1
 62
1
100
AcDbSpline
 70
8
 71
3
 72
8
 73
4
 74
0
 40
0
 40
0
 40
0
 40
0
 40
1
 40
1
 40
1
 40
1
 10
241.020848
 20
218.470054
 30
0.0
 10
241.020848
 20
218.577298
 30
0.0
 10
241.045204
 20
218.675371
 30
0.0
 10
241.094226
 20
218.764271
 30
0.0
  0
SPLINE
  5
1c8
100
AcDbEntity
  8
Layer_1
 62
1
100
AcDbSpline
 70
8
 71
3
 72
8
 73
4
 74
0
 40
0
 40
0
 40
0
 40
0
 40
1
 40
1
 40
1
 40
1
 10
241.094226
 20
218.764271
 30
0.0
 10
241.143262
 20
218.853171
 30
0.0
 10
241.207115
 20
218.924784
 30
0.0
 10
241.286490
 20
218.978407
 30
0.0
  0
SPLINE
  5
1c9
100
AcDbEntity
  8
Layer_1
 62
1
100
AcDbSpline
 70
8
 71
3
 72
8
 73
4
 74
0
 40
0
 40
0
 40
0
 40
0
 40
1
 40
1
 40
1
 40
1
 10
241.286490
 20
218.978407
 30
0.0
 10
241.365512
 20
219.032029
 30
0.0
 10
241.454765
 20
219.072951
 30
0.0
 10
241.554248
 20
219.100468
 30
0.0
  0
SPLINE
  5
1ca
100
AcDbEntity
  8
Layer_1
 62
1
100
AcDbSpline
 70
8
 71
3
 72
8
 73
4
 74
0
 40
0
 40
0
 40
0
 40
0
 40
1
 40
1
 40
1
 40
1
 10
241.554248
 20
219.100468
 30
0.0
 10
241.627273
 20
219.119518
 30
0.0
 10
241.737340
 20
219.138215
 30
0.0
 10
241.884801
 20
219.156207
 30
0.0
  0
SPLINE
  5
1cb
100
AcDbEntity
  8
Layer_1
 62
1
100
AcDbSpline
 70
8
 71
3
 72
8
 73
4
 74
0
 40
0
 40
0
 40
0
 40
0
 40
1
 40
1
 40
1
 40
1
 10
241.884801
 20
219.156207
 30
0.0
 10
242.185368
 20
219.191837
 30
0.0
 10
242.406559
 20
219.234876
 30
0.0
 10
242.548376
 20
219.284265
 30
0.0
  0
SPLINE
  5
1cc
100
AcDbEntity
  8
Layer_1
 62
1
100
AcDbSpline
 70
8
 71
3
 72
8
 73
4
 74
0
 40
0
 40
0
 40
0
 40
0
 40
1
 40
1
 40
1
 40
1
 10
242.548376
 20
219.284265
 30
0.0
 10
242.549787
 20
219.335418
 30
0.0
 10
242.550352
 20
219.367873
 30
0.0
 10
242.550352
 20
219.381632
 30
0.0
  0
SPLINE
  5
1cd
100
AcDbEntity
  8
Layer_1
 62
1
100
AcDbSpline
 70
8
 71
3
 72
8
 73
4
 74
0
 40
0
 40
0
 40
0
 40
0
 40
1
 40
1
 40
1
 40
1
 10
242.550352
 20
219.381632
 30
0.0
 10
242.550352
 20
219.532973
 30
0.0
 10
242.515074
 20
219.639865
 30
0.0
 10
242.444871
 20
219.701954
 30
0.0
  0
SPLINE
  5
1ce
100
AcDbEntity
  8
Layer_1
 62
1
100
AcDbSpline
 70
8
 71
3
 72
8
 73
4
 74
0
 40
0
 40
0
 40
0
 40
0
 40
1
 40
1
 40
1
 40
1
 10
242.444871
 20
219.701954
 30
0.0
 10
242.349621
 20
219.785915
 30
0.0
 10
242.208510
 20
219.827896
 30
0.0
 10
242.021185
 20
219.827896
 30
0.0
  0
SPLINE
  5
1cf
100
AcDbEntity
  8
Layer_1
 62
1
100
AcDbSpline
 70
8
 71
3
 72
8
 73
4
 74
0
 40
0
 40
0
 40
0
 40
0
 40
1
 40
1
 40
1
 40
1
 10
242.021185
 20
219.827896
 30
0.0
 10
241.846207
 20
219.827896
 30
0.0
 10
241.717091
 20
219.797204
 30
0.0
 10
241.633482
 20
219.735821
 30
0.0
  0
SPLINE
  5
1d0
100
AcDbEntity
  8
Layer_1
 62
1
100
AcDbSpline
 70
8
 71
3
 72
8
 73
4
 74
0
 40
0
 40
0
 40
0
 40
0
 40
1
 40
1
 40
1
 40
1
 10
241.633482
 20
219.735821
 30
0.0
 10
241.550227
 20
219.674790
 30
0.0
 10
241.488491
 20
219.566134
 30
0.0
 10
241.448627
 20
219.410559
 30
0.0
  0
LINE
  5
1d1
100
AcDbEntity
  8
Layer_1
 62
1
100
AcDbLine
 10
241.448627
 20
219.410559
 30
0.0
 11
241.084913
 21
219.459948
 31
0.0
  0
SPLINE
  5
1d2
100
AcDbEntity
  8
Layer_1
 62
1
100
AcDbSpline
 70
8
 71
3
 72
8
 73
4
 74
0
 40
0
 40
0
 40
0
 40
0
 40
1
 40
1
 40
1
 40
1
 10
241.084913
 20
219.459948
 30
0.0
 10
241.117721
 20
219.615876
 30
0.0
 10
241.172402
 20
219.741465
 30
0.0
 10
241.247896
 20
219.837421
 30
0.0
  0
SPLINE
  5
1d3
100
AcDbEntity
  8
Layer_1
 62
1
100
AcDbSpline
 70
8
 71
3
 72
8
 73
4
 74
0
 40
0
 40
0
 40
0
 40
0
 40
1
 40
1
 40
1
 40
1
 10
241.247896
 20
219.837421
 30
0.0
 10
241.323743
 20
219.933023
 30
0.0
 10
241.433457
 20
220.006754
 30
0.0
 10
241.576685
 20
220.058612
 30
0.0
  0
SPLINE
  5
1d4
100
AcDbEntity
  8
Layer_1
 62
1
100
AcDbSpline
 70
8
 71
3
 72
8
 73
4
 74
0
 40
0
 40
0
 40
0
 40
0
 40
1
 40
1
 40
1
 40
1
 10
241.576685
 20
220.058612
 30
0.0
 10
241.719913
 20
220.110118
 30
0.0
 10
241.886071
 20
220.135871
 30
0.0
 10
242.074807
 20
220.135871
 30
0.0
  0
SPLINE
  5
1d5
100
AcDbEntity
  8
Layer_1
 62
1
100
AcDbSpline
 70
8
 71
3
 72
8
 73
4
 74
0
 40
0
 40
0
 40
0
 40
0
 40
1
 40
1
 40
1
 40
1
 10
242.074807
 20
220.135871
 30
0.0
 10
242.262132
 20
220.135871
 30
0.0
 10
242.414532
 20
220.113998
 30
0.0
 10
242.531654
 20
220.069901
 30
0.0
  0
SPLINE
  5
1d6
100
AcDbEntity
  8
Layer_1
 62
1
100
AcDbSpline
 70
8
 71
3
 72
8
 73
4
 74
0
 40
0
 40
0
 40
0
 40
0
 40
1
 40
1
 40
1
 40
1
 10
242.531654
 20
220.069901
 30
0.0
 10
242.648777
 20
220.025804
 30
0.0
 10
242.734854
 20
219.970418
 30
0.0
 10
242.790241
 20
219.903390
 30
0.0
  0
SPLINE
  5
1d7
100
AcDbEntity
  8
Layer_1
 62
1
100
AcDbSpline
 70
8
 71
3
 72
8
 73
4
 74
0
 40
0
 40
0
 40
0
 40
0
 40
1
 40
1
 40
1
 40
1
 10
242.790241
 20
219.903390
 30
0.0
 10
242.845274
 20
219.836715
 30
0.0
 10
242.883727
 20
219.752048
 30
0.0
 10
242.905952
 20
219.650096
 30
0.0
  0
SPLINE
  5
1d8
100
AcDbEntity
  8
Layer_1
 62
1
100
AcDbSpline
 70
8
 71
3
 72
8
 73
4
 74
0
 40
0
 40
0
 40
0
 40
0
 40
1
 40
1
 40
1
 40
1
 10
242.905952
 20
219.650096
 30
0.0
 10
242.918313
 20
219.586948
 30
0.0
 10
242.924296
 20
219.472296
 30
0.0
 10
242.924296
 20
219.307196
 30
0.0
  0
LINE
  5
1d9
100
AcDbEntity
  8
Layer_1
 62
1
100
AcDbLine
 10
242.924296
 20
219.307196
 30
0.0
 11
242.924296
 21
218.810837
 31
0.0
  0
SPLINE
  5
1da
100
AcDbEntity
  8
Layer_1
 62
1
100
AcDbSpline
 70
8
 71
3
 72
8
 73
4
 74
0
 40
0
 40
0
 40
0
 40
0
 40
1
 40
1
 40
1
 40
1
 10
242.924296
 20
218.810837
 30
0.0
 10
242.924296
 20
218.465115
 30
0.0
 10
242.932424
 20
218.246040
 30
0.0
 10
242.948285
 20
218.154318
 30
0.0
  0
SPLINE
  5
1db
100
AcDbEntity
  8
Layer_1
 62
1
100
AcDbSpline
 70
8
 71
3
 72
8
 73
4
 74
0
 40
0
 40
0
 40
0
 40
0
 40
1
 40
1
 40
1
 40
1
 10
242.948285
 20
218.154318
 30
0.0
 10
242.964174
 20
218.062596
 30
0.0
 10
242.995557
 20
217.975107
 30
0.0
 10
243.042124
 20
217.891146
 30
0.0
  0
LINE
  5
1dc
100
AcDbEntity
  8
Layer_1
 62
1
100
AcDbLine
 10
243.042124
 20
217.891146
 30
0.0
 11
242.653716
 21
217.891146
 31
0.0
  0
SPLINE
  5
1dd
100
AcDbEntity
  8
Layer_1
 62
1
100
AcDbSpline
 70
8
 71
3
 72
8
 73
4
 74
0
 40
0
 40
0
 40
0
 40
0
 40
1
 40
1
 40
1
 40
1
 10
242.653716
 20
217.891146
 30
0.0
 10
242.614910
 20
217.968404
 30
0.0
 10
242.590216
 20
218.058715
 30
0.0
 10
242.579279
 20
218.162079
 30
0.0
  0
LINE
  5
1de
100
AcDbEntity
  8
Layer_1
 62
1
100
AcDbLine
 10
242.579279
 20
218.162079
 30
0.0
 11
242.579421
 21
218.162079
 31
0.0
  0
LINE
  5
1df
100
AcDbEntity
  8
Layer_1
 62
1
100
AcDbLine
 10
243.708699
 20
217.891146
 30
0.0
 11
243.708699
 21
220.086482
 31
0.0
  0
LINE
  5
1e0
100
AcDbEntity
  8
Layer_1
 62
1
100
AcDbLine
 10
243.708699
 20
220.086482
 30
0.0
 11
244.043485
 21
220.086482
 31
0.0
  0
LINE
  5
1e1
100
AcDbEntity
  8
Layer_1
 62
1
100
AcDbLine
 10
244.043485
 20
220.086482
 30
0.0
 11
244.043485
 21
219.753459
 31
0.0
  0
SPLINE
  5
1e2
100
AcDbEntity
  8
Layer_1
 62
1
100
AcDbSpline
 70
8
 71
3
 72
8
 73
4
 74
0
 40
0
 40
0
 40
0
 40
0
 40
1
 40
1
 40
1
 40
1
 10
244.043485
 20
219.753459
 30
0.0
 10
244.128857
 20
219.909387
 30
0.0
 10
244.207879
 20
220.012046
 30
0.0
 10
244.280199
 20
220.061434
 30
0.0
  0
SPLINE
  5
1e3
100
AcDbEntity
  8
Layer_1
 62
1
100
AcDbSpline
 70
8
 71
3
 72
8
 73
4
 74
0
 40
0
 40
0
 40
0
 40
0
 40
1
 40
1
 40
1
 40
1
 10
244.280199
 20
220.061434
 30
0.0
 10
244.352518
 20
220.111176
 30
0.0
 10
244.432246
 20
220.135871
 30
0.0
 10
244.519029
 20
220.135871
 30
0.0
  0
SPLINE
  5
1e4
100
AcDbEntity
  8
Layer_1
 62
1
100
AcDbSpline
 70
8
 71
3
 72
8
 73
4
 74
0
 40
0
 40
0
 40
0
 40
0
 40
1
 40
1
 40
1
 40
1
 10
244.519029
 20
220.135871
 30
0.0
 10
244.644266
 20
220.135871
 30
0.0
 10
244.771971
 20
220.096007
 30
0.0
 10
244.901441
 20
220.015926
 30
0.0
  0
LINE
  5
1e5
100
AcDbEntity
  8
Layer_1
 62
1
100
AcDbLine
 10
244.901441
 20
220.015926
 30
0.0
 11
244.773382
 21
219.670909
 31
0.0
  0
SPLINE
  5
1e6
100
AcDbEntity
  8
Layer_1
 62
1
100
AcDbSpline
 70
8
 71
3
 72
8
 73
4
 74
0
 40
0
 40
0
 40
0
 40
0
 40
1
 40
1
 40
1
 40
1
 10
244.773382
 20
219.670909
 30
0.0
 10
244.682366
 20
219.724532
 30
0.0
 10
244.591349
 20
219.751343
 30
0.0
 10
244.500332
 20
219.751343
 30
0.0
  0
SPLINE
  5
1e7
100
AcDbEntity
  8
Layer_1
 62
1
100
AcDbSpline
 70
8
 71
3
 72
8
 73
4
 74
0
 40
0
 40
0
 40
0
 40
0
 40
1
 40
1
 40
1
 40
1
 10
244.500332
 20
219.751343
 30
0.0
 10
244.419193
 20
219.751343
 30
0.0
 10
244.346168
 20
219.727015
 30
0.0
 10
244.281257
 20
219.677965
 30
0.0
  0
SPLINE
  5
1e8
100
AcDbEntity
  8
Layer_1
 62
1
100
AcDbSpline
 70
8
 71
3
 72
8
 73
4
 74
0
 40
0
 40
0
 40
0
 40
0
 40
1
 40
1
 40
1
 40
1
 10
244.281257
 20
219.677965
 30
0.0
 10
244.216346
 20
219.629282
 30
0.0
 10
244.170485
 20
219.561196
 30
0.0
 10
244.142616
 20
219.474412
 30
0.0
  0
SPLINE
  5
1e9
100
AcDbEntity
  8
Layer_1
 62
1
100
AcDbSpline
 70
8
 71
3
 72
8
 73
4
 74
0
 40
0
 40
0
 40
0
 40
0
 40
1
 40
1
 40
1
 40
1
 10
244.142616
 20
219.474412
 30
0.0
 10
244.101341
 20
219.342121
 30
0.0
 10
244.080879
 20
219.197482
 30
0.0
 10
244.080879
 20
219.040496
 30
0.0
  0
LINE
  5
1ea
100
AcDbEntity
  8
Layer_1
 62
1
100
AcDbLine
 10
244.080879
 20
219.040496
 30
0.0
 11
244.080879
 21
217.891146
 31
0.0
  0
LINE
  5
1eb
100
AcDbEntity
  8
Layer_1
 62
1
100
AcDbLine
 10
244.080879
 20
217.891146
 30
0.0
 11
243.708699
 21
217.891146
 31
0.0
  0
LINE
  5
1ec
100
AcDbEntity
  8
Layer_1
 62
1
100
AcDbLine
 10
243.708699
 20
217.891146
 30
0.0
 11
243.708699
 21
217.891146
 31
0.0
  0
SPLINE
  5
1ed
100
AcDbEntity
  8
Layer_1
 62
1
100
AcDbSpline
 70
8
 71
3
 72
8
 73
4
 74
0
 40
0
 40
0
 40
0
 40
0
 40
1
 40
1
 40
1
 40
1
 10
245.582477
 20
218.986695
 30
0.0
 10
245.582477
 20
218.705532
 30
0.0
 10
245.641743
 20
218.495276
 30
0.0
 10
245.760277
 20
218.356282
 30
0.0
  0
SPLINE
  5
1ee
100
AcDbEntity
  8
Layer_1
 62
1
100
AcDbSpline
 70
8
 71
3
 72
8
 73
4
 74
0
 40
0
 40
0
 40
0
 40
0
 40
1
 40
1
 40
1
 40
1
 10
245.760277
 20
218.356282
 30
0.0
 10
245.878810
 20
218.216934
 30
0.0
 10
246.018510
 20
218.147437
 30
0.0
 10
246.179729
 20
218.147437
 30
0.0
  0
SPLINE
  5
1ef
100
AcDbEntity
  8
Layer_1
 62
1
100
AcDbSpline
 70
8
 71
3
 72
8
 73
4
 74
0
 40
0
 40
0
 40
0
 40
0
 40
1
 40
1
 40
1
 40
1
 10
246.179729
 20
218.147437
 30
0.0
 10
246.342360
 20
218.147437
 30
0.0
 10
246.480649
 20
218.213759
 30
0.0
 10
246.594243
 20
218.346757
 30
0.0
  0
SPLINE
  5
1f0
100
AcDbEntity
  8
Layer_1
 62
1
100
AcDbSpline
 70
8
 71
3
 72
8
 73
4
 74
0
 40
0
 40
0
 40
0
 40
0
 40
1
 40
1
 40
1
 40
1
 10
246.594243
 20
218.346757
 30
0.0
 10
246.707838
 20
218.479401
 30
0.0
 10
246.764988
 20
218.682954
 30
0.0
 10
246.764988
 20
218.955651
 30
0.0
  0
SPLINE
  5
1f1
100
AcDbEntity
  8
Layer_1
 62
1
100
AcDbSpline
 70
8
 71
3
 72
8
 73
4
 74
0
 40
0
 40
0
 40
0
 40
0
 40
1
 40
1
 40
1
 40
1
 10
246.764988
 20
218.955651
 30
0.0
 10
246.764988
 20
219.256218
 30
0.0
 10
246.707132
 20
219.476704
 30
0.0
 10
246.591068
 20
219.617109
 30
0.0
  0
SPLINE
  5
1f2
100
AcDbEntity
  8
Layer_1
 62
1
100
AcDbSpline
 70
8
 71
3
 72
8
 73
4
 74
0
 40
0
 40
0
 40
0
 40
0
 40
1
 40
1
 40
1
 40
1
 10
246.591068
 20
219.617109
 30
0.0
 10
246.475357
 20
219.757868
 30
0.0
 10
246.332835
 20
219.828070
 30
0.0
 10
246.163149
 20
219.828070
 30
0.0
  0
SPLINE
  5
1f3
100
AcDbEntity
  8
Layer_1
 62
1
100
AcDbSpline
 70
8
 71
3
 72
8
 73
4
 74
0
 40
0
 40
0
 40
0
 40
0
 40
1
 40
1
 40
1
 40
1
 10
246.163149
 20
219.828070
 30
0.0
 10
245.998049
 20
219.828070
 30
0.0
 10
245.859760
 20
219.760337
 30
0.0
 10
245.748988
 20
219.625576
 30
0.0
  0
SPLINE
  5
1f4
100
AcDbEntity
  8
Layer_1
 62
1
100
AcDbSpline
 70
8
 71
3
 72
8
 73
4
 74
0
 40
0
 40
0
 40
0
 40
0
 40
1
 40
1
 40
1
 40
1
 10
245.748988
 20
219.625576
 30
0.0
 10
245.637863
 20
219.490462
 30
0.0
 10
245.582477
 20
219.277384
 30
0.0
 10
245.582477
 20
218.986695
 30
0.0
  0
LINE
  5
1f5
100
AcDbEntity
  8
Layer_1
 62
1
100
AcDbLine
 10
245.582477
 20
218.986695
 30
0.0
 11
245.582477
 21
218.986695
 31
0.0
  0
LINE
  5
1f6
100
AcDbEntity
  8
Layer_1
 62
1
100
AcDbLine
 10
246.758638
 20
217.891320
 30
0.0
 11
246.758638
 21
218.168251
 31
0.0
  0
SPLINE
  5
1f7
100
AcDbEntity
  8
Layer_1
 62
1
100
AcDbSpline
 70
8
 71
3
 72
8
 73
4
 74
0
 40
0
 40
0
 40
0
 40
0
 40
1
 40
1
 40
1
 40
1
 10
246.758638
 20
218.168251
 30
0.0
 10
246.619291
 20
217.950234
 30
0.0
 10
246.414679
 20
217.841579
 30
0.0
 10
246.144804
 20
217.841579
 30
0.0
  0
SPLINE
  5
1f8
100
AcDbEntity
  8
Layer_1
 62
1
100
AcDbSpline
 70
8
 71
3
 72
8
 73
4
 74
0
 40
0
 40
0
 40
0
 40
0
 40
1
 40
1
 40
1
 40
1
 10
246.144804
 20
217.841579
 30
0.0
 10
245.969827
 20
217.841579
 30
0.0
 10
245.808960
 20
217.889909
 30
0.0
 10
245.662204
 20
217.986218
 30
0.0
  0
SPLINE
  5
1f9
100
AcDbEntity
  8
Layer_1
 62
1
100
AcDbSpline
 70
8
 71
3
 72
8
 73
4
 74
0
 40
0
 40
0
 40
0
 40
0
 40
1
 40
1
 40
1
 40
1
 10
245.662204
 20
217.986218
 30
0.0
 10
245.515449
 20
218.082526
 30
0.0
 10
245.401502
 20
218.216934
 30
0.0
 10
245.321068
 20
218.390148
 30
0.0
  0
SPLINE
  5
1fa
100
AcDbEntity
  8
Layer_1
 62
1
100
AcDbSpline
 70
8
 71
3
 72
8
 73
4
 74
0
 40
0
 40
0
 40
0
 40
0
 40
1
 40
1
 40
1
 40
1
 10
245.321068
 20
218.390148
 30
0.0
 10
245.240282
 20
218.563009
 30
0.0
 10
245.200066
 20
218.761976
 30
0.0
 10
245.200066
 20
218.986695
 30
0.0
  0
SPLINE
  5
1fb
100
AcDbEntity
  8
Layer_1
 62
1
100
AcDbSpline
 70
8
 71
3
 72
8
 73
4
 74
0
 40
0
 40
0
 40
0
 40
0
 40
1
 40
1
 40
1
 40
1
 10
245.200066
 20
218.986695
 30
0.0
 10
245.200066
 20
219.205770
 30
0.0
 10
245.236754
 20
219.404737
 30
0.0
 10
245.309779
 20
219.582890
 30
0.0
  0
SPLINE
  5
1fc
100
AcDbEntity
  8
Layer_1
 62
1
100
AcDbSpline
 70
8
 71
3
 72
8
 73
4
 74
0
 40
0
 40
0
 40
0
 40
0
 40
1
 40
1
 40
1
 40
1
 10
245.309779
 20
219.582890
 30
0.0
 10
245.382804
 20
219.761395
 30
0.0
 10
245.492166
 20
219.898273
 30
0.0
 10
245.638216
 20
219.993523
 30
0.0
  0
SPLINE
  5
1fd
100
AcDbEntity
  8
Layer_1
 62
1
100
AcDbSpline
 70
8
 71
3
 72
8
 73
4
 74
0
 40
0
 40
0
 40
0
 40
0
 40
1
 40
1
 40
1
 40
1
 10
245.638216
 20
219.993523
 30
0.0
 10
245.784266
 20
220.088420
 30
0.0
 10
245.947602
 20
220.136045
 30
0.0
 10
246.128224
 20
220.136045
 30
0.0
  0
SPLINE
  5
1fe
100
AcDbEntity
  8
Layer_1
 62
1
100
AcDbSpline
 70
8
 71
3
 72
8
 73
4
 74
0
 40
0
 40
0
 40
0
 40
0
 40
1
 40
1
 40
1
 40
1
 10
246.128224
 20
220.136045
 30
0.0
 10
246.260516
 20
220.136045
 30
0.0
 10
246.378343
 20
220.108190
 30
0.0
 10
246.481707
 20
220.052437
 30
0.0
  0
SPLINE
  5
1ff
100
AcDbEntity
  8
Layer_1
 62
1
100
AcDbSpline
 70
8
 71
3
 72
8
 73
4
 74
0
 40
0
 40
0
 40
0
 40
0
 40
1
 40
1
 40
1
 40
1
 10
246.481707
 20
220.052437
 30
0.0
 10
246.585071
 20
219.996345
 30
0.0
 10
246.669032
 20
219.923673
 30
0.0
 10
246.733943
 20
219.834068
 30
0.0
  0
LINE
  5
200
100
AcDbEntity
  8
Layer_1
 62
1
100
AcDbLine
 10
246.733943
 20
219.834068
 30
0.0
 11
246.733943
 21
220.921329
 31
0.0
  0
LINE
  5
201
100
AcDbEntity
  8
Layer_1
 62
1
100
AcDbLine
 10
246.733943
 20
220.921329
 30
0.0
 11
247.104007
 21
220.921329
 31
0.0
  0
LINE
  5
202
100
AcDbEntity
  8
Layer_1
 62
1
100
AcDbLine
 10
247.104007
 20
220.921329
 30
0.0
 11
247.104007
 21
217.891320
 31
0.0
  0
LINE
  5
203
100
AcDbEntity
  8
Layer_1
 62
1
100
AcDbLine
 10
247.104007
 20
217.891320
 30
0.0
 11
246.758638
 21
217.891320
 31
0.0
  0
LINE
  5
204
100
AcDbEntity
  8
Layer_1
 62
1
100
AcDbLine
 10
246.758638
 20
217.891320
 30
0.0
 11
246.758638
 21
217.891320
 31
0.0
  0
LINE
  5
205
100
AcDbEntity
  8
Layer_1
 62
1
100
AcDbLine
 10
101.685756
 20
256.907947
 30
0.0
 11
172.685752
 21
256.907947
 31
0.0
  0
SPLINE
  5
206
100
AcDbEntity
  8
Layer_1
 62
1
100
AcDbSpline
 70
8
 71
3
 72
8
 73
4
 74
0
 40
0
 40
0
 40
0
 40
0
 40
1
 40
1
 40
1
 40
1
 10
172.685752
 20
256.907947
 30
0.0
 10
173.793751
 20
256.907947
 30
0.0
 10
174.685751
 20
256.015947
 30
0.0
 10
174.685751
 20
254.907946
 30
0.0
  0
LINE
  5
207
100
AcDbEntity
  8
Layer_1
 62
1
100
AcDbLine
 10
174.685751
 20
254.907946
 30
0.0
 11
174.685751
 21
183.907949
 31
0.0
  0
SPLINE
  5
208
100
AcDbEntity
  8
Layer_1
 62
1
100
AcDbSpline
 70
8
 71
3
 72
8
 73
4
 74
0
 40
0
 40
0
 40
0
 40
0
 40
1
 40
1
 40
1
 40
1
 10
174.685751
 20
183.907949
 30
0.0
 10
174.685751
 20
182.799950
 30
0.0
 10
173.793751
 20
181.907950
 30
0.0
 10
172.685752
 20
181.907950
 30
0.0
  0
LINE
  5
209
100
AcDbEntity
  8
Layer_1
 62
1
100
AcDbLine
 10
172.685752
 20
181.907950
 30
0.0
 11
101.685756
 21
181.907950
 31
0.0
  0
SPLINE
  5
20a
100
AcDbEntity
  8
Layer_1
 62
1
100
AcDbSpline
 70
8
 71
3
 72
8
 73
4
 74
0
 40
0
 40
0
 40
0
 40
0
 40
1
 40
1
 40
1
 40
1
 10
101.685756
 20
181.907950
 30
0.0
 10
100.577754
 20
181.907950
 30
0.0
 10
99.685754
 20
182.799950
 30
0.0
 10
99.685754
 20
183.907949
 30
0.0
  0
LINE
  5
20b
100
AcDbEntity
  8
Layer_1
 62
1
100
AcDbLine
 10
99.685754
 20
183.907949
 30
0.0
 11
99.685754
 21
254.907946
 31
0.0
  0
SPLINE
  5
20c
100
AcDbEntity
  8
Layer_1
 62
1
100
AcDbSpline
 70
8
 71
3
 72
8
 73
4
 74
0
 40
0
 40
0
 40
0
 40
0
 40
1
 40
1
 40
1
 40
1
 10
99.685754
 20
254.907946
 30
0.0
 10
99.685754
 20
256.015947
 30
0.0
 10
100.577754
 20
256.907947
 30
0.0
 10
101.685756
 20
256.907947
 30
0.0
  0
LINE
  5
20d
100
AcDbEntity
  8
Layer_1
 62
1
100
AcDbLine
 10
101.685756
 20
256.907947
 30
0.0
 11
101.685756
 21
256.907947
 31
0.0
  0
SPLINE
  5
20e
100
AcDbEntity
  8
Layer_1
 62
7
100
AcDbSpline
 70
8
 71
3
 72
8
 73
4
 74
0
 40
0
 40
0
 40
0
 40
0
 40
1
 40
1
 40
1
 40
1
 10
104.187061
 20
185.122033
 30
0.0
 10
104.187061
 20
184.416593
 30
0.0
 10
103.615185
 20
183.844723
 30
0.0
 10
102.909745
 20
183.844723
 30
0.0
  0
SPLINE
  5
20f
100
AcDbEntity
  8
Layer_1
 62
7
100
AcDbSpline
 70
8
 71
3
 72
8
 73
4
 74
0
 40
0
 40
0
 40
0
 40
0
 40
1
 40
1
 40
1
 40
1
 10
102.909745
 20
183.844723
 30
0.0
 10
102.204306
 20
183.844723
 30
0.0
 10
101.632430
 20
184.416593
 30
0.0
 10
101.632430
 20
185.122033
 30
0.0
  0
SPLINE
  5
210
100
AcDbEntity
  8
Layer_1
 62
7
100
AcDbSpline
 70
8
 71
3
 72
8
 73
4
 74
0
 40
0
 40
0
 40
0
 40
0
 40
1
 40
1
 40
1
 40
1
 10
101.632430
 20
185.122033
 30
0.0
 10
101.632430
 20
185.827470
 30
0.0
 10
102.204306
 20
186.399342
 30
0.0
 10
102.909745
 20
186.399342
 30
0.0
  0
SPLINE
  5
211
100
AcDbEntity
  8
Layer_1
 62
7
100
AcDbSpline
 70
8
 71
3
 72
8
 73
4
 74
0
 40
0
 40
0
 40
0
 40
0
 40
1
 40
1
 40
1
 40
1
 10
102.909745
 20
186.399342
 30
0.0
 10
103.615185
 20
186.399342
 30
0.0
 10
104.187061
 20
185.827470
 30
0.0
 10
104.187061
 20
185.122033
 30
0.0
  0
LINE
  5
212
100
AcDbEntity
  8
Layer_1
 62
7
100
AcDbLine
 10
104.187061
 20
185.122033
 30
0.0
 11
104.187061
 21
185.122033
 31
0.0
  0
SPLINE
  5
213
100
AcDbEntity
  8
Layer_1
 62
7
100
AcDbSpline
 70
8
 71
3
 72
8
 73
4
 74
0
 40
0
 40
0
 40
0
 40
0
 40
1
 40
1
 40
1
 40
1
 10
172.739075
 20
185.122033
 30
0.0
 10
172.739075
 20
184.416593
 30
0.0
 10
172.167200
 20
183.844723
 30
0.0
 10
171.461760
 20
183.844723
 30
0.0
  0
SPLINE
  5
214
100
AcDbEntity
  8
Layer_1
 62
7
100
AcDbSpline
 70
8
 71
3
 72
8
 73
4
 74
0
 40
0
 40
0
 40
0
 40
0
 40
1
 40
1
 40
1
 40
1
 10
171.461760
 20
183.844723
 30
0.0
 10
170.756320
 20
183.844723
 30
0.0
 10
170.184445
 20
184.416593
 30
0.0
 10
170.184445
 20
185.122033
 30
0.0
  0
SPLINE
  5
215
100
AcDbEntity
  8
Layer_1
 62
7
100
AcDbSpline
 70
8
 71
3
 72
8
 73
4
 74
0
 40
0
 40
0
 40
0
 40
0
 40
1
 40
1
 40
1
 40
1
 10
170.184445
 20
185.122033
 30
0.0
 10
170.184445
 20
185.827470
 30
0.0
 10
170.756320
 20
186.399342
 30
0.0
 10
171.461760
 20
186.399342
 30
0.0
  0
SPLINE
  5
216
100
AcDbEntity
  8
Layer_1
 62
7
100
AcDbSpline
 70
8
 71
3
 72
8
 73
4
 74
0
 40
0
 40
0
 40
0
 40
0
 40
1
 40
1
 40
1
 40
1
 10
171.461760
 20
186.399342
 30
0.0
 10
172.167200
 20
186.399342
 30
0.0
 10
172.739075
 20
185.827470
 30
0.0
 10
172.739075
 20
185.122033
 30
0.0
  0
LINE
  5
217
100
AcDbEntity
  8
Layer_1
 62
7
100
AcDbLine
 10
172.739075
 20
185.122033
 30
0.0
 11
172.739075
 21
185.122033
 31
0.0
  0
SPLINE
  5
218
100
AcDbEntity
  8
Layer_1
 62
7
100
AcDbSpline
 70
8
 71
3
 72
8
 73
4
 74
0
 40
0
 40
0
 40
0
 40
0
 40
1
 40
1
 40
1
 40
1
 10
104.187061
 20
253.693868
 30
0.0
 10
104.187061
 20
252.988428
 30
0.0
 10
103.615185
 20
252.416556
 30
0.0
 10
102.909745
 20
252.416556
 30
0.0
  0
SPLINE
  5
219
100
AcDbEntity
  8
Layer_1
 62
7
100
AcDbSpline
 70
8
 71
3
 72
8
 73
4
 74
0
 40
0
 40
0
 40
0
 40
0
 40
1
 40
1
 40
1
 40
1
 10
102.909745
 20
252.416556
 30
0.0
 10
102.204306
 20
252.416556
 30
0.0
 10
101.632430
 20
252.988428
 30
0.0
 10
101.632430
 20
253.693868
 30
0.0
  0
SPLINE
  5
21a
100
AcDbEntity
  8
Layer_1
 62
7
100
AcDbSpline
 70
8
 71
3
 72
8
 73
4
 74
0
 40
0
 40
0
 40
0
 40
0
 40
1
 40
1
 40
1
 40
1
 10
101.632430
 20
253.693868
 30
0.0
 10
101.632430
 20
254.399305
 30
0.0
 10
102.204306
 20
254.971177
 30
0.0
 10
102.909745
 20
254.971177
 30
0.0
  0
SPLINE
  5
21b
100
AcDbEntity
  8
Layer_1
 62
7
100
AcDbSpline
 70
8
 71
3
 72
8
 73
4
 74
0
 40
0
 40
0
 40
0
 40
0
 40
1
 40
1
 40
1
 40
1
 10
102.909745
 20
254.971177
 30
0.0
 10
103.615185
 20
254.971177
 30
0.0
 10
104.187061
 20
254.399305
 30
0.0
 10
104.187061
 20
253.693868
 30
0.0
  0
LINE
  5
21c
100
AcDbEntity
  8
Layer_1
 62
7
100
AcDbLine
 10
104.187061
 20
253.693868
 30
0.0
 11
104.187061
 21
253.693868
 31
0.0
  0
SPLINE
  5
21d
100
AcDbEntity
  8
Layer_1
 62
7
100
AcDbSpline
 70
8
 71
3
 72
8
 73
4
 74
0
 40
0
 40
0
 40
0
 40
0
 40
1
 40
1
 40
1
 40
1
 10
162.739095
 20
253.693868
 30
0.0
 10
162.739095
 20
252.988428
 30
0.0
 10
162.167220
 20
252.416556
 30
0.0
 10
161.461780
 20
252.416556
 30
0.0
  0
SPLINE
  5
21e
100
AcDbEntity
  8
Layer_1
 62
7
100
AcDbSpline
 70
8
 71
3
 72
8
 73
4
 74
0
 40
0
 40
0
 40
0
 40
0
 40
1
 40
1
 40
1
 40
1
 10
161.461780
 20
252.416556
 30
0.0
 10
160.756340
 20
252.416556
 30
0.0
 10
160.184465
 20
252.988428
 30
0.0
 10
160.184465
 20
253.693868
 30
0.0
  0
SPLINE
  5
21f
100
AcDbEntity
  8
Layer_1
 62
7
100
AcDbSpline
 70
8
 71
3
 72
8
 73
4
 74
0
 40
0
 40
0
 40
0
 40
0
 40
1
 40
1
 40
1
 40
1
 10
160.184465
 20
253.693868
 30
0.0
 10
160.184465
 20
254.399305
 30
0.0
 10
160.756340
 20
254.971177
 30
0.0
 10
161.461780
 20
254.971177
 30
0.0
  0
SPLINE
  5
220
100
AcDbEntity
  8
Layer_1
 62
7
100
AcDbSpline
 70
8
 71
3
 72
8
 73
4
 74
0
 40
0
 40
0
 40
0
 40
0
 40
1
 40
1
 40
1
 40
1
 10
161.461780
 20
254.971177
 30
0.0
 10
162.167220
 20
254.971177
 30
0.0
 10
162.739095
 20
254.399305
 30
0.0
 10
162.739095
 20
253.693868
 30
0.0
  0
LINE
  5
221
100
AcDbEntity
  8
Layer_1
 62
7
100
AcDbLine
 10
162.739095
 20
253.693868
 30
0.0
 11
162.739095
 21
253.693868
 31
0.0
  0
LINE
  5
222
100
AcDbEntity
  8
Layer_1
 62
1
100
AcDbLine
 10
93.085753
 20
249.407948
 30
0.0
 11
100.585753
 21
249.407948
 31
0.0
  0
LINE
  5
223
100
AcDbEntity
  8
Layer_1
 62
1
100
AcDbLine
 10
100.585753
 20
249.407948
 30
0.0
 11
100.585753
 21
233.407949
 31
0.0
  0
LINE
  5
224
100
AcDbEntity
  8
Layer_1
 62
1
100
AcDbLine
 10
100.585753
 20
233.407949
 30
0.0
 11
93.085753
 21
233.407949
 31
0.0
  0
LINE
  5
225
100
AcDbEntity
  8
Layer_1
 62
1
100
AcDbLine
 10
93.085753
 20
233.407949
 30
0.0
 11
93.085753
 21
249.407948
 31
0.0
  0
LINE
  5
226
100
AcDbEntity
  8
Layer_1
 62
1
100
AcDbLine
 10
93.085753
 20
203.907949
 30
0.0
 11
100.585753
 21
203.907949
 31
0.0
  0
LINE
  5
227
100
AcDbEntity
  8
Layer_1
 62
1
100
AcDbLine
 10
100.585753
 20
203.907949
 30
0.0
 11
100.585753
 21
187.907950
 31
0.0
  0
LINE
  5
228
100
AcDbEntity
  8
Layer_1
 62
1
100
AcDbLine
 10
100.585753
 20
187.907950
 30
0.0
 11
93.085753
 21
187.907950
 31
0.0
  0
LINE
  5
229
100
AcDbEntity
  8
Layer_1
 62
1
100
AcDbLine
 10
93.085753
 20
187.907950
 30
0.0
 11
93.085753
 21
203.907949
 31
0.0
  0
LINE
  5
22a
100
AcDbEntity
  8
Layer_1
 62
1
100
AcDbLine
 10
107.185762
 20
176.907952
 30
0.0
 11
107.185762
 21
184.407951
 31
0.0
  0
LINE
  5
22b
100
AcDbEntity
  8
Layer_1
 62
1
100
AcDbLine
 10
107.185762
 20
184.407951
 30
0.0
 11
123.185764
 21
184.407951
 31
0.0
  0
LINE
  5
22c
100
AcDbEntity
  8
Layer_1
 62
1
100
AcDbLine
 10
123.185764
 20
184.407951
 30
0.0
 11
123.185764
 21
176.907952
 31
0.0
  0
LINE
  5
22d
100
AcDbEntity
  8
Layer_1
 62
1
100
AcDbLine
 10
123.185764
 20
176.907952
 30
0.0
 11
107.185762
 21
176.907952
 31
0.0
  0
LINE
  5
22e
100
AcDbEntity
  8
Layer_1
 62
1
100
AcDbLine
 10
130.535759
 20
176.907952
 30
0.0
 11
130.535759
 21
184.407951
 31
0.0
  0
LINE
  5
22f
100
AcDbEntity
  8
Layer_1
 62
1
100
AcDbLine
 10
130.535759
 20
184.407951
 30
0.0
 11
146.535758
 21
184.407951
 31
0.0
  0
LINE
  5
230
100
AcDbEntity
  8
Layer_1
 62
1
100
AcDbLine
 10
146.535758
 20
184.407951
 30
0.0
 11
146.535758
 21
176.907952
 31
0.0
  0
LINE
  5
231
100
AcDbEntity
  8
Layer_1
 62
1
100
AcDbLine
 10
146.535758
 20
176.907952
 30
0.0
 11
130.535759
 21
176.907952
 31
0.0
  0
LINE
  5
232
100
AcDbEntity
  8
Layer_1
 62
1
100
AcDbLine
 10
153.635693
 20
176.907952
 30
0.0
 11
153.635693
 21
184.407951
 31
0.0
  0
LINE
  5
233
100
AcDbEntity
  8
Layer_1
 62
1
100
AcDbLine
 10
153.635693
 20
184.407951
 30
0.0
 11
169.635692
 21
184.407951
 31
0.0
  0
LINE
  5
234
100
AcDbEntity
  8
Layer_1
 62
1
100
AcDbLine
 10
169.635692
 20
184.407951
 30
0.0
 11
169.635692
 21
176.907952
 31
0.0
  0
LINE
  5
235
100
AcDbEntity
  8
Layer_1
 62
1
100
AcDbLine
 10
169.635692
 20
176.907952
 30
0.0
 11
153.635693
 21
176.907952
 31
0.0
  0
LINE
  5
236
100
AcDbEntity
  8
Layer_1
 62
1
100
AcDbLine
 10
174.175491
 20
203.904683
 30
0.0
 11
182.682436
 21
203.904683
 31
0.0
  0
LINE
  5
237
100
AcDbEntity
  8
Layer_1
 62
1
100
AcDbLine
 10
182.682436
 20
203.904683
 30
0.0
 11
182.682436
 21
187.911207
 31
0.0
  0
LINE
  5
238
100
AcDbEntity
  8
Layer_1
 62
1
100
AcDbLine
 10
182.682436
 20
187.911207
 30
0.0
 11
174.175491
 21
187.911207
 31
0.0
  0
LINE
  5
239
100
AcDbEntity
  8
Layer_1
 62
1
100
AcDbLine
 10
174.175491
 20
187.911207
 30
0.0
 11
174.175491
 21
203.904683
 31
0.0
  0
LINE
  5
23a
100
AcDbEntity
  8
Layer_1
 62
1
100
AcDbLine
 10
174.175491
 20
227.004634
 30
0.0
 11
182.682436
 21
227.004634
 31
0.0
  0
LINE
  5
23b
100
AcDbEntity
  8
Layer_1
 62
1
100
AcDbLine
 10
182.682436
 20
227.004634
 30
0.0
 11
182.682436
 21
211.011158
 31
0.0
  0
LINE
  5
23c
100
AcDbEntity
  8
Layer_1
 62
1
100
AcDbLine
 10
182.682436
 20
211.011158
 30
0.0
 11
174.175491
 21
211.011158
 31
0.0
  0
LINE
  5
23d
100
AcDbEntity
  8
Layer_1
 62
1
100
AcDbLine
 10
174.175491
 20
211.011158
 30
0.0
 11
174.175491
 21
227.004634
 31
0.0
  0
LINE
  5
23e
100
AcDbEntity
  8
Layer_1
 62
1
100
AcDbLine
 10
174.175491
 20
250.104591
 30
0.0
 11
182.682436
 21
250.104591
 31
0.0
  0
LINE
  5
23f
100
AcDbEntity
  8
Layer_1
 62
1
100
AcDbLine
 10
182.682436
 20
250.104591
 30
0.0
 11
182.682436
 21
234.111111
 31
0.0
  0
LINE
  5
240
100
AcDbEntity
  8
Layer_1
 62
1
100
AcDbLine
 10
182.682436
 20
234.111111
 30
0.0
 11
174.175491
 21
234.111111
 31
0.0
  0
LINE
  5
241
100
AcDbEntity
  8
Layer_1
 62
1
100
AcDbLine
 10
174.175491
 20
234.111111
 30
0.0
 11
174.175491
 21
250.104591
 31
0.0
  0
LINE
  5
242
100
AcDbEntity
  8
Layer_1
 62
1
100
AcDbLine
 10
107.185762
 20
256.193866
 30
0.0
 11
157.185764
 21
256.193866
 31
0.0
  0
LINE
  5
243
100
AcDbEntity
  8
Layer_1
 62
1
100
AcDbLine
 10
157.185764
 20
256.193866
 30
0.0
 11
157.185764
 21
251.193867
 31
0.0
  0
LINE
  5
244
100
AcDbEntity
  8
Layer_1
 62
1
100
AcDbLine
 10
157.185764
 20
251.193867
 30
0.0
 11
107.185762
 21
251.193867
 31
0.0
  0
LINE
  5
245
100
AcDbEntity
  8
Layer_1
 62
1
100
AcDbLine
 10
107.185762
 20
251.193867
 30
0.0
 11
107.185762
 21
256.193866
 31
0.0
  0
LINE
  5
246
100
AcDbEntity
  8
Layer_1
 62
1
100
AcDbLine
 10
164.685751
 20
256.907947
 30
0.0
 11
172.185751
 21
256.907947
 31
0.0
  0
LINE
  5
247
100
AcDbEntity
  8
Layer_1
 62
1
100
AcDbLine
 10
172.185751
 20
256.907947
 30
0.0
 11
172.185751
 21
251.407947
 31
0.0
  0
LINE
  5
248
100
AcDbEntity
  8
Layer_1
 62
1
100
AcDbLine
 10
172.185751
 20
251.407947
 30
0.0
 11
164.685751
 21
251.407947
 31
0.0
  0
LINE
  5
249
100
AcDbEntity
  8
Layer_1
 62
1
100
AcDbLine
 10
164.685751
 20
251.407947
 30
0.0
 11
164.685751
 21
256.907947
 31
0.0
  0
SPLINE
  5
24a
100
AcDbEntity
  8
Layer_1
 62
1
100
AcDbSpline
 70
8
 71
3
 72
8
 73
4
 74
0
 40
0
 40
0
 40
0
 40
0
 40
1
 40
1
 40
1
 40
1
 10
125.436410
 20
217.640112
 30
0.0
 10
125.436410
 20
217.640112
 30
0.0
 10
125.436410
 20
219.902405
 30
0.0
 10
125.436410
 20
220.213978
 30
0.0
  0
SPLINE
  5
24b
100
AcDbEntity
  8
Layer_1
 62
1
100
AcDbSpline
 70
8
 71
3
 72
8
 73
4
 74
0
 40
0
 40
0
 40
0
 40
0
 40
1
 40
1
 40
1
 40
1
 10
125.436410
 20
220.213978
 30
0.0
 10
125.436410
 20
220.525552
 30
0.0
 10
125.138383
 20
221.108058
 30
0.0
 10
124.278170
 20
221.114832
 30
0.0
  0
SPLINE
  5
24c
100
AcDbEntity
  8
Layer_1
 62
1
100
AcDbSpline
 70
8
 71
3
 72
8
 73
4
 74
0
 40
0
 40
0
 40
0
 40
0
 40
1
 40
1
 40
1
 40
1
 10
124.278170
 20
221.114832
 30
0.0
 10
123.417959
 20
221.121605
 30
0.0
 10
123.106383
 20
220.451045
 30
0.0
 10
123.106383
 20
219.827898
 30
0.0
  0
SPLINE
  5
24d
100
AcDbEntity
  8
Layer_1
 62
1
100
AcDbSpline
 70
8
 71
3
 72
8
 73
4
 74
0
 40
0
 40
0
 40
0
 40
0
 40
1
 40
1
 40
1
 40
1
 10
123.106383
 20
219.827898
 30
0.0
 10
123.106383
 20
220.451045
 30
0.0
 10
123.417959
 20
221.121605
 30
0.0
 10
124.278170
 20
221.114832
 30
0.0
  0
SPLINE
  5
24e
100
AcDbEntity
  8
Layer_1
 62
1
100
AcDbSpline
 70
8
 71
3
 72
8
 73
4
 74
0
 40
0
 40
0
 40
0
 40
0
 40
1
 40
1
 40
1
 40
1
 10
124.278170
 20
221.114832
 30
0.0
 10
125.138383
 20
221.108058
 30
0.0
 10
125.436410
 20
220.525552
 30
0.0
 10
125.436410
 20
220.213978
 30
0.0
  0
SPLINE
  5
24f
100
AcDbEntity
  8
Layer_1
 62
1
100
AcDbSpline
 70
8
 71
3
 72
8
 73
4
 74
0
 40
0
 40
0
 40
0
 40
0
 40
1
 40
1
 40
1
 40
1
 10
125.436410
 20
220.213978
 30
0.0
 10
125.436410
 20
219.902405
 30
0.0
 10
125.436410
 20
217.640112
 30
0.0
 10
125.436410
 20
217.640112
 30
0.0
  0
SPLINE
  5
250
100
AcDbEntity
  8
Layer_1
 62
1
100
AcDbSpline
 70
8
 71
3
 72
8
 73
4
 74
0
 40
0
 40
0
 40
0
 40
0
 40
1
 40
1
 40
1
 40
1
 10
123.106383
 20
217.640112
 30
0.0
 10
123.106383
 20
217.640112
 30
0.0
 10
123.106383
 20
219.902405
 30
0.0
 10
123.106383
 20
220.213978
 30
0.0
  0
SPLINE
  5
251
100
AcDbEntity
  8
Layer_1
 62
1
100
AcDbSpline
 70
8
 71
3
 72
8
 73
4
 74
0
 40
0
 40
0
 40
0
 40
0
 40
1
 40
1
 40
1
 40
1
 10
123.106383
 20
220.213978
 30
0.0
 10
123.106383
 20
220.525552
 30
0.0
 10
122.903183
 20
221.108058
 30
0.0
 10
122.042970
 20
221.114832
 30
0.0
  0
SPLINE
  5
252
100
AcDbEntity
  8
Layer_1
 62
1
100
AcDbSpline
 70
8
 71
3
 72
8
 73
4
 74
0
 40
0
 40
0
 40
0
 40
0
 40
1
 40
1
 40
1
 40
1
 10
122.042970
 20
221.114832
 30
0.0
 10
121.182759
 20
221.121605
 30
0.0
 10
120.796677
 20
220.451045
 30
0.0
 10
120.796677
 20
219.827898
 30
0.0
  0
SPLINE
  5
253
100
AcDbEntity
  8
Layer_1
 62
1
100
AcDbSpline
 70
8
 71
3
 72
8
 73
4
 74
0
 40
0
 40
0
 40
0
 40
0
 40
1
 40
1
 40
1
 40
1
 10
120.796677
 20
219.827898
 30
0.0
 10
120.796677
 20
220.451045
 30
0.0
 10
121.182759
 20
221.121605
 30
0.0
 10
122.042970
 20
221.114832
 30
0.0
  0
SPLINE
  5
254
100
AcDbEntity
  8
Layer_1
 62
1
100
AcDbSpline
 70
8
 71
3
 72
8
 73
4
 74
0
 40
0
 40
0
 40
0
 40
0
 40
1
 40
1
 40
1
 40
1
 10
122.042970
 20
221.114832
 30
0.0
 10
122.903183
 20
221.108058
 30
0.0
 10
123.106383
 20
220.525552
 30
0.0
 10
123.106383
 20
220.213978
 30
0.0
  0
SPLINE
  5
255
100
AcDbEntity
  8
Layer_1
 62
1
100
AcDbSpline
 70
8
 71
3
 72
8
 73
4
 74
0
 40
0
 40
0
 40
0
 40
0
 40
1
 40
1
 40
1
 40
1
 10
123.106383
 20
220.213978
 30
0.0
 10
123.106383
 20
219.902405
 30
0.0
 10
123.106383
 20
217.640112
 30
0.0
 10
123.106383
 20
217.640112
 30
0.0
  0
LINE
  5
256
100
AcDbEntity
  8
Layer_1
 62
1
100
AcDbLine
 10
120.796677
 20
217.640112
 30
0.0
 11
120.796677
 21
221.114832
 31
0.0
  0
LINE
  5
257
100
AcDbEntity
  8
Layer_1
 62
1
100
AcDbLine
 10
120.796677
 20
221.114832
 30
0.0
 11
120.796677
 21
217.640112
 31
0.0
  0
SPLINE
  5
258
100
AcDbEntity
  8
Layer_1
 62
1
100
AcDbSpline
 70
8
 71
3
 72
8
 73
4
 74
0
 40
0
 40
0
 40
0
 40
0
 40
1
 40
1
 40
1
 40
1
 10
127.757335
 20
216.244805
 30
0.0
 10
128.211148
 20
216.102565
 30
0.0
 10
128.536268
 20
216.346405
 30
0.0
 10
128.678508
 20
216.725712
 30
0.0
  0
LINE
  5
259
100
AcDbEntity
  8
Layer_1
 62
1
100
AcDbLine
 10
128.678508
 20
216.725712
 30
0.0
 11
130.290562
 21
221.067418
 31
0.0
  0
LINE
  5
25a
100
AcDbEntity
  8
Layer_1
 62
1
100
AcDbLine
 10
130.290562
 20
221.067418
 30
0.0
 11
128.678508
 21
216.725712
 31
0.0
  0
SPLINE
  5
25b
100
AcDbEntity
  8
Layer_1
 62
1
100
AcDbSpline
 70
8
 71
3
 72
8
 73
4
 74
0
 40
0
 40
0
 40
0
 40
0
 40
1
 40
1
 40
1
 40
1
 10
128.678508
 20
216.725712
 30
0.0
 10
128.536268
 20
216.346405
 30
0.0
 10
128.211148
 20
216.102565
 30
0.0
 10
127.757335
 20
216.244805
 30
0.0
  0
LINE
  5
25c
100
AcDbEntity
  8
Layer_1
 62
1
100
AcDbLine
 10
127.499948
 20
221.094512
 30
0.0
 11
129.010402
 21
217.619792
 31
0.0
  0
LINE
  5
25d
100
AcDbEntity
  8
Layer_1
 62
1
100
AcDbLine
 10
129.010402
 20
217.619792
 30
0.0
 11
127.499948
 21
221.094512
 31
0.0
  0
SPLINE
  5
25e
100
AcDbEntity
  8
Layer_1
 62
1
100
AcDbSpline
 70
8
 71
3
 72
8
 73
4
 74
0
 40
0
 40
0
 40
0
 40
0
 40
1
 40
1
 40
1
 40
1
 10
131.892032
 20
219.116698
 30
0.0
 10
131.892032
 20
218.032965
 30
0.0
 10
132.718381
 20
217.599472
 30
0.0
 10
133.686965
 20
217.599472
 30
0.0
  0
SPLINE
  5
25f
100
AcDbEntity
  8
Layer_1
 62
1
100
AcDbSpline
 70
8
 71
3
 72
8
 73
4
 74
0
 40
0
 40
0
 40
0
 40
0
 40
1
 40
1
 40
1
 40
1
 10
133.686965
 20
217.599472
 30
0.0
 10
134.669098
 20
217.599472
 30
0.0
 10
135.285472
 20
218.215845
 30
0.0
 10
135.305792
 20
218.818672
 30
0.0
  0
SPLINE
  5
260
100
AcDbEntity
  8
Layer_1
 62
1
100
AcDbSpline
 70
8
 71
3
 72
8
 73
4
 74
0
 40
0
 40
0
 40
0
 40
0
 40
1
 40
1
 40
1
 40
1
 10
135.305792
 20
218.818672
 30
0.0
 10
135.326112
 20
219.414725
 30
0.0
 10
135.021312
 20
219.888858
 30
0.0
 10
134.418485
 20
220.017552
 30
0.0
  0
LINE
  5
261
100
AcDbEntity
  8
Layer_1
 62
1
100
AcDbLine
 10
134.418485
 20
220.017552
 30
0.0
 11
132.759018
 21
220.376538
 31
0.0
  0
SPLINE
  5
262
100
AcDbEntity
  8
Layer_1
 62
1
100
AcDbSpline
 70
8
 71
3
 72
8
 73
4
 74
0
 40
0
 40
0
 40
0
 40
0
 40
1
 40
1
 40
1
 40
1
 10
132.759018
 20
220.376538
 30
0.0
 10
132.291661
 20
220.478138
 30
0.0
 10
132.013952
 20
220.749072
 30
0.0
 10
132.013952
 20
221.385765
 30
0.0
  0
SPLINE
  5
263
100
AcDbEntity
  8
Layer_1
 62
1
100
AcDbSpline
 70
8
 71
3
 72
8
 73
4
 74
0
 40
0
 40
0
 40
0
 40
0
 40
1
 40
1
 40
1
 40
1
 10
132.013952
 20
221.385765
 30
0.0
 10
132.013952
 20
222.022458
 30
0.0
 10
132.549048
 20
222.571098
 30
0.0
 10
133.524405
 20
222.571098
 30
0.0
  0
SPLINE
  5
264
100
AcDbEntity
  8
Layer_1
 62
1
100
AcDbSpline
 70
8
 71
3
 72
8
 73
4
 74
0
 40
0
 40
0
 40
0
 40
0
 40
1
 40
1
 40
1
 40
1
 10
133.524405
 20
222.571098
 30
0.0
 10
134.499765
 20
222.571098
 30
0.0
 10
135.210965
 20
222.110512
 30
0.0
 10
135.183872
 20
221.304485
 30
0.0
  0
SPLINE
  5
265
100
AcDbEntity
  8
Layer_1
 62
1
100
AcDbSpline
 70
8
 71
3
 72
8
 73
4
 74
0
 40
0
 40
0
 40
0
 40
0
 40
1
 40
1
 40
1
 40
1
 10
135.183872
 20
221.304485
 30
0.0
 10
135.210965
 20
222.110512
 30
0.0
 10
134.499765
 20
222.571098
 30
0.0
 10
133.524405
 20
222.571098
 30
0.0
  0
SPLINE
  5
266
100
AcDbEntity
  8
Layer_1
 62
1
100
AcDbSpline
 70
8
 71
3
 72
8
 73
4
 74
0
 40
0
 40
0
 40
0
 40
0
 40
1
 40
1
 40
1
 40
1
 10
133.524405
 20
222.571098
 30
0.0
 10
132.549048
 20
222.571098
 30
0.0
 10
132.013952
 20
222.022458
 30
0.0
 10
132.013952
 20
221.385765
 30
0.0
  0
SPLINE
  5
267
100
AcDbEntity
  8
Layer_1
 62
1
100
AcDbSpline
 70
8
 71
3
 72
8
 73
4
 74
0
 40
0
 40
0
 40
0
 40
0
 40
1
 40
1
 40
1
 40
1
 10
132.013952
 20
221.385765
 30
0.0
 10
132.013952
 20
220.749072
 30
0.0
 10
132.278114
 20
220.484912
 30
0.0
 10
132.759018
 20
220.376538
 30
0.0
  0
LINE
  5
268
100
AcDbEntity
  8
Layer_1
 62
1
100
AcDbLine
 10
132.759018
 20
220.376538
 30
0.0
 11
134.418485
 21
220.017552
 31
0.0
  0
SPLINE
  5
269
100
AcDbEntity
  8
Layer_1
 62
1
100
AcDbSpline
 70
8
 71
3
 72
8
 73
4
 74
0
 40
0
 40
0
 40
0
 40
0
 40
1
 40
1
 40
1
 40
1
 10
134.418485
 20
220.017552
 30
0.0
 10
135.034858
 20
219.888858
 30
0.0
 10
135.326112
 20
219.414725
 30
0.0
 10
135.305792
 20
218.818672
 30
0.0
  0
SPLINE
  5
26a
100
AcDbEntity
  8
Layer_1
 62
1
100
AcDbSpline
 70
8
 71
3
 72
8
 73
4
 74
0
 40
0
 40
0
 40
0
 40
0
 40
1
 40
1
 40
1
 40
1
 10
135.305792
 20
218.818672
 30
0.0
 10
135.285472
 20
218.215845
 30
0.0
 10
134.669098
 20
217.599472
 30
0.0
 10
133.686965
 20
217.599472
 30
0.0
  0
SPLINE
  5
26b
100
AcDbEntity
  8
Layer_1
 62
1
100
AcDbSpline
 70
8
 71
3
 72
8
 73
4
 74
0
 40
0
 40
0
 40
0
 40
0
 40
1
 40
1
 40
1
 40
1
 10
133.686965
 20
217.599472
 30
0.0
 10
132.718381
 20
217.599472
 30
0.0
 10
131.892032
 20
218.032965
 30
0.0
 10
131.892032
 20
219.116698
 30
0.0
  0
SPLINE
  5
26c
100
AcDbEntity
  8
Layer_1
 62
1
100
AcDbSpline
 70
8
 71
3
 72
8
 73
4
 74
0
 40
0
 40
0
 40
0
 40
0
 40
1
 40
1
 40
1
 40
1
 10
138.347653
 20
217.673978
 30
0.0
 10
138.015763
 20
217.653658
 30
0.0
 10
137.656773
 20
217.640112
 30
0.0
 10
137.656773
 20
218.093925
 30
0.0
  0
SPLINE
  5
26d
100
AcDbEntity
  8
Layer_1
 62
1
100
AcDbSpline
 70
8
 71
3
 72
8
 73
4
 74
0
 40
0
 40
0
 40
0
 40
0
 40
1
 40
1
 40
1
 40
1
 10
137.656773
 20
218.093925
 30
0.0
 10
137.656773
 20
218.554512
 30
0.0
 10
137.656773
 20
222.428858
 30
0.0
 10
137.656773
 20
222.428858
 30
0.0
  0
SPLINE
  5
26e
100
AcDbEntity
  8
Layer_1
 62
1
100
AcDbSpline
 70
8
 71
3
 72
8
 73
4
 74
0
 40
0
 40
0
 40
0
 40
0
 40
1
 40
1
 40
1
 40
1
 10
137.656773
 20
222.428858
 30
0.0
 10
137.656773
 20
222.428858
 30
0.0
 10
137.656773
 20
218.554512
 30
0.0
 10
137.656773
 20
218.093925
 30
0.0
  0
SPLINE
  5
26f
100
AcDbEntity
  8
Layer_1
 62
1
100
AcDbSpline
 70
8
 71
3
 72
8
 73
4
 74
0
 40
0
 40
0
 40
0
 40
0
 40
1
 40
1
 40
1
 40
1
 10
137.656773
 20
218.093925
 30
0.0
 10
137.656773
 20
217.640112
 30
0.0
 10
138.015763
 20
217.653658
 30
0.0
 10
138.347653
 20
217.673978
 30
0.0
  0
LINE
  5
270
100
AcDbEntity
  8
Layer_1
 62
1
100
AcDbLine
 10
136.945573
 20
221.148698
 30
0.0
 11
138.361200
 21
221.148698
 31
0.0
  0
LINE
  5
271
100
AcDbEntity
  8
Layer_1
 62
1
100
AcDbLine
 10
138.361200
 20
221.148698
 30
0.0
 11
136.945573
 21
221.148698
 31
0.0
  0
SPLINE
  5
272
100
AcDbEntity
  8
Layer_1
 62
1
100
AcDbSpline
 70
8
 71
3
 72
8
 73
4
 74
0
 40
0
 40
0
 40
0
 40
0
 40
1
 40
1
 40
1
 40
1
 10
141.419995
 20
217.640112
 30
0.0
 10
142.266662
 20
217.640112
 30
0.0
 10
142.957542
 20
218.039738
 30
0.0
 10
142.957542
 20
219.414725
 30
0.0
  0
SPLINE
  5
273
100
AcDbEntity
  8
Layer_1
 62
1
100
AcDbSpline
 70
8
 71
3
 72
8
 73
4
 74
0
 40
0
 40
0
 40
0
 40
0
 40
1
 40
1
 40
1
 40
1
 10
142.957542
 20
219.414725
 30
0.0
 10
142.957542
 20
220.782936
 30
0.0
 10
142.266662
 20
221.182565
 30
0.0
 10
141.419995
 20
221.182565
 30
0.0
  0
SPLINE
  5
274
100
AcDbEntity
  8
Layer_1
 62
1
100
AcDbSpline
 70
8
 71
3
 72
8
 73
4
 74
0
 40
0
 40
0
 40
0
 40
0
 40
1
 40
1
 40
1
 40
1
 10
141.419995
 20
221.182565
 30
0.0
 10
140.580104
 20
221.182565
 30
0.0
 10
139.882448
 20
220.782936
 30
0.0
 10
139.882448
 20
219.414725
 30
0.0
  0
SPLINE
  5
275
100
AcDbEntity
  8
Layer_1
 62
1
100
AcDbSpline
 70
8
 71
3
 72
8
 73
4
 74
0
 40
0
 40
0
 40
0
 40
0
 40
1
 40
1
 40
1
 40
1
 10
139.882448
 20
219.414725
 30
0.0
 10
139.882448
 20
218.039738
 30
0.0
 10
140.580104
 20
217.640112
 30
0.0
 10
141.419995
 20
217.640112
 30
0.0
  0
SPLINE
  5
276
100
AcDbEntity
  8
Layer_1
 62
1
100
AcDbSpline
 70
8
 71
3
 72
8
 73
4
 74
0
 40
0
 40
0
 40
0
 40
0
 40
1
 40
1
 40
1
 40
1
 10
141.419995
 20
217.640112
 30
0.0
 10
142.266662
 20
217.640112
 30
0.0
 10
142.957542
 20
218.039738
 30
0.0
 10
142.957542
 20
219.414725
 30
0.0
  0
SPLINE
  5
277
100
AcDbEntity
  8
Layer_1
 62
1
100
AcDbSpline
 70
8
 71
3
 72
8
 73
4
 74
0
 40
0
 40
0
 40
0
 40
0
 40
1
 40
1
 40
1
 40
1
 10
142.957542
 20
219.414725
 30
0.0
 10
142.957542
 20
220.782936
 30
0.0
 10
142.266662
 20
221.182565
 30
0.0
 10
141.419995
 20
221.182565
 30
0.0
  0
SPLINE
  5
278
100
AcDbEntity
  8
Layer_1
 62
1
100
AcDbSpline
 70
8
 71
3
 72
8
 73
4
 74
0
 40
0
 40
0
 40
0
 40
0
 40
1
 40
1
 40
1
 40
1
 10
141.419995
 20
221.182565
 30
0.0
 10
140.580104
 20
221.182565
 30
0.0
 10
139.882448
 20
220.782936
 30
0.0
 10
139.882448
 20
219.414725
 30
0.0
  0
SPLINE
  5
279
100
AcDbEntity
  8
Layer_1
 62
1
100
AcDbSpline
 70
8
 71
3
 72
8
 73
4
 74
0
 40
0
 40
0
 40
0
 40
0
 40
1
 40
1
 40
1
 40
1
 10
139.882448
 20
219.414725
 30
0.0
 10
139.882448
 20
218.039738
 30
0.0
 10
140.580104
 20
217.640112
 30
0.0
 10
141.419995
 20
217.640112
 30
0.0
  0
SPLINE
  5
27a
100
AcDbEntity
  8
Layer_1
 62
1
100
AcDbSpline
 70
8
 71
3
 72
8
 73
4
 74
0
 40
0
 40
0
 40
0
 40
0
 40
1
 40
1
 40
1
 40
1
 10
145.317413
 20
219.414725
 30
0.0
 10
145.297093
 20
220.193658
 30
0.0
 10
146.015069
 20
221.121605
 30
0.0
 10
146.644987
 20
221.114832
 30
0.0
  0
SPLINE
  5
27b
100
AcDbEntity
  8
Layer_1
 62
1
100
AcDbSpline
 70
8
 71
3
 72
8
 73
4
 74
0
 40
0
 40
0
 40
0
 40
0
 40
1
 40
1
 40
1
 40
1
 10
146.644987
 20
221.114832
 30
0.0
 10
146.015069
 20
221.121605
 30
0.0
 10
145.297093
 20
220.193658
 30
0.0
 10
145.317413
 20
219.414725
 30
0.0
  0
LINE
  5
27c
100
AcDbEntity
  8
Layer_1
 62
1
100
AcDbLine
 10
145.317413
 20
217.640112
 30
0.0
 11
145.317413
 21
221.114832
 31
0.0
  0
LINE
  5
27d
100
AcDbEntity
  8
Layer_1
 62
1
100
AcDbLine
 10
145.317413
 20
221.114832
 30
0.0
 11
145.317413
 21
217.640112
 31
0.0
  0
SPLINE
  5
27e
100
AcDbEntity
  8
Layer_1
 62
1
100
AcDbSpline
 70
8
 71
3
 72
8
 73
4
 74
0
 40
0
 40
0
 40
0
 40
0
 40
1
 40
1
 40
1
 40
1
 10
153.574849
 20
217.640112
 30
0.0
 10
153.574849
 20
217.640112
 30
0.0
 10
153.574849
 20
219.902405
 30
0.0
 10
153.574849
 20
220.213978
 30
0.0
  0
SPLINE
  5
27f
100
AcDbEntity
  8
Layer_1
 62
1
100
AcDbSpline
 70
8
 71
3
 72
8
 73
4
 74
0
 40
0
 40
0
 40
0
 40
0
 40
1
 40
1
 40
1
 40
1
 10
153.574849
 20
220.213978
 30
0.0
 10
153.574849
 20
220.525552
 30
0.0
 10
153.276822
 20
221.108058
 30
0.0
 10
152.416609
 20
221.114832
 30
0.0
  0
SPLINE
  5
280
100
AcDbEntity
  8
Layer_1
 62
1
100
AcDbSpline
 70
8
 71
3
 72
8
 73
4
 74
0
 40
0
 40
0
 40
0
 40
0
 40
1
 40
1
 40
1
 40
1
 10
152.416609
 20
221.114832
 30
0.0
 10
151.556395
 20
221.121605
 30
0.0
 10
151.244822
 20
220.451045
 30
0.0
 10
151.244822
 20
219.827898
 30
0.0
  0
SPLINE
  5
281
100
AcDbEntity
  8
Layer_1
 62
1
100
AcDbSpline
 70
8
 71
3
 72
8
 73
4
 74
0
 40
0
 40
0
 40
0
 40
0
 40
1
 40
1
 40
1
 40
1
 10
151.244822
 20
219.827898
 30
0.0
 10
151.244822
 20
220.451045
 30
0.0
 10
151.556395
 20
221.121605
 30
0.0
 10
152.416609
 20
221.114832
 30
0.0
  0
SPLINE
  5
282
100
AcDbEntity
  8
Layer_1
 62
1
100
AcDbSpline
 70
8
 71
3
 72
8
 73
4
 74
0
 40
0
 40
0
 40
0
 40
0
 40
1
 40
1
 40
1
 40
1
 10
152.416609
 20
221.114832
 30
0.0
 10
153.276822
 20
221.108058
 30
0.0
 10
153.574849
 20
220.525552
 30
0.0
 10
153.574849
 20
220.213978
 30
0.0
  0
SPLINE
  5
283
100
AcDbEntity
  8
Layer_1
 62
1
100
AcDbSpline
 70
8
 71
3
 72
8
 73
4
 74
0
 40
0
 40
0
 40
0
 40
0
 40
1
 40
1
 40
1
 40
1
 10
153.574849
 20
220.213978
 30
0.0
 10
153.574849
 20
219.902405
 30
0.0
 10
153.574849
 20
217.640112
 30
0.0
 10
153.574849
 20
217.640112
 30
0.0
  0
SPLINE
  5
284
100
AcDbEntity
  8
Layer_1
 62
1
100
AcDbSpline
 70
8
 71
3
 72
8
 73
4
 74
0
 40
0
 40
0
 40
0
 40
0
 40
1
 40
1
 40
1
 40
1
 10
151.244822
 20
217.640112
 30
0.0
 10
151.244822
 20
217.640112
 30
0.0
 10
151.244822
 20
219.902405
 30
0.0
 10
151.244822
 20
220.213978
 30
0.0
  0
SPLINE
  5
285
100
AcDbEntity
  8
Layer_1
 62
1
100
AcDbSpline
 70
8
 71
3
 72
8
 73
4
 74
0
 40
0
 40
0
 40
0
 40
0
 40
1
 40
1
 40
1
 40
1
 10
151.244822
 20
220.213978
 30
0.0
 10
151.244822
 20
220.525552
 30
0.0
 10
151.041622
 20
221.108058
 30
0.0
 10
150.181409
 20
221.114832
 30
0.0
  0
SPLINE
  5
286
100
AcDbEntity
  8
Layer_1
 62
1
100
AcDbSpline
 70
8
 71
3
 72
8
 73
4
 74
0
 40
0
 40
0
 40
0
 40
0
 40
1
 40
1
 40
1
 40
1
 10
150.181409
 20
221.114832
 30
0.0
 10
149.321195
 20
221.121605
 30
0.0
 10
148.935115
 20
220.451045
 30
0.0
 10
148.935115
 20
219.827898
 30
0.0
  0
SPLINE
  5
287
100
AcDbEntity
  8
Layer_1
 62
1
100
AcDbSpline
 70
8
 71
3
 72
8
 73
4
 74
0
 40
0
 40
0
 40
0
 40
0
 40
1
 40
1
 40
1
 40
1
 10
148.935115
 20
219.827898
 30
0.0
 10
148.935115
 20
220.451045
 30
0.0
 10
149.321195
 20
221.121605
 30
0.0
 10
150.181409
 20
221.114832
 30
0.0
  0
SPLINE
  5
288
100
AcDbEntity
  8
Layer_1
 62
1
100
AcDbSpline
 70
8
 71
3
 72
8
 73
4
 74
0
 40
0
 40
0
 40
0
 40
0
 40
1
 40
1
 40
1
 40
1
 10
150.181409
 20
221.114832
 30
0.0
 10
151.041622
 20
221.108058
 30
0.0
 10
151.244822
 20
220.525552
 30
0.0
 10
151.244822
 20
220.213978
 30
0.0
  0
SPLINE
  5
289
100
AcDbEntity
  8
Layer_1
 62
1
100
AcDbSpline
 70
8
 71
3
 72
8
 73
4
 74
0
 40
0
 40
0
 40
0
 40
0
 40
1
 40
1
 40
1
 40
1
 10
151.244822
 20
220.213978
 30
0.0
 10
151.244822
 20
219.902405
 30
0.0
 10
151.244822
 20
217.640112
 30
0.0
 10
151.244822
 20
217.640112
 30
0.0
  0
LINE
  5
28a
100
AcDbEntity
  8
Layer_1
 62
1
100
AcDbLine
 10
148.935115
 20
217.640112
 30
0.0
 11
148.935115
 21
221.114832
 31
0.0
  0
LINE
  5
28b
100
AcDbEntity
  8
Layer_1
 62
1
100
AcDbLine
 10
148.935115
 20
221.114832
 30
0.0
 11
148.935115
 21
217.640112
 31
0.0
  0
LINE
  5
28c
100
AcDbEntity
  8
Layer_1
 62
7
100
AcDbLine
 10
95.151160
 20
271.606950
 30
0.0
 11
262.151137
 21
271.606950
 31
0.0
  0
SPLINE
  5
28d
100
AcDbEntity
  8
Layer_1
 62
7
100
AcDbSpline
 70
8
 71
3
 72
8
 73
4
 74
0
 40
0
 40
0
 40
0
 40
0
 40
1
 40
1
 40
1
 40
1
 10
262.151137
 20
271.606950
 30
0.0
 10
267.691136
 20
271.606950
 30
0.0
 10
272.151136
 20
267.146950
 30
0.0
 10
272.151136
 20
261.606950
 30
0.0
  0
LINE
  5
28e
100
AcDbEntity
  8
Layer_1
 62
7
100
AcDbLine
 10
272.151136
 20
261.606950
 30
0.0
 11
272.151136
 21
176.606908
 31
0.0
  0
SPLINE
  5
28f
100
AcDbEntity
  8
Layer_1
 62
7
100
AcDbSpline
 70
8
 71
3
 72
8
 73
4
 74
0
 40
0
 40
0
 40
0
 40
0
 40
1
 40
1
 40
1
 40
1
 10
272.151136
 20
176.606908
 30
0.0
 10
272.151136
 20
171.066909
 30
0.0
 10
267.691136
 20
166.606909
 30
0.0
 10
262.151137
 20
166.606909
 30
0.0
  0
LINE
  5
290
100
AcDbEntity
  8
Layer_1
 62
7
100
AcDbLine
 10
262.151137
 20
166.606909
 30
0.0
 11
95.151160
 21
166.606909
 31
0.0
  0
SPLINE
  5
291
100
AcDbEntity
  8
Layer_1
 62
7
100
AcDbSpline
 70
8
 71
3
 72
8
 73
4
 74
0
 40
0
 40
0
 40
0
 40
0
 40
1
 40
1
 40
1
 40
1
 10
95.151160
 20
166.606909
 30
0.0
 10
89.611160
 20
166.606909
 30
0.0
 10
85.151160
 20
171.066909
 30
0.0
 10
85.151160
 20
176.606908
 30
0.0
  0
LINE
  5
292
100
AcDbEntity
  8
Layer_1
 62
7
100
AcDbLine
 10
85.151160
 20
176.606908
 30
0.0
 11
85.151160
 21
261.606950
 31
0.0
  0
SPLINE
  5
293
100
AcDbEntity
  8
Layer_1
 62
7
100
AcDbSpline
 70
8
 71
3
 72
8
 73
4
 74
0
 40
0
 40
0
 40
0
 40
0
 40
1
 40
1
 40
1
 40
1
 10
85.151160
 20
261.606950
 30
0.0
 10
85.151160
 20
267.146950
 30
0.0
 10
89.611160
 20
271.606950
 30
0.0
 10
95.151160
 20
271.606950
 30
0.0
  0
LINE
  5
294
100
AcDbEntity
  8
Layer_1
 62
7
100
AcDbLine
 10
95.151160
 20
271.606950
 30
0.0
 11
95.151160
 21
271.606950
 31
0.0
  0
SPLINE
  5
295
100
AcDbEntity
  8
Layer_1
 62
7
100
AcDbSpline
 70
8
 71
3
 72
8
 73
4
 74
0
 40
0
 40
0
 40
0
 40
0
 40
1
 40
1
 40
1
 40
1
 10
94.481842
 20
263.693848
 30
0.0
 10
94.481842
 20
262.825614
 30
0.0
 10
93.777997
 20
262.121769
 30
0.0
 10
92.909765
 20
262.121769
 30
0.0
  0
SPLINE
  5
296
100
AcDbEntity
  8
Layer_1
 62
7
100
AcDbSpline
 70
8
 71
3
 72
8
 73
4
 74
0
 40
0
 40
0
 40
0
 40
0
 40
1
 40
1
 40
1
 40
1
 10
92.909765
 20
262.121769
 30
0.0
 10
92.041534
 20
262.121769
 30
0.0
 10
91.337689
 20
262.825614
 30
0.0
 10
91.337689
 20
263.693848
 30
0.0
  0
SPLINE
  5
297
100
AcDbEntity
  8
Layer_1
 62
7
100
AcDbSpline
 70
8
 71
3
 72
8
 73
4
 74
0
 40
0
 40
0
 40
0
 40
0
 40
1
 40
1
 40
1
 40
1
 10
91.337689
 20
263.693848
 30
0.0
 10
91.337689
 20
264.562079
 30
0.0
 10
92.041534
 20
265.265924
 30
0.0
 10
92.909765
 20
265.265924
 30
0.0
  0
SPLINE
  5
298
100
AcDbEntity
  8
Layer_1
 62
7
100
AcDbSpline
 70
8
 71
3
 72
8
 73
4
 74
0
 40
0
 40
0
 40
0
 40
0
 40
1
 40
1
 40
1
 40
1
 10
92.909765
 20
265.265924
 30
0.0
 10
93.777997
 20
265.265924
 30
0.0
 10
94.481842
 20
264.562079
 30
0.0
 10
94.481842
 20
263.693848
 30
0.0
  0
LINE
  5
299
100
AcDbEntity
  8
Layer_1
 62
7
100
AcDbLine
 10
94.481842
 20
263.693848
 30
0.0
 11
94.481842
 21
263.693848
 31
0.0
  0
SPLINE
  5
29a
100
AcDbEntity
  8
Layer_1
 62
7
100
AcDbSpline
 70
8
 71
3
 72
8
 73
4
 74
0
 40
0
 40
0
 40
0
 40
0
 40
1
 40
1
 40
1
 40
1
 10
94.481842
 20
175.122053
 30
0.0
 10
94.481842
 20
174.253816
 30
0.0
 10
93.777997
 20
173.549976
 30
0.0
 10
92.909765
 20
173.549976
 30
0.0
  0
SPLINE
  5
29b
100
AcDbEntity
  8
Layer_1
 62
7
100
AcDbSpline
 70
8
 71
3
 72
8
 73
4
 74
0
 40
0
 40
0
 40
0
 40
0
 40
1
 40
1
 40
1
 40
1
 10
92.909765
 20
173.549976
 30
0.0
 10
92.041534
 20
173.549976
 30
0.0
 10
91.337689
 20
174.253816
 30
0.0
 10
91.337689
 20
175.122053
 30
0.0
  0
SPLINE
  5
29c
100
AcDbEntity
  8
Layer_1
 62
7
100
AcDbSpline
 70
8
 71
3
 72
8
 73
4
 74
0
 40
0
 40
0
 40
0
 40
0
 40
1
 40
1
 40
1
 40
1
 10
91.337689
 20
175.122053
 30
0.0
 10
91.337689
 20
175.990284
 30
0.0
 10
92.041534
 20
176.694129
 30
0.0
 10
92.909765
 20
176.694129
 30
0.0
  0
SPLINE
  5
29d
100
AcDbEntity
  8
Layer_1
 62
7
100
AcDbSpline
 70
8
 71
3
 72
8
 73
4
 74
0
 40
0
 40
0
 40
0
 40
0
 40
1
 40
1
 40
1
 40
1
 10
92.909765
 20
176.694129
 30
0.0
 10
93.777997
 20
176.694129
 30
0.0
 10
94.481842
 20
175.990284
 30
0.0
 10
94.481842
 20
175.122053
 30
0.0
  0
LINE
  5
29e
100
AcDbEntity
  8
Layer_1
 62
7
100
AcDbLine
 10
94.481842
 20
175.122053
 30
0.0
 11
94.481842
 21
175.122053
 31
0.0
  0
SPLINE
  5
29f
100
AcDbEntity
  8
Layer_1
 62
7
100
AcDbSpline
 70
8
 71
3
 72
8
 73
4
 74
0
 40
0
 40
0
 40
0
 40
0
 40
1
 40
1
 40
1
 40
1
 10
183.033817
 20
175.122053
 30
0.0
 10
183.033817
 20
174.253816
 30
0.0
 10
182.329971
 20
173.549976
 30
0.0
 10
181.461740
 20
173.549976
 30
0.0
  0
SPLINE
  5
2a0
100
AcDbEntity
  8
Layer_1
 62
7
100
AcDbSpline
 70
8
 71
3
 72
8
 73
4
 74
0
 40
0
 40
0
 40
0
 40
0
 40
1
 40
1
 40
1
 40
1
 10
181.461740
 20
173.549976
 30
0.0
 10
180.593509
 20
173.549976
 30
0.0
 10
179.889664
 20
174.253816
 30
0.0
 10
179.889664
 20
175.122053
 30
0.0
  0
SPLINE
  5
2a1
100
AcDbEntity
  8
Layer_1
 62
7
100
AcDbSpline
 70
8
 71
3
 72
8
 73
4
 74
0
 40
0
 40
0
 40
0
 40
0
 40
1
 40
1
 40
1
 40
1
 10
179.889664
 20
175.122053
 30
0.0
 10
179.889664
 20
175.990284
 30
0.0
 10
180.593509
 20
176.694129
 30
0.0
 10
181.461740
 20
176.694129
 30
0.0
  0
SPLINE
  5
2a2
100
AcDbEntity
  8
Layer_1
 62
7
100
AcDbSpline
 70
8
 71
3
 72
8
 73
4
 74
0
 40
0
 40
0
 40
0
 40
0
 40
1
 40
1
 40
1
 40
1
 10
181.461740
 20
176.694129
 30
0.0
 10
182.329971
 20
176.694129
 30
0.0
 10
183.033817
 20
175.990284
 30
0.0
 10
183.033817
 20
175.122053
 30
0.0
  0
LINE
  5
2a3
100
AcDbEntity
  8
Layer_1
 62
7
100
AcDbLine
 10
183.033817
 20
175.122053
 30
0.0
 11
183.033817
 21
175.122053
 31
0.0
  0
SPLINE
  5
2a4
100
AcDbEntity
  8
Layer_1
 62
7
100
AcDbSpline
 70
8
 71
3
 72
8
 73
4
 74
0
 40
0
 40
0
 40
0
 40
0
 40
1
 40
1
 40
1
 40
1
 10
183.033817
 20
263.693848
 30
0.0
 10
183.033817
 20
262.825614
 30
0.0
 10
182.329971
 20
262.121769
 30
0.0
 10
181.461740
 20
262.121769
 30
0.0
  0
SPLINE
  5
2a5
100
AcDbEntity
  8
Layer_1
 62
7
100
AcDbSpline
 70
8
 71
3
 72
8
 73
4
 74
0
 40
0
 40
0
 40
0
 40
0
 40
1
 40
1
 40
1
 40
1
 10
181.461740
 20
262.121769
 30
0.0
 10
180.593509
 20
262.121769
 30
0.0
 10
179.889664
 20
262.825614
 30
0.0
 10
179.889664
 20
263.693848
 30
0.0
  0
SPLINE
  5
2a6
100
AcDbEntity
  8
Layer_1
 62
7
100
AcDbSpline
 70
8
 71
3
 72
8
 73
4
 74
0
 40
0
 40
0
 40
0
 40
0
 40
1
 40
1
 40
1
 40
1
 10
179.889664
 20
263.693848
 30
0.0
 10
179.889664
 20
264.562079
 30
0.0
 10
180.593509
 20
265.265924
 30
0.0
 10
181.461740
 20
265.265924
 30
0.0
  0
SPLINE
  5
2a7
100
AcDbEntity
  8
Layer_1
 62
7
100
AcDbSpline
 70
8
 71
3
 72
8
 73
4
 74
0
 40
0
 40
0
 40
0
 40
0
 40
1
 40
1
 40
1
 40
1
 10
181.461740
 20
265.265924
 30
0.0
 10
182.329971
 20
265.265924
 30
0.0
 10
183.033817
 20
264.562079
 30
0.0
 10
183.033817
 20
263.693848
 30
0.0
  0
LINE
  5
2a8
100
AcDbEntity
  8
Layer_1
 62
7
100
AcDbLine
 10
183.033817
 20
263.693848
 30
0.0
 11
183.033817
 21
263.693848
 31
0.0
  0
SPLINE
  5
2a9
100
AcDbEntity
  8
Layer_1
 62
7
100
AcDbSpline
 70
8
 71
3
 72
8
 73
4
 74
0
 40
0
 40
0
 40
0
 40
0
 40
1
 40
1
 40
1
 40
1
 10
288.341339
 20
265.711536
 30
0.0
 10
288.341339
 20
264.843302
 30
0.0
 10
287.637494
 20
264.139457
 30
0.0
 10
286.769262
 20
264.139457
 30
0.0
  0
SPLINE
  5
2aa
100
AcDbEntity
  8
Layer_1
 62
7
100
AcDbSpline
 70
8
 71
3
 72
8
 73
4
 74
0
 40
0
 40
0
 40
0
 40
0
 40
1
 40
1
 40
1
 40
1
 10
286.769262
 20
264.139457
 30
0.0
 10
285.901031
 20
264.139457
 30
0.0
 10
285.197186
 20
264.843302
 30
0.0
 10
285.197186
 20
265.711536
 30
0.0
  0
SPLINE
  5
2ab
100
AcDbEntity
  8
Layer_1
 62
7
100
AcDbSpline
 70
8
 71
3
 72
8
 73
4
 74
0
 40
0
 40
0
 40
0
 40
0
 40
1
 40
1
 40
1
 40
1
 10
285.197186
 20
265.711536
 30
0.0
 10
285.197186
 20
266.579768
 30
0.0
 10
285.901031
 20
267.283613
 30
0.0
 10
286.769262
 20
267.283613
 30
0.0
  0
SPLINE
  5
2ac
100
AcDbEntity
  8
Layer_1
 62
7
100
AcDbSpline
 70
8
 71
3
 72
8
 73
4
 74
0
 40
0
 40
0
 40
0
 40
0
 40
1
 40
1
 40
1
 40
1
 10
286.769262
 20
267.283613
 30
0.0
 10
287.637494
 20
267.283613
 30
0.0
 10
288.341339
 20
266.579768
 30
0.0
 10
288.341339
 20
265.711536
 30
0.0
  0
LINE
  5
2ad
100
AcDbEntity
  8
Layer_1
 62
7
100
AcDbLine
 10
288.341339
 20
265.711536
 30
0.0
 11
288.341339
 21
265.711536
 31
0.0
  0
SPLINE
  5
2ae
100
AcDbEntity
  8
Layer_1
 62
7
100
AcDbSpline
 70
8
 71
3
 72
8
 73
4
 74
0
 40
0
 40
0
 40
0
 40
0
 40
1
 40
1
 40
1
 40
1
 10
288.341339
 20
177.139741
 30
0.0
 10
288.341339
 20
176.271504
 30
0.0
 10
287.637494
 20
175.567665
 30
0.0
 10
286.769262
 20
175.567665
 30
0.0
  0
SPLINE
  5
2af
100
AcDbEntity
  8
Layer_1
 62
7
100
AcDbSpline
 70
8
 71
3
 72
8
 73
4
 74
0
 40
0
 40
0
 40
0
 40
0
 40
1
 40
1
 40
1
 40
1
 10
286.769262
 20
175.567665
 30
0.0
 10
285.901031
 20
175.567665
 30
0.0
 10
285.197186
 20
176.271504
 30
0.0
 10
285.197186
 20
177.139741
 30
0.0
  0
SPLINE
  5
2b0
100
AcDbEntity
  8
Layer_1
 62
7
100
AcDbSpline
 70
8
 71
3
 72
8
 73
4
 74
0
 40
0
 40
0
 40
0
 40
0
 40
1
 40
1
 40
1
 40
1
 10
285.197186
 20
177.139741
 30
0.0
 10
285.197186
 20
178.007972
 30
0.0
 10
285.901031
 20
178.711818
 30
0.0
 10
286.769262
 20
178.711818
 30
0.0
  0
SPLINE
  5
2b1
100
AcDbEntity
  8
Layer_1
 62
7
100
AcDbSpline
 70
8
 71
3
 72
8
 73
4
 74
0
 40
0
 40
0
 40
0
 40
0
 40
1
 40
1
 40
1
 40
1
 10
286.769262
 20
178.711818
 30
0.0
 10
287.637494
 20
178.711818
 30
0.0
 10
288.341339
 20
178.007972
 30
0.0
 10
288.341339
 20
177.139741
 30
0.0
  0
LINE
  5
2b2
100
AcDbEntity
  8
Layer_1
 62
7
100
AcDbLine
 10
288.341339
 20
177.139741
 30
0.0
 11
288.341339
 21
177.139741
 31
0.0
  0
SPLINE
  5
2b3
100
AcDbEntity
  8
Layer_1
 62
7
100
AcDbSpline
 70
8
 71
3
 72
8
 73
4
 74
0
 40
0
 40
0
 40
0
 40
0
 40
1
 40
1
 40
1
 40
1
 10
376.893314
 20
177.139741
 30
0.0
 10
376.893314
 20
176.271504
 30
0.0
 10
376.189469
 20
175.567665
 30
0.0
 10
375.321237
 20
175.567665
 30
0.0
  0
SPLINE
  5
2b4
100
AcDbEntity
  8
Layer_1
 62
7
100
AcDbSpline
 70
8
 71
3
 72
8
 73
4
 74
0
 40
0
 40
0
 40
0
 40
0
 40
1
 40
1
 40
1
 40
1
 10
375.321237
 20
175.567665
 30
0.0
 10
374.453006
 20
175.567665
 30
0.0
 10
373.749161
 20
176.271504
 30
0.0
 10
373.749161
 20
177.139741
 30
0.0
  0
SPLINE
  5
2b5
100
AcDbEntity
  8
Layer_1
 62
7
100
AcDbSpline
 70
8
 71
3
 72
8
 73
4
 74
0
 40
0
 40
0
 40
0
 40
0
 40
1
 40
1
 40
1
 40
1
 10
373.749161
 20
177.139741
 30
0.0
 10
373.749161
 20
178.007972
 30
0.0
 10
374.453006
 20
178.711818
 30
0.0
 10
375.321237
 20
178.711818
 30
0.0
  0
SPLINE
  5
2b6
100
AcDbEntity
  8
Layer_1
 62
7
100
AcDbSpline
 70
8
 71
3
 72
8
 73
4
 74
0
 40
0
 40
0
 40
0
 40
0
 40
1
 40
1
 40
1
 40
1
 10
375.321237
 20
178.711818
 30
0.0
 10
376.189469
 20
178.711818
 30
0.0
 10
376.893314
 20
178.007972
 30
0.0
 10
376.893314
 20
177.139741
 30
0.0
  0
LINE
  5
2b7
100
AcDbEntity
  8
Layer_1
 62
7
100
AcDbLine
 10
376.893314
 20
177.139741
 30
0.0
 11
376.893314
 21
177.139741
 31
0.0
  0
SPLINE
  5
2b8
100
AcDbEntity
  8
Layer_1
 62
7
100
AcDbSpline
 70
8
 71
3
 72
8
 73
4
 74
0
 40
0
 40
0
 40
0
 40
0
 40
1
 40
1
 40
1
 40
1
 10
376.893314
 20
265.711536
 30
0.0
 10
376.893314
 20
264.843302
 30
0.0
 10
376.189469
 20
264.139457
 30
0.0
 10
375.321237
 20
264.139457
 30
0.0
  0
SPLINE
  5
2b9
100
AcDbEntity
  8
Layer_1
 62
7
100
AcDbSpline
 70
8
 71
3
 72
8
 73
4
 74
0
 40
0
 40
0
 40
0
 40
0
 40
1
 40
1
 40
1
 40
1
 10
375.321237
 20
264.139457
 30
0.0
 10
374.453006
 20
264.139457
 30
0.0
 10
373.749161
 20
264.843302
 30
0.0
 10
373.749161
 20
265.711536
 30
0.0
  0
SPLINE
  5
2ba
100
AcDbEntity
  8
Layer_1
 62
7
100
AcDbSpline
 70
8
 71
3
 72
8
 73
4
 74
0
 40
0
 40
0
 40
0
 40
0
 40
1
 40
1
 40
1
 40
1
 10
373.749161
 20
265.711536
 30
0.0
 10
373.749161
 20
266.579768
 30
0.0
 10
374.453006
 20
267.283613
 30
0.0
 10
375.321237
 20
267.283613
 30
0.0
  0
SPLINE
  5
2bb
100
AcDbEntity
  8
Layer_1
 62
7
100
AcDbSpline
 70
8
 71
3
 72
8
 73
4
 74
0
 40
0
 40
0
 40
0
 40
0
 40
1
 40
1
 40
1
 40
1
 10
375.321237
 20
267.283613
 30
0.0
 10
376.189469
 20
267.283613
 30
0.0
 10
376.893314
 20
266.579768
 30
0.0
 10
376.893314
 20
265.711536
 30
0.0
  0
LINE
  5
2bc
100
AcDbEntity
  8
Layer_1
 62
7
100
AcDbLine
 10
376.893314
 20
265.711536
 30
0.0
 11
376.893314
 21
265.711536
 31
0.0
  0
LINE
  5
2bd
100
AcDbEntity
  8
Layer_1
 62
7
100
AcDbLine
 10
360.548030
 20
273.640818
 30
0.0
 11
374.014289
 21
273.626594
 31
0.0
  0
SPLINE
  5
2be
100
AcDbEntity
  8
Layer_1
 62
7
100
AcDbSpline
 70
8
 71
3
 72
8
 73
4
 74
0
 40
0
 40
0
 40
0
 40
0
 40
1
 40
1
 40
1
 40
1
 10
374.014289
 20
273.626594
 30
0.0
 10
379.554288
 20
273.626594
 30
0.0
 10
384.015539
 20
269.165344
 30
0.0
 10
384.015539
 20
263.625344
 30
0.0
  0
LINE
  5
2bf
100
AcDbEntity
  8
Layer_1
 62
7
100
AcDbLine
 10
384.015539
 20
263.625344
 30
0.0
 11
384.015539
 21
258.624719
 31
0.0
  0
SPLINE
  5
2c0
100
AcDbEntity
  8
Layer_1
 62
7
100
AcDbSpline
 70
8
 71
3
 72
8
 73
4
 74
0
 40
0
 40
0
 40
0
 40
0
 40
1
 40
1
 40
1
 40
1
 10
384.015539
 20
258.624719
 30
0.0
 10
384.015539
 20
255.854719
 30
0.0
 10
379.014914
 20
256.394094
 30
0.0
 10
379.014914
 20
253.624094
 30
0.0
  0
LINE
  5
2c1
100
AcDbEntity
  8
Layer_1
 62
7
100
AcDbLine
 10
379.014914
 20
253.624094
 30
0.0
 11
379.014914
 21
188.624789
 31
0.0
  0
SPLINE
  5
2c2
100
AcDbEntity
  8
Layer_1
 62
7
100
AcDbSpline
 70
8
 71
3
 72
8
 73
4
 74
0
 40
0
 40
0
 40
0
 40
0
 40
1
 40
1
 40
1
 40
1
 10
379.014914
 20
188.624789
 30
0.0
 10
379.014914
 20
185.854777
 30
0.0
 10
384.015539
 20
186.394189
 30
0.0
 10
384.015539
 20
183.624178
 30
0.0
  0
LINE
  5
2c3
100
AcDbEntity
  8
Layer_1
 62
7
100
AcDbLine
 10
384.015539
 20
183.624178
 30
0.0
 11
384.015539
 21
178.623539
 31
0.0
  0
SPLINE
  5
2c4
100
AcDbEntity
  8
Layer_1
 62
7
100
AcDbSpline
 70
8
 71
3
 72
8
 73
4
 74
0
 40
0
 40
0
 40
0
 40
0
 40
1
 40
1
 40
1
 40
1
 10
384.015539
 20
178.623539
 30
0.0
 10
384.015539
 20
173.083545
 30
0.0
 10
379.554288
 20
168.622289
 30
0.0
 10
374.014289
 20
168.622289
 30
0.0
  0
LINE
  5
2c5
100
AcDbEntity
  8
Layer_1
 62
7
100
AcDbLine
 10
374.014289
 20
168.622289
 30
0.0
 11
289.012483
 21
168.622289
 31
0.0
  0
SPLINE
  5
2c6
100
AcDbEntity
  8
Layer_1
 62
7
100
AcDbSpline
 70
8
 71
3
 72
8
 73
4
 74
0
 40
0
 40
0
 40
0
 40
0
 40
1
 40
1
 40
1
 40
1
 10
289.012483
 20
168.622289
 30
0.0
 10
283.472484
 20
168.622289
 30
0.0
 10
279.011233
 20
173.083545
 30
0.0
 10
279.011233
 20
178.623539
 30
0.0
  0
LINE
  5
2c7
100
AcDbEntity
  8
Layer_1
 62
7
100
AcDbLine
 10
279.011233
 20
178.623539
 30
0.0
 11
279.011233
 21
263.625344
 31
0.0
  0
SPLINE
  5
2c8
100
AcDbEntity
  8
Layer_1
 62
7
100
AcDbSpline
 70
8
 71
3
 72
8
 73
4
 74
0
 40
0
 40
0
 40
0
 40
0
 40
1
 40
1
 40
1
 40
1
 10
279.011233
 20
263.625344
 30
0.0
 10
279.011233
 20
269.165344
 30
0.0
 10
283.472484
 20
273.626594
 30
0.0
 10
289.012483
 20
273.626594
 30
0.0
  0
LINE
  5
2c9
100
AcDbEntity
  8
Layer_1
 62
7
100
AcDbLine
 10
289.012483
 20
273.626594
 30
0.0
 11
291.544299
 21
273.626594
 31
0.0
  0
SPLINE
  5
2ca
100
AcDbEntity
  8
Layer_1
 62
7
100
AcDbSpline
 70
8
 71
3
 72
8
 73
4
 74
0
 40
0
 40
0
 40
0
 40
0
 40
1
 40
1
 40
1
 40
1
 10
291.544299
 20
273.626594
 30
0.0
 10
294.307559
 20
273.626594
 30
0.0
 10
296.547625
 20
271.375299
 30
0.0
 10
296.545957
 20
268.612391
 30
0.0
  0
LINE
  5
2cb
100
AcDbEntity
  8
Layer_1
 62
7
100
AcDbLine
 10
296.545957
 20
268.612391
 30
0.0
 11
296.544263
 21
253.624094
 31
0.0
  0
SPLINE
  5
2cc
100
AcDbEntity
  8
Layer_1
 62
7
100
AcDbSpline
 70
8
 71
3
 72
8
 73
4
 74
0
 40
0
 40
0
 40
0
 40
0
 40
1
 40
1
 40
1
 40
1
 10
296.544263
 20
253.624094
 30
0.0
 10
296.543981
 20
250.854094
 30
0.0
 10
298.774889
 20
248.623469
 30
0.0
 10
301.544888
 20
248.623469
 30
0.0
  0
LINE
  5
2cd
100
AcDbEntity
  8
Layer_1
 62
7
100
AcDbLine
 10
301.544888
 20
248.623469
 30
0.0
 11
350.545722
 21
248.623469
 31
0.0
  0
SPLINE
  5
2ce
100
AcDbEntity
  8
Layer_1
 62
7
100
AcDbSpline
 70
8
 71
3
 72
8
 73
4
 74
0
 40
0
 40
0
 40
0
 40
0
 40
1
 40
1
 40
1
 40
1
 10
350.545722
 20
248.623469
 30
0.0
 10
353.315722
 20
248.623469
 30
0.0
 10
355.546347
 20
250.854094
 30
0.0
 10
355.546347
 20
253.624094
 30
0.0
  0
LINE
  5
2cf
100
AcDbEntity
  8
Layer_1
 62
7
100
AcDbLine
 10
355.546347
 20
253.624094
 30
0.0
 11
355.546347
 21
268.626604
 31
0.0
  0
SPLINE
  5
2d0
100
AcDbEntity
  8
Layer_1
 62
7
100
AcDbSpline
 70
8
 71
3
 72
8
 73
4
 74
0
 40
0
 40
0
 40
0
 40
0
 40
1
 40
1
 40
1
 40
1
 10
355.546347
 20
268.626604
 30
0.0
 10
355.546347
 20
271.403724
 30
0.0
 10
357.786415
 20
273.655020
 30
0.0
 10
360.548005
 20
273.640807
 30
0.0
  0
LINE
  5
2d1
100
AcDbEntity
  8
Layer_1
 62
7
100
AcDbLine
 10
360.548005
 20
273.640807
 30
0.0
 11
360.548030
 21
273.640818
 31
0.0
  0
LINE
  5
2d2
100
AcDbEntity
  8
Layer_1
 62
7
100
AcDbLine
 10
84.241629
 20
140.502519
 30
0.0
 11
94.241629
 21
140.502519
 31
0.0
  0
LINE
  5
2d3
100
AcDbEntity
  8
Layer_1
 62
7
100
AcDbLine
 10
94.241629
 20
140.502519
 30
0.0
 11
94.241629
 21
130.502519
 31
0.0
  0
LINE
  5
2d4
100
AcDbEntity
  8
Layer_1
 62
7
100
AcDbLine
 10
94.241629
 20
130.502519
 30
0.0
 11
84.241629
 21
130.502519
 31
0.0
  0
LINE
  5
2d5
100
AcDbEntity
  8
Layer_1
 62
7
100
AcDbLine
 10
84.241629
 20
130.502519
 30
0.0
 11
84.241629
 21
140.502519
 31
0.0
  0
ENDSEC
  0
SECTION
  2
OBJECTS
  0
DICTIONARY
  5
C
330
0
100
AcDbDictionary
  3
ACAD_GROUP
350
D
  3
ACAD_MLINESTYLE
350
17
  0
DICTIONARY
  5
D
330
C
100
AcDbDictionary
  0
DICTIONARY
  5
1A
330
C
100
AcDbDictionary
  0
DICTIONARY
  5
17
330
C
100
AcDbDictionary
  3
STANDARD
350
18
  0
DICTIONARY
  5
19
330
C
100
AcDbDictionary
  0
ENDSEC
  0
EOF
